<?xml version="1.0" encoding="utf-8"?>
<!-- Generator: Adobe Illustrator 24.2.3, SVG Export Plug-In . SVG Version: 6.00 Build 0)  -->
<!DOCTYPE svg PUBLIC "-//W3C//DTD SVG 1.1//EN" "http://www.w3.org/Graphics/SVG/1.1/DTD/svg11.dtd" [
	<!ENTITY ns_extend "http://ns.adobe.com/Extensibility/1.0/">
	<!ENTITY ns_ai "http://ns.adobe.com/AdobeIllustrator/10.0/">
	<!ENTITY ns_graphs "http://ns.adobe.com/Graphs/1.0/">
	<!ENTITY ns_vars "http://ns.adobe.com/Variables/1.0/">
	<!ENTITY ns_imrep "http://ns.adobe.com/ImageReplacement/1.0/">
	<!ENTITY ns_sfw "http://ns.adobe.com/SaveForWeb/1.0/">
	<!ENTITY ns_custom "http://ns.adobe.com/GenericCustomNamespace/1.0/">
	<!ENTITY ns_adobe_xpath "http://ns.adobe.com/XPath/1.0/">
]>
<svg version="1.1" id="Layer_2_1_" xmlns:x="&ns_extend;" xmlns:i="&ns_ai;" xmlns:graph="&ns_graphs;"
	 xmlns="http://www.w3.org/2000/svg" xmlns:xlink="http://www.w3.org/1999/xlink" x="0px" y="0px" viewBox="0 0 122.9 122.9"
	 style="enable-background:new 0 0 122.9 122.9;" xml:space="preserve">
<style type="text/css">
	.st0{fill:none;}
	.st1{fill:#FC787D;}
	.st2{fill:url(#SVGID_1_);fill-opacity:0.2;}
	.st3{fill:#1BB6F9;}
	.st4{fill:url(#SVGID_2_);fill-opacity:0.2;}
	.st5{fill:#1B567A;}
	.st6{fill:url(#SVGID_3_);fill-opacity:0.2;}
</style>
<metadata  id="CorelCorpID_0Corel-Layer">
	<sfw  xmlns="&ns_sfw;">
		<slices></slices>
		<sliceSourceBounds  bottomLeftOrigin="true" height="122.9" width="122.9" x="0" y="0"></sliceSourceBounds>
	</sfw>
</metadata>
<rect y="0" class="st0" width="122.9" height="122.9"/>
<g>
	<path class="st1" d="M43.1,14.9h60.1c4.9,0,8.9,3.9,8.9,8.9v85.7c0,4.9-3.9,8.9-8.9,8.9H43.1c-4.9,0-8.9-3.9-8.9-8.9V23.8
		C34.2,18.9,38.2,14.9,43.1,14.9z"/>
	<linearGradient id="SVGID_1_" gradientUnits="userSpaceOnUse" x1="34.2403" y1="66.6518" x2="112.0862" y2="66.6518">
		<stop  offset="0" style="stop-color:#FFFFFF"/>
		<stop  offset="1" style="stop-color:#FFFFFF;stop-opacity:0"/>
	</linearGradient>
	<path class="st2" d="M43.1,14.9h60.1c4.9,0,8.9,3.9,8.9,8.9v85.7c0,4.9-3.9,8.9-8.9,8.9H43.1c-4.9,0-8.9-3.9-8.9-8.9V23.8
		C34.2,18.9,38.2,14.9,43.1,14.9z"/>
	<path class="st3" d="M19.7,4.5h60.1c4.9,0,8.9,3.9,8.9,8.9v85.7c0,4.9-3.9,8.9-8.9,8.9H19.7c-4.9,0-8.9-3.9-8.9-8.9V13.4
		C10.8,8.4,14.7,4.5,19.7,4.5z"/>
	
		<linearGradient id="SVGID_2_" gradientUnits="userSpaceOnUse" x1="10.8138" y1="67.6417" x2="88.763" y2="67.6417" gradientTransform="matrix(1 0 0 -1 0 123.8898)">
		<stop  offset="0" style="stop-color:#FFFFFF"/>
		<stop  offset="1" style="stop-color:#FFFFFF;stop-opacity:0"/>
	</linearGradient>
	<path class="st4" d="M19.7,4.5h60.1c4.9,0,8.9,4,8.9,8.9v85.7c0,4.9-4,8.9-8.9,8.9H19.7c-4.9,0-8.9-4-8.9-8.9V13.4
		C10.8,8.5,14.8,4.5,19.7,4.5z"/>
	<path class="st5" d="M79.8,108H34.1V23.8c0-4.9,4-8.9,8.9-8.9h45.7v84.2C88.7,104,84.7,108,79.8,108z"/>
	<linearGradient id="SVGID_3_" gradientUnits="userSpaceOnUse" x1="34.0851" y1="61.454" x2="88.6597" y2="61.454">
		<stop  offset="0" style="stop-color:#FFFFFF"/>
		<stop  offset="1" style="stop-color:#FFFFFF;stop-opacity:0"/>
	</linearGradient>
	<path class="st6" d="M79.8,108H34.1V23.8c0-4.9,4-8.9,8.9-8.9h45.7v84.2C88.7,104,84.7,108,79.8,108z"/>
</g>
</svg>
