<?xml version="1.0" encoding="utf-8"?>
<!-- Generator: Adobe Illustrator 24.2.3, SVG Export Plug-In . SVG Version: 6.00 Build 0)  -->
<!DOCTYPE svg PUBLIC "-//W3C//DTD SVG 1.1//EN" "http://www.w3.org/Graphics/SVG/1.1/DTD/svg11.dtd" [
	<!ENTITY ns_extend "http://ns.adobe.com/Extensibility/1.0/">
	<!ENTITY ns_ai "http://ns.adobe.com/AdobeIllustrator/10.0/">
	<!ENTITY ns_graphs "http://ns.adobe.com/Graphs/1.0/">
	<!ENTITY ns_vars "http://ns.adobe.com/Variables/1.0/">
	<!ENTITY ns_imrep "http://ns.adobe.com/ImageReplacement/1.0/">
	<!ENTITY ns_sfw "http://ns.adobe.com/SaveForWeb/1.0/">
	<!ENTITY ns_custom "http://ns.adobe.com/GenericCustomNamespace/1.0/">
	<!ENTITY ns_adobe_xpath "http://ns.adobe.com/XPath/1.0/">
]>
<svg version="1.1" id="Layer_1" xmlns:x="&ns_extend;" xmlns:i="&ns_ai;" xmlns:graph="&ns_graphs;"
	 xmlns="http://www.w3.org/2000/svg" xmlns:xlink="http://www.w3.org/1999/xlink" x="0px" y="0px" viewBox="0 0 1300 286.9"
	 style="enable-background:new 0 0 1300 286.9;" xml:space="preserve">
<style type="text/css">
	.st0{fill-rule:evenodd;clip-rule:evenodd;fill:url(#Fill-161_1_);}
	.st1{fill-rule:evenodd;clip-rule:evenodd;fill:#F06A2B;}
	.st2{fill-rule:evenodd;clip-rule:evenodd;fill:url(#Fill-163_2_);}
	.st3{fill-rule:evenodd;clip-rule:evenodd;fill:url(#Fill-163_3_);}
	.st4{fill-rule:evenodd;clip-rule:evenodd;fill:url(#Rectangle_6_);}
	.st5{fill-rule:evenodd;clip-rule:evenodd;fill:url(#Rectangle_7_);}
	.st6{enable-background:new    ;}
	.st7{fill-rule:evenodd;clip-rule:evenodd;fill:url(#Rectangle_8_);}
	.st8{fill-rule:evenodd;clip-rule:evenodd;fill:url(#Rectangle_9_);}
	.st9{fill-rule:evenodd;clip-rule:evenodd;}
	.st10{fill-rule:evenodd;clip-rule:evenodd;fill:#F06A2A;}
	.st11{fill-rule:evenodd;clip-rule:evenodd;fill:url(#Fill-161_3_);}
	.st12{fill-rule:evenodd;clip-rule:evenodd;fill:url(#Fill-163_6_);}
	.st13{fill-rule:evenodd;clip-rule:evenodd;fill:url(#Fill-163_7_);}
	.st14{fill-rule:evenodd;clip-rule:evenodd;fill:#FFCB00;}
	.st15{fill-rule:evenodd;clip-rule:evenodd;fill:url(#Rectangle_20_);}
	.st16{fill-rule:evenodd;clip-rule:evenodd;fill:url(#Rectangle_21_);}
	.st17{fill:#FFFFFF;}
	.st18{fill-rule:evenodd;clip-rule:evenodd;fill:#C7BAAF;}
	.st19{fill-rule:evenodd;clip-rule:evenodd;fill:#FFFFFF;}
	.st20{fill-rule:evenodd;clip-rule:evenodd;fill:url(#Rectangle_28_);}
	.st21{fill-rule:evenodd;clip-rule:evenodd;stroke:#000000;stroke-width:0.2965;}
	.st22{fill-rule:evenodd;clip-rule:evenodd;fill:url(#Rectangle_29_);}
	.st23{fill-rule:evenodd;clip-rule:evenodd;fill:#F1692A;stroke:#DCD4D1;stroke-width:3.1125;}
	.st24{fill-rule:evenodd;clip-rule:evenodd;fill:#333333;stroke:#DCD4D1;stroke-width:2.3343;}
	.st25{fill:#F1692A;}
	.st26{fill-rule:evenodd;clip-rule:evenodd;fill:#FFFFFF;stroke:#FFFFFF;stroke-width:0.7781;}
	.st27{fill-rule:evenodd;clip-rule:evenodd;fill:#FFFFFF;stroke:#FFFFFF;stroke-width:1.5562;}
</style>
<metadata>
	<sfw  xmlns="&ns_sfw;">
		<slices></slices>
		<sliceSourceBounds  bottomLeftOrigin="true" height="219.8" width="1263.5" x="16" y="35.8"></sliceSourceBounds>
	</sfw>
</metadata>
<g id="Layer_1_1_">
</g>
<g id="Layer_2_1_">
	<g id="customers-love-us-white">
		<g id="Group-3">
			<g id="White-leader-badge-2">
				<g id="White-leader-badge">
					<g id="Group-6">
						<g id="Group-5">
							<g id="shield">
								
									<linearGradient id="Fill-161_1_" gradientUnits="userSpaceOnUse" x1="4.396" y1="-275.7393" x2="5.5894" y2="-274.9384" gradientTransform="matrix(286 0 0 302.6096 -285 83579.375)">
									<stop  offset="0" style="stop-color:#C2C2BD"/>
									<stop  offset="1" style="stop-color:#F06A2A"/>
								</linearGradient>
								<path id="Fill-161" class="st0" d="M861.8,175.5V63.9c0-0.6,0.4-1.1,1-1.2l83.6-12.4c0.1,0,0.2,0,0.3,0l83.6,12.4
									c0.6,0.1,1,0.6,1,1.2v111.6c0,0.4-0.2,0.8-0.6,1l-83.6,53c-0.4,0.2-0.9,0.2-1.3,0l-83.6-53
									C862,176.3,861.8,175.9,861.8,175.5z"/>
								<path id="Fill-162" class="st1" d="M1028.1,67.1c-0.1-0.4-0.4-1.1-0.7-1.4l-79.7-12c-0.1,0-0.2,0-1.1,0c-1,0-1.1,0-1.1,0
									l-79.9,12c-0.3,0.3-0.6,1-0.7,1.4v106.1c0.1,0.4,0.4,1.1,0.7,1.4l81,52l80.9-52c0.3-0.2,0.6-1,0.7-1.4L1028.1,67.1z"/>
								
									<linearGradient id="Fill-163_2_" gradientUnits="userSpaceOnUse" x1="4.5728" y1="-275.7262" x2="4.4486" y2="-275.8208" gradientTransform="matrix(261.9238 0 0 279.8408 -249.0124 77281.3906)">
									<stop  offset="0" style="stop-color:#FFFFFF"/>
									<stop  offset="1" style="stop-color:#E7E7E7"/>
								</linearGradient>
								<polygon id="Fill-163" class="st2" points="868.8,68.6 868.8,171.6 946.6,223.1 1024.1,171.6 1024.1,68.6 946.6,57.2 
																	"/>
								
									<linearGradient id="Fill-163_3_" gradientUnits="userSpaceOnUse" x1="7.8033" y1="-275.7764" x2="7.9425" y2="-275.3571" gradientTransform="matrix(131.4054 0 0 279.8408 -118.8108 77281.3906)">
									<stop  offset="0" style="stop-color:#FFFFFF"/>
									<stop  offset="1" style="stop-color:#F3F3F3"/>
								</linearGradient>
								<polygon id="Fill-163_1_" class="st3" points="868.6,171.6 946.6,223.1 946.6,57.2 868.8,68.6 								"/>
							</g>
						</g>
						<g id="Sash-and-text" transform="translate(11.391892, 89.044586)">
							
								<linearGradient id="Rectangle_6_" gradientUnits="userSpaceOnUse" x1="-17.3555" y1="-274.3208" x2="-18.0709" y2="-274.1344" gradientTransform="matrix(262.2406 0 0 107 5713.7954 29373.8945)">
								<stop  offset="0" style="stop-color:#FFCB00"/>
								<stop  offset="1" style="stop-color:#F06A2B"/>
							</linearGradient>
							<polygon id="Rectangle" class="st4" points="857.4,14 1012.7,14 1012.7,77.5 857.3,77.5 							"/>
						</g>
						<g id="Sash-and-text_1_" transform="translate(17.391892, 164.044586)">
						</g>
						
							<linearGradient id="Rectangle_7_" gradientUnits="userSpaceOnUse" x1="3.7776" y1="-274.2031" x2="4.5588" y2="-274.0944" gradientTransform="matrix(262.4054 0 0 107 -249.8108 29462.8965)">
							<stop  offset="0" style="stop-color:#FFCB00"/>
							<stop  offset="1" style="stop-color:#F06A2B"/>
						</linearGradient>
						<polygon id="Rectangle_1_" class="st5" points="868.7,103.1 1024.2,103.1 868.6,166.5 						"/>
						<g class="st6">
							<path d="M888.8,121.9l4.2,1.3c-0.6,2.3-1.7,4-3.2,5.2s-3.4,1.7-5.6,1.7c-2.8,0-5.1-1-6.9-2.9c-1.8-1.9-2.7-4.6-2.7-7.9
								c0-3.5,0.9-6.3,2.7-8.2c1.8-2,4.2-2.9,7.2-2.9c2.6,0,4.7,0.8,6.3,2.3c1,0.9,1.7,2.2,2.2,3.9l-4.2,1c-0.3-1.1-0.8-2-1.6-2.6
								c-0.8-0.6-1.8-1-2.9-1c-1.6,0-2.8,0.6-3.8,1.7c-1,1.1-1.5,3-1.5,5.5c0,2.7,0.5,4.6,1.4,5.7s2.2,1.7,3.8,1.7
								c1.1,0,2.1-0.4,2.9-1.1S888.4,123.5,888.8,121.9z"/>
							<path d="M906.7,129.7v-2.3c-0.6,0.8-1.3,1.5-2.2,1.9s-1.9,0.7-2.9,0.7c-1,0-2-0.2-2.8-0.7s-1.4-1.1-1.8-1.9
								c-0.4-0.8-0.6-2-0.6-3.4v-9.7h4.1v7.1c0,2.2,0.1,3.5,0.2,4s0.4,0.9,0.8,1.2c0.4,0.3,0.9,0.4,1.5,0.4c0.7,0,1.3-0.2,1.9-0.6
								c0.6-0.4,0.9-0.9,1.1-1.4c0.2-0.6,0.3-1.9,0.3-4.1v-6.5h4.1v15.4H906.7z"/>
							<path d="M913.3,125.4l4.1-0.6c0.2,0.8,0.5,1.4,1.1,1.8c0.5,0.4,1.3,0.6,2.2,0.6c1.1,0,1.8-0.2,2.4-0.6
								c0.4-0.3,0.5-0.6,0.5-1.1c0-0.3-0.1-0.6-0.3-0.8c-0.2-0.2-0.7-0.4-1.4-0.5c-3.3-0.7-5.4-1.4-6.2-2c-1.2-0.8-1.8-2-1.8-3.5
								c0-1.3,0.5-2.5,1.6-3.4s2.7-1.4,4.9-1.4c2.1,0,3.7,0.3,4.7,1c1,0.7,1.7,1.7,2.1,3l-3.8,0.7c-0.2-0.6-0.5-1.1-0.9-1.4
								c-0.5-0.3-1.1-0.5-2-0.5c-1.1,0-1.8,0.1-2.3,0.4c-0.3,0.2-0.5,0.5-0.5,0.8c0,0.3,0.1,0.5,0.4,0.7c0.4,0.3,1.6,0.7,3.8,1.1
								c2.2,0.5,3.7,1.1,4.5,1.8c0.8,0.7,1.3,1.7,1.3,3c0,1.4-0.6,2.6-1.8,3.6c-1.2,1-2.9,1.5-5.2,1.5c-2.1,0-3.8-0.4-5-1.3
								C914.4,128,913.6,126.8,913.3,125.4z"/>
							<path d="M938.2,114.4v3.2h-2.8v6.2c0,1.3,0,2,0.1,2.2c0.1,0.2,0.2,0.4,0.4,0.5c0.2,0.1,0.4,0.2,0.7,0.2
								c0.4,0,0.9-0.1,1.6-0.4l0.3,3.2c-0.9,0.4-2,0.6-3.2,0.6c-0.7,0-1.4-0.1-2-0.4c-0.6-0.2-1-0.6-1.3-1c-0.3-0.4-0.5-0.9-0.6-1.6
								c-0.1-0.5-0.1-1.4-0.1-2.9v-6.7h-1.9v-3.2h1.9v-3.1l4.1-2.4v5.4H938.2z"/>
							<path d="M940.1,121.8c0-1.4,0.3-2.7,1-3.9c0.7-1.3,1.6-2.2,2.8-2.9s2.6-1,4.1-1c2.3,0,4.2,0.8,5.7,2.3
								c1.5,1.5,2.2,3.4,2.2,5.7c0,2.3-0.8,4.3-2.3,5.8c-1.5,1.5-3.4,2.3-5.7,2.3c-1.4,0-2.8-0.3-4-1c-1.3-0.6-2.3-1.6-2.9-2.8
								C940.4,125.1,940.1,123.6,940.1,121.8z M944.3,122.1c0,1.5,0.4,2.7,1.1,3.5c0.7,0.8,1.6,1.2,2.7,1.2s2-0.4,2.7-1.2
								c0.7-0.8,1.1-2,1.1-3.5c0-1.5-0.4-2.7-1.1-3.5c-0.7-0.8-1.6-1.2-2.7-1.2s-2,0.4-2.7,1.2C944.6,119.4,944.3,120.5,944.3,122.1
								z"/>
							<path d="M958.9,114.4h3.8v2.1c1.3-1.6,2.9-2.4,4.8-2.4c1,0,1.8,0.2,2.6,0.6c0.7,0.4,1.3,1,1.8,1.8c0.7-0.8,1.4-1.4,2.2-1.8
								c0.8-0.4,1.6-0.6,2.5-0.6c1.1,0,2.1,0.2,2.9,0.7c0.8,0.5,1.4,1.1,1.8,2c0.3,0.7,0.4,1.7,0.4,3.2v9.8h-4.1V121
								c0-1.5-0.1-2.5-0.4-3c-0.4-0.6-1-0.9-1.7-0.9c-0.6,0-1.1,0.2-1.6,0.5c-0.5,0.3-0.9,0.9-1.1,1.5c-0.2,0.7-0.3,1.7-0.3,3.2v7.4
								h-4.1v-8.4c0-1.5-0.1-2.5-0.2-2.9c-0.1-0.4-0.4-0.8-0.7-1c-0.3-0.2-0.7-0.3-1.2-0.3c-0.6,0-1.2,0.2-1.7,0.5
								c-0.5,0.3-0.9,0.8-1.1,1.5c-0.2,0.6-0.3,1.7-0.3,3.2v7.5h-4.1V114.4z"/>
							<path d="M994.4,124.9l4.1,0.7c-0.5,1.5-1.3,2.6-2.5,3.4c-1.1,0.8-2.5,1.2-4.2,1.2c-2.7,0-4.7-0.9-5.9-2.6
								c-1-1.4-1.5-3.2-1.5-5.3c0-2.5,0.7-4.5,2-6c1.3-1.4,3-2.2,5.1-2.2c2.3,0,4.1,0.8,5.4,2.3c1.3,1.5,2,3.8,1.9,6.9h-10.2
								c0,1.2,0.4,2.1,1,2.8c0.6,0.7,1.4,1,2.3,1c0.6,0,1.2-0.2,1.6-0.5C993.9,126.2,994.2,125.6,994.4,124.9z M994.7,120.7
								c0-1.2-0.3-2.1-0.9-2.7c-0.6-0.6-1.3-0.9-2.1-0.9c-0.9,0-1.6,0.3-2.2,1c-0.6,0.6-0.9,1.5-0.9,2.6H994.7z"/>
							<path d="M1005.9,129.7h-4.1v-15.4h3.8v2.2c0.6-1,1.2-1.7,1.7-2c0.5-0.3,1.1-0.5,1.8-0.5c0.9,0,1.8,0.3,2.7,0.8l-1.3,3.5
								c-0.7-0.4-1.3-0.7-1.9-0.7c-0.6,0-1.1,0.2-1.4,0.5c-0.4,0.3-0.7,0.9-0.9,1.7s-0.3,2.5-0.3,5.2V129.7z"/>
						</g>
						<g class="st6">
							<path d="M896,158.8v-21h4.3v17.5h10.7v3.6H896z"/>
							<path d="M913,150.9c0-1.4,0.3-2.7,1-3.9c0.7-1.3,1.6-2.2,2.8-2.9s2.6-1,4.1-1c2.3,0,4.2,0.8,5.7,2.3c1.5,1.5,2.2,3.4,2.2,5.7
								c0,2.3-0.8,4.3-2.3,5.8c-1.5,1.5-3.4,2.3-5.7,2.3c-1.4,0-2.8-0.3-4-1c-1.3-0.6-2.3-1.6-2.9-2.8
								C913.3,154.2,913,152.7,913,150.9z M917.2,151.1c0,1.5,0.4,2.7,1.1,3.5s1.6,1.2,2.7,1.2c1.1,0,2-0.4,2.7-1.2s1.1-2,1.1-3.5
								c0-1.5-0.4-2.7-1.1-3.5s-1.6-1.2-2.7-1.2c-1.1,0-2,0.4-2.7,1.2S917.2,149.6,917.2,151.1z"/>
							<path d="M936.3,158.8l-6.2-15.4h4.3l2.9,7.8l0.8,2.6c0.2-0.7,0.4-1.1,0.4-1.3c0.1-0.4,0.3-0.9,0.4-1.3l2.9-7.8h4.2l-6.1,15.4
								H936.3z"/>
							<path d="M957.4,153.9l4.1,0.7c-0.5,1.5-1.3,2.6-2.5,3.4c-1.1,0.8-2.5,1.2-4.2,1.2c-2.7,0-4.7-0.9-5.9-2.6
								c-1-1.4-1.5-3.2-1.5-5.3c0-2.5,0.7-4.5,2-6c1.3-1.4,3-2.2,5.1-2.2c2.3,0,4.1,0.8,5.4,2.3c1.3,1.5,2,3.8,1.9,6.9h-10.2
								c0,1.2,0.4,2.1,1,2.8s1.4,1,2.3,1c0.6,0,1.2-0.2,1.6-0.5C956.9,155.2,957.2,154.7,957.4,153.9z M957.7,149.8
								c0-1.2-0.3-2.1-0.9-2.7c-0.6-0.6-1.3-0.9-2.1-0.9c-0.9,0-1.6,0.3-2.2,1c-0.6,0.6-0.9,1.5-0.9,2.6H957.7z"/>
							<path d="M973.3,137.6h4.3v11.5c0,1.8,0.1,3,0.2,3.5c0.2,0.9,0.6,1.6,1.3,2.1c0.7,0.5,1.6,0.8,2.8,0.8c1.2,0,2.1-0.2,2.8-0.7
								s1-1.1,1.1-1.8c0.1-0.7,0.2-1.9,0.2-3.6v-11.7h4.3v11.1c0,2.5-0.1,4.3-0.3,5.4c-0.2,1.1-0.7,1.9-1.3,2.7
								c-0.6,0.7-1.5,1.3-2.5,1.7c-1,0.4-2.4,0.6-4.1,0.6c-2,0-3.6-0.2-4.6-0.7c-1-0.5-1.9-1.1-2.5-1.8s-1-1.5-1.2-2.4
								c-0.3-1.2-0.4-3-0.4-5.4V137.6z"/>
							<path d="M993.2,154.4l4.1-0.6c0.2,0.8,0.5,1.4,1.1,1.8c0.5,0.4,1.3,0.6,2.2,0.6c1.1,0,1.8-0.2,2.4-0.6
								c0.4-0.3,0.5-0.6,0.5-1.1c0-0.3-0.1-0.6-0.3-0.8c-0.2-0.2-0.7-0.4-1.4-0.5c-3.3-0.7-5.4-1.4-6.2-2c-1.2-0.8-1.8-2-1.8-3.5
								c0-1.3,0.5-2.5,1.6-3.4c1.1-0.9,2.7-1.4,4.9-1.4c2.1,0,3.7,0.3,4.7,1s1.7,1.7,2.1,3l-3.8,0.7c-0.2-0.6-0.5-1.1-0.9-1.4
								s-1.1-0.5-2-0.5c-1.1,0-1.8,0.1-2.3,0.4c-0.3,0.2-0.5,0.5-0.5,0.8c0,0.3,0.1,0.5,0.4,0.7c0.4,0.3,1.6,0.7,3.8,1.1
								c2.2,0.5,3.7,1.1,4.5,1.8c0.8,0.7,1.3,1.7,1.3,3c0,1.4-0.6,2.6-1.8,3.6c-1.2,1-2.9,1.5-5.2,1.5c-2.1,0-3.8-0.4-5-1.3
								C994.4,157,993.6,155.9,993.2,154.4z"/>
						</g>
						
							<linearGradient id="Rectangle_8_" gradientUnits="userSpaceOnUse" x1="5.4283" y1="-274.3208" x2="4.7129" y2="-274.1344" gradientTransform="matrix(262.2406 0 0 107 -249.646 29462.9434)">
							<stop  offset="0" style="stop-color:#FFCB00"/>
							<stop  offset="1" style="stop-color:#F06A2B"/>
						</linearGradient>
						<polygon id="Rectangle_2_" class="st7" points="868.8,103.1 1024.1,103.1 1024.1,166.5 868.6,166.5 						"/>
						
							<linearGradient id="Rectangle_9_" gradientUnits="userSpaceOnUse" x1="3.7776" y1="-274.2031" x2="4.5588" y2="-274.0944" gradientTransform="matrix(262.4054 0 0 107 -249.8108 29462.8965)">
							<stop  offset="0" style="stop-color:#FFCB00"/>
							<stop  offset="1" style="stop-color:#F06A2B"/>
						</linearGradient>
						<polygon id="Rectangle_3_" class="st8" points="868.7,103.1 1024.2,103.1 868.6,166.5 						"/>
						<g class="st6">
							<path d="M885.8,121.5l4.1,1.3c-0.6,2.3-1.7,4-3.1,5.1c-1.5,1.1-3.3,1.7-5.5,1.7c-2.8,0-5-0.9-6.8-2.8
								c-1.8-1.9-2.7-4.5-2.7-7.7c0-3.5,0.9-6.1,2.7-8.1s4.1-2.9,7.1-2.9c2.5,0,4.6,0.8,6.2,2.3c0.9,0.9,1.7,2.2,2.1,3.8l-4.2,1
								c-0.2-1.1-0.8-1.9-1.5-2.6c-0.8-0.6-1.7-0.9-2.8-0.9c-1.5,0-2.8,0.6-3.8,1.7c-1,1.1-1.4,2.9-1.4,5.4c0,2.6,0.5,4.5,1.4,5.6
								s2.2,1.7,3.7,1.7c1.1,0,2.1-0.4,2.9-1.1C884.9,124.1,885.4,123,885.8,121.5z"/>
							<path d="M903.4,129.2v-2.3c-0.5,0.8-1.3,1.4-2.2,1.9c-0.9,0.5-1.8,0.7-2.8,0.7c-1,0-1.9-0.2-2.7-0.7s-1.4-1.1-1.7-1.9
								c-0.4-0.8-0.5-1.9-0.5-3.3v-9.5h4v6.9c0,2.1,0.1,3.4,0.2,3.9c0.1,0.5,0.4,0.9,0.8,1.1c0.4,0.3,0.9,0.4,1.5,0.4
								c0.7,0,1.3-0.2,1.8-0.6c0.5-0.4,0.9-0.8,1.1-1.4c0.2-0.6,0.3-1.9,0.3-4.1v-6.4h4v15.1H903.4z"/>
							<path d="M909.8,124.9l4-0.6c0.2,0.8,0.5,1.4,1,1.8c0.5,0.4,1.2,0.6,2.2,0.6c1,0,1.8-0.2,2.3-0.6c0.3-0.3,0.5-0.6,0.5-1.1
								c0-0.3-0.1-0.6-0.3-0.8c-0.2-0.2-0.6-0.4-1.3-0.5c-3.2-0.7-5.3-1.4-6.1-1.9c-1.2-0.8-1.8-1.9-1.8-3.4c0-1.3,0.5-2.4,1.5-3.3
								c1-0.9,2.6-1.3,4.8-1.3c2.1,0,3.6,0.3,4.6,1c1,0.7,1.7,1.7,2.1,3l-3.8,0.7c-0.2-0.6-0.5-1-0.9-1.3s-1.1-0.5-1.9-0.5
								c-1,0-1.8,0.1-2.3,0.4c-0.3,0.2-0.5,0.5-0.5,0.8c0,0.3,0.1,0.5,0.4,0.7c0.4,0.3,1.6,0.6,3.7,1.1s3.6,1.1,4.4,1.8
								c0.8,0.7,1.2,1.7,1.2,3c0,1.4-0.6,2.6-1.7,3.6c-1.2,1-2.9,1.5-5.1,1.5c-2.1,0-3.7-0.4-4.9-1.2
								C910.9,127.4,910.2,126.3,909.8,124.9z"/>
							<path d="M934.3,114.1v3.2h-2.7v6.1c0,1.2,0,1.9,0.1,2.1s0.2,0.4,0.4,0.5c0.2,0.1,0.4,0.2,0.7,0.2c0.4,0,0.9-0.1,1.6-0.4
								l0.3,3.1c-0.9,0.4-2,0.6-3.1,0.6c-0.7,0-1.4-0.1-1.9-0.4c-0.6-0.2-1-0.6-1.3-0.9c-0.3-0.4-0.5-0.9-0.6-1.6
								c-0.1-0.5-0.1-1.4-0.1-2.8v-6.6h-1.8v-3.2h1.8v-3l4-2.3v5.3H934.3z"/>
							<path d="M936.1,121.4c0-1.3,0.3-2.6,1-3.8s1.6-2.2,2.8-2.8c1.2-0.7,2.5-1,4-1c2.3,0,4.1,0.7,5.6,2.2c1.5,1.5,2.2,3.3,2.2,5.6
								c0,2.3-0.7,4.2-2.2,5.7c-1.5,1.5-3.3,2.2-5.6,2.2c-1.4,0-2.7-0.3-4-0.9s-2.2-1.5-2.9-2.7S936.1,123.1,936.1,121.4z
								 M940.2,121.6c0,1.5,0.4,2.6,1.1,3.4c0.7,0.8,1.6,1.2,2.6,1.2s1.9-0.4,2.6-1.2c0.7-0.8,1.1-1.9,1.1-3.5
								c0-1.5-0.4-2.6-1.1-3.4c-0.7-0.8-1.6-1.2-2.6-1.2s-1.9,0.4-2.6,1.2C940.5,119,940.2,120.1,940.2,121.6z"/>
							<path d="M954.5,114.1h3.7v2.1c1.3-1.6,2.9-2.4,4.7-2.4c1,0,1.8,0.2,2.5,0.6c0.7,0.4,1.3,1,1.7,1.8c0.7-0.8,1.4-1.4,2.1-1.8
								c0.8-0.4,1.6-0.6,2.5-0.6c1.1,0,2,0.2,2.8,0.7s1.3,1.1,1.7,2c0.3,0.6,0.4,1.7,0.4,3.1v9.6h-4v-8.6c0-1.5-0.1-2.5-0.4-2.9
								c-0.4-0.6-0.9-0.9-1.7-0.9c-0.6,0-1.1,0.2-1.6,0.5c-0.5,0.3-0.8,0.8-1.1,1.5c-0.2,0.7-0.3,1.7-0.3,3.1v7.2h-4v-8.3
								c0-1.5-0.1-2.4-0.2-2.8c-0.1-0.4-0.4-0.7-0.7-1s-0.7-0.3-1.2-0.3c-0.6,0-1.2,0.2-1.7,0.5c-0.5,0.3-0.8,0.8-1.1,1.4
								s-0.3,1.7-0.3,3.1v7.3h-4V114.1z"/>
							<path d="M989.3,124.4l4,0.7c-0.5,1.5-1.3,2.6-2.4,3.3c-1.1,0.8-2.5,1.1-4.1,1.1c-2.6,0-4.6-0.9-5.8-2.6
								c-1-1.4-1.5-3.1-1.5-5.2c0-2.5,0.7-4.5,2-5.9c1.3-1.4,3-2.1,5-2.1c2.2,0,4,0.7,5.3,2.2c1.3,1.5,1.9,3.7,1.9,6.8h-10
								c0,1.2,0.3,2.1,1,2.8c0.6,0.7,1.4,1,2.3,1c0.6,0,1.1-0.2,1.6-0.5S989.1,125.1,989.3,124.4z M989.6,120.3c0-1.2-0.3-2-0.9-2.6
								s-1.3-0.9-2.1-0.9c-0.9,0-1.6,0.3-2.2,1s-0.8,1.5-0.8,2.6H989.6z"/>
							<path d="M1000.6,129.2h-4v-15.1h3.7v2.1c0.6-1,1.2-1.7,1.7-2c0.5-0.3,1.1-0.5,1.7-0.5c0.9,0,1.8,0.3,2.6,0.8l-1.2,3.5
								c-0.7-0.4-1.3-0.7-1.9-0.7c-0.6,0-1,0.2-1.4,0.5c-0.4,0.3-0.7,0.9-0.9,1.7s-0.3,2.5-0.3,5V129.2z"/>
							<path d="M1006.7,124.9l4-0.6c0.2,0.8,0.5,1.4,1,1.8c0.5,0.4,1.2,0.6,2.2,0.6c1,0,1.8-0.2,2.3-0.6c0.3-0.3,0.5-0.6,0.5-1.1
								c0-0.3-0.1-0.6-0.3-0.8c-0.2-0.2-0.6-0.4-1.3-0.5c-3.2-0.7-5.3-1.4-6.1-1.9c-1.2-0.8-1.8-1.9-1.8-3.4c0-1.3,0.5-2.4,1.5-3.3
								s2.6-1.3,4.8-1.3c2.1,0,3.6,0.3,4.6,1c1,0.7,1.7,1.7,2.1,3l-3.8,0.7c-0.2-0.6-0.5-1-0.9-1.3s-1.1-0.5-1.9-0.5
								c-1,0-1.8,0.1-2.3,0.4c-0.3,0.2-0.5,0.5-0.5,0.8c0,0.3,0.1,0.5,0.4,0.7c0.4,0.3,1.6,0.6,3.7,1.1s3.6,1.1,4.4,1.8
								c0.8,0.7,1.2,1.7,1.2,3c0,1.4-0.6,2.6-1.7,3.6c-1.2,1-2.9,1.5-5.1,1.5c-2.1,0-3.7-0.4-4.9-1.2
								C1007.8,127.4,1007,126.3,1006.7,124.9z"/>
						</g>
						<g class="st6">
							<path d="M892.8,158.2v-20.6h4.2v17.1h10.4v3.5H892.8z"/>
							<path d="M909.5,150.5c0-1.3,0.3-2.6,1-3.8s1.6-2.2,2.8-2.8c1.2-0.7,2.5-1,4-1c2.3,0,4.1,0.7,5.6,2.2c1.5,1.5,2.2,3.3,2.2,5.6
								c0,2.3-0.7,4.2-2.2,5.7c-1.5,1.5-3.3,2.2-5.6,2.2c-1.4,0-2.7-0.3-4-0.9c-1.3-0.6-2.2-1.5-2.9-2.7S909.5,152.2,909.5,150.5z
								 M913.6,150.7c0,1.5,0.4,2.6,1.1,3.4c0.7,0.8,1.6,1.2,2.6,1.2c1,0,1.9-0.4,2.6-1.2c0.7-0.8,1.1-1.9,1.1-3.5
								c0-1.5-0.4-2.6-1.1-3.4c-0.7-0.8-1.6-1.2-2.6-1.2c-1,0-1.9,0.4-2.6,1.2C913.9,148,913.6,149.2,913.6,150.7z"/>
							<path d="M932.3,158.2l-6.1-15.1h4.2l2.8,7.7l0.8,2.6c0.2-0.7,0.4-1.1,0.4-1.3c0.1-0.4,0.3-0.9,0.4-1.3l2.9-7.7h4.1l-6,15.1
								H932.3z"/>
							<path d="M953,153.4l4,0.7c-0.5,1.5-1.3,2.6-2.4,3.3c-1.1,0.8-2.5,1.1-4.1,1.1c-2.6,0-4.6-0.9-5.8-2.6c-1-1.4-1.5-3.1-1.5-5.2
								c0-2.5,0.7-4.5,2-5.9c1.3-1.4,3-2.1,5-2.1c2.2,0,4,0.7,5.3,2.2c1.3,1.5,1.9,3.7,1.9,6.8h-10c0,1.2,0.3,2.1,1,2.8
								c0.6,0.7,1.4,1,2.3,1c0.6,0,1.1-0.2,1.6-0.5S952.8,154.2,953,153.4z M953.3,149.4c0-1.2-0.3-2-0.9-2.6s-1.3-0.9-2.1-0.9
								c-0.9,0-1.6,0.3-2.2,1s-0.8,1.5-0.8,2.6H953.3z"/>
							<path d="M968.5,137.4h4.2v11.3c0,1.8,0.1,2.9,0.2,3.5c0.2,0.9,0.6,1.5,1.3,2c0.7,0.5,1.6,0.8,2.8,0.8c1.2,0,2.1-0.2,2.7-0.7
								c0.6-0.5,1-1.1,1.1-1.8c0.1-0.7,0.2-1.9,0.2-3.5v-11.5h4.2v10.9c0,2.5-0.1,4.3-0.3,5.3c-0.2,1-0.6,1.9-1.3,2.6
								s-1.4,1.3-2.4,1.7s-2.4,0.6-4,0.6c-2,0-3.5-0.2-4.5-0.7c-1-0.5-1.8-1.1-2.4-1.8c-0.6-0.7-1-1.5-1.2-2.3
								c-0.3-1.2-0.4-3-0.4-5.3V137.4z"/>
							<path d="M988.1,153.9l4-0.6c0.2,0.8,0.5,1.4,1,1.8c0.5,0.4,1.2,0.6,2.2,0.6c1,0,1.8-0.2,2.3-0.6c0.3-0.3,0.5-0.6,0.5-1.1
								c0-0.3-0.1-0.6-0.3-0.8c-0.2-0.2-0.6-0.4-1.3-0.5c-3.2-0.7-5.3-1.4-6.1-1.9c-1.2-0.8-1.8-1.9-1.8-3.4c0-1.3,0.5-2.4,1.5-3.3
								s2.6-1.3,4.8-1.3c2.1,0,3.6,0.3,4.6,1c1,0.7,1.7,1.7,2.1,3l-3.8,0.7c-0.2-0.6-0.5-1-0.9-1.3s-1.1-0.5-1.9-0.5
								c-1,0-1.8,0.1-2.3,0.4c-0.3,0.2-0.5,0.5-0.5,0.8c0,0.3,0.1,0.5,0.4,0.7c0.4,0.3,1.6,0.6,3.7,1.1s3.6,1.1,4.4,1.8
								c0.8,0.7,1.2,1.7,1.2,3c0,1.4-0.6,2.6-1.7,3.6c-1.2,1-2.9,1.5-5.1,1.5c-2.1,0-3.7-0.4-4.9-1.2
								C989.3,156.5,988.5,155.3,988.1,153.9z"/>
						</g>
					</g>
				</g>
			</g>
		</g>
		<g id="SourceForge-Logo-White-vector" transform="translate(23.000000, 47.000000)">
			<path id="Fill-953" class="st9" d="M860.6,33.2c-0.1,0.1-0.1,0.2-0.3,0.2c-0.1,0-0.2-0.1-0.3-0.2c-0.1-0.1-0.3-0.3-0.6-0.4
				c-0.3-0.2-0.5-0.3-0.9-0.4c-0.4-0.1-0.8-0.2-1.3-0.2s-1,0.1-1.4,0.2c-0.4,0.1-0.7,0.4-1,0.6c-0.3,0.3-0.5,0.6-0.6,0.9
				S854,34.6,854,35c0,0.5,0.1,0.9,0.3,1.3c0.2,0.3,0.5,0.6,0.8,0.8s0.7,0.4,1.2,0.6c0.4,0.2,0.9,0.3,1.3,0.5
				c0.4,0.1,0.9,0.3,1.3,0.5c0.4,0.2,0.8,0.4,1.2,0.7s0.6,0.6,0.8,1s0.3,0.9,0.3,1.5s-0.1,1.2-0.3,1.8s-0.5,1.1-0.9,1.5
				s-0.9,0.7-1.5,1c-0.6,0.2-1.2,0.3-2,0.3c-0.9,0-1.8-0.2-2.5-0.5s-1.3-0.8-1.8-1.5l0.3-0.5c0.1-0.1,0.2-0.1,0.3-0.1s0.1,0,0.2,0.1
				c0.1,0.1,0.2,0.2,0.3,0.3s0.3,0.3,0.5,0.4c0.2,0.1,0.4,0.3,0.7,0.4c0.3,0.1,0.5,0.2,0.9,0.3c0.3,0.1,0.7,0.1,1.1,0.1
				c0.6,0,1.1-0.1,1.5-0.3s0.8-0.4,1.1-0.7s0.6-0.7,0.7-1.1c0.2-0.4,0.3-0.9,0.3-1.4s-0.1-1-0.3-1.3c-0.2-0.4-0.5-0.6-0.8-0.9
				c-0.3-0.2-0.7-0.4-1.2-0.6s-0.9-0.3-1.3-0.5c-0.4-0.1-0.9-0.3-1.3-0.5c-0.4-0.2-0.8-0.4-1.2-0.7c-0.3-0.3-0.6-0.6-0.8-1.1
				c-0.2-0.4-0.3-1-0.3-1.6c0-0.5,0.1-1,0.3-1.5s0.5-0.9,0.8-1.3c0.4-0.3,0.8-0.6,1.3-0.9c0.5-0.2,1.1-0.3,1.8-0.3
				c0.8,0,1.4,0.1,2,0.4s1.1,0.6,1.7,1.1L860.6,33.2z"/>
			<path id="Fill-955" class="st9" d="M876.4,38.9c0-1-0.1-2-0.4-2.8c-0.3-0.8-0.7-1.5-1.2-2.1s-1.1-1-1.9-1.3
				c-0.7-0.3-1.5-0.5-2.4-0.5s-1.7,0.1-2.4,0.5c-0.7,0.3-1.4,0.8-1.9,1.3c-0.5,0.6-0.9,1.3-1.2,2.1s-0.4,1.8-0.4,2.8s0.1,2,0.4,2.8
				c0.3,0.8,0.7,1.5,1.2,2.1s1.1,1,1.9,1.3c0.7,0.3,1.5,0.5,2.4,0.5s1.7-0.1,2.4-0.5c0.7-0.3,1.4-0.8,1.9-1.3
				c0.5-0.6,0.9-1.3,1.2-2.1C876.2,40.9,876.4,39.9,876.4,38.9 M877.3,38.9c0,1.2-0.2,2.2-0.5,3.2s-0.8,1.8-1.4,2.4
				c-0.6,0.7-1.3,1.2-2.2,1.6c-0.8,0.4-1.8,0.5-2.8,0.5s-1.9-0.2-2.8-0.5c-0.8-0.4-1.5-0.9-2.2-1.6c-0.6-0.7-1.1-1.5-1.4-2.4
				c-0.3-1-0.5-2-0.5-3.2s0.2-2.2,0.5-3.2s0.8-1.8,1.4-2.4c0.6-0.7,1.3-1.2,2.2-1.6c0.8-0.4,1.8-0.5,2.8-0.5s2,0.2,2.8,0.5
				c0.8,0.4,1.5,0.9,2.2,1.6c0.6,0.7,1.1,1.5,1.4,2.4C877.1,36.7,877.3,37.7,877.3,38.9"/>
			<path id="Fill-957" class="st9" d="M885,45.6c0.7,0,1.3-0.1,1.8-0.4c0.5-0.3,1-0.6,1.4-1.1c0.4-0.4,0.6-1,0.8-1.6s0.3-1.3,0.3-2
				v-9.4h1v9.4c0,0.9-0.1,1.6-0.4,2.3c-0.2,0.7-0.6,1.4-1.1,1.9s-1,1-1.7,1.3c-0.6,0.3-1.4,0.5-2.2,0.5s-1.6-0.1-2.2-0.5
				c-0.6-0.3-1.2-0.7-1.7-1.3c-0.5-0.5-0.8-1.2-1.1-1.9c-0.2-0.7-0.4-1.5-0.4-2.3v-9.4h1v9.4c0,0.7,0.1,1.4,0.3,2s0.5,1.1,0.8,1.6
				c0.4,0.4,0.8,0.8,1.4,1.1C883.7,45.5,884.4,45.6,885,45.6"/>
			<path id="Fill-959" class="st9" d="M896.5,38.8h0.3h0.7c0.8,0,1.5-0.1,2.1-0.2c0.6-0.2,1.1-0.4,1.5-0.7s0.7-0.7,1-1.1
				c0.2-0.4,0.3-0.9,0.3-1.5c0-1.1-0.4-1.9-1.2-2.4s-2-0.8-3.5-0.8h-3.1v6.7v0.8v7h-1.2V31.2h4.4c2,0,3.5,0.4,4.4,1
				c1,0.7,1.5,1.7,1.5,3c0,0.6-0.1,1.1-0.3,1.6s-0.6,0.9-1,1.3c-0.4,0.4-0.9,0.7-1.5,0.9s-1.3,0.4-2,0.5c0.2,0.1,0.4,0.3,0.5,0.4
				l5.9,6.7h-1.1c-0.1,0-0.2,0-0.3-0.1c-0.1,0-0.2-0.1-0.3-0.2l-5.5-6.2c-0.1-0.1-0.3-0.3-0.4-0.3c-0.2-0.1-1.1-0.1-1.5-0.1
				C896.1,38.9,896.2,38.8,896.5,38.8"/>
			<path id="Fill-961" class="st9" d="M915.3,43.9c0.1,0,0.1,0,0.2,0.1l0.4,0.5c-0.3,0.3-0.6,0.6-1,0.9c-0.4,0.3-0.7,0.5-1.2,0.7
				c-0.4,0.2-0.9,0.3-1.4,0.4c-0.5,0.1-1.1,0.1-1.6,0.1c-1,0-1.9-0.2-2.7-0.6c-0.8-0.4-1.5-0.9-2.1-1.6c-0.6-0.7-1.1-1.5-1.4-2.4
				c-0.3-1-0.5-2-0.5-3.2c0-1.1,0.2-2.2,0.5-3.1c0.3-1,0.8-1.7,1.4-2.4c0.6-0.7,1.4-1.2,2.2-1.6c0.9-0.4,1.8-0.6,2.8-0.6
				c0.5,0,1,0,1.4,0.1s0.8,0.2,1.2,0.3s0.7,0.3,1,0.6c0.3,0.2,0.7,0.5,1,0.8l-0.3,0.5c-0.1,0.1-0.1,0.1-0.3,0.1
				c-0.1,0-0.1,0-0.2-0.1c-0.1-0.1-0.2-0.2-0.4-0.3c-0.1-0.1-0.3-0.2-0.5-0.3s-0.4-0.3-0.7-0.3c-0.3-0.1-0.6-0.2-1-0.3
				s-0.8-0.1-1.3-0.1c-0.9,0-1.7,0.1-2.4,0.5c-0.7,0.3-1.4,0.8-1.9,1.4c-0.5,0.6-0.9,1.3-1.2,2.1s-0.4,1.8-0.4,2.8
				c0,1.1,0.1,2,0.4,2.8c0.3,0.8,0.7,1.5,1.2,2.1s1.1,1,1.8,1.3s1.5,0.5,2.3,0.5c0.5,0,1,0,1.4-0.1s0.8-0.2,1.1-0.3s0.7-0.3,0.9-0.5
				c0.3-0.2,0.6-0.4,0.9-0.7l0.1-0.1C915.2,43.9,915.2,43.9,915.3,43.9"/>
			<polygon id="Fill-963" class="st9" points="927.7,31.2 927.7,32.1 919.4,32.1 919.4,38.3 926.3,38.3 926.3,39.2 919.4,39.2 
				919.4,45.7 927.7,45.7 927.7,46.6 918.2,46.6 918.2,31.2 			"/>
			<polygon id="Fill-965" class="st9" points="940.7,31.2 940.7,33.5 933.2,33.5 933.2,38 939.6,38 939.6,40.3 933.2,40.3 
				933.2,46.6 930.1,46.6 930.1,31.2 			"/>
			<path id="Fill-966" class="st9" d="M953.9,38.9c0-0.8-0.1-1.6-0.3-2.2c-0.2-0.7-0.5-1.2-0.9-1.7s-0.9-0.8-1.5-1
				c-0.6-0.3-1.3-0.4-2-0.4s-1.4,0.1-2,0.4c-0.6,0.3-1.1,0.6-1.5,1c-0.4,0.5-0.7,1-1,1.7c-0.2,0.6-0.3,1.4-0.3,2.2s0.1,1.6,0.3,2.2
				c0.2,0.6,0.5,1.2,1,1.7c0.4,0.5,0.9,0.8,1.5,1.1s1.3,0.4,2,0.4s1.4-0.1,2-0.4c0.6-0.3,1.1-0.6,1.5-1.1s0.7-1,0.9-1.7
				C953.8,40.4,953.9,39.7,953.9,38.9 M956.8,38.9c0,1.1-0.2,2.1-0.5,3.1c-0.4,0.9-0.9,1.8-1.6,2.4c-0.7,0.7-1.5,1.2-2.4,1.6
				c-0.9,0.4-2,0.6-3.2,0.6c-1.1,0-2.2-0.2-3.2-0.6c-0.9-0.4-1.7-0.9-2.4-1.6c-0.7-0.7-1.2-1.5-1.6-2.4c-0.4-0.9-0.5-2-0.5-3.1
				s0.2-2.1,0.5-3.1c0.4-0.9,0.9-1.8,1.6-2.4c0.7-0.7,1.5-1.2,2.4-1.6s2-0.6,3.2-0.6c1.1,0,2.2,0.2,3.2,0.6c0.9,0.4,1.7,0.9,2.4,1.6
				s1.2,1.5,1.6,2.4C956.6,36.7,956.8,37.8,956.8,38.9"/>
			<path id="Fill-967" class="st9" d="M961.5,38.5h0.6c0.5,0,0.9-0.1,1.3-0.2c0.4-0.1,0.6-0.3,0.9-0.6c0.2-0.2,0.4-0.5,0.5-0.8
				s0.2-0.7,0.2-1.1c0-0.8-0.2-1.4-0.7-1.8c-0.5-0.4-1.2-0.6-2.1-0.6h-1.7v5.1v2.1v6h-2.6V31.2h4.2c0.9,0,1.7,0.1,2.4,0.3
				c0.7,0.2,1.2,0.5,1.6,0.9c0.4,0.4,0.7,0.9,0.9,1.4s0.3,1.1,0.3,1.8c0,0.5-0.1,1-0.2,1.5c-0.1,0.5-0.3,0.9-0.6,1.2
				c-0.3,0.4-0.6,0.7-1,1s-0.8,0.5-1.3,0.7c0.3,0.2,0.6,0.5,0.8,0.9l3.4,5.7h-2.3c-0.2,0-0.4-0.1-0.6-0.1c-0.2-0.1-0.3-0.2-0.4-0.4
				l-2.9-4.9c-0.1-0.1-0.2-0.4-0.4-0.4h-0.9v-1.9C961.2,38.5,961.5,38.5,961.5,38.5"/>
			<path id="Fill-968" class="st9" d="M977.2,44.4c0.6,0,1.2-0.1,1.7-0.2c0.5-0.1,0.9-0.3,1.4-0.5v-3.4h-1.9c-0.2,0-0.3-0.1-0.4-0.1
				c-0.1-0.1-0.2-0.2-0.2-0.4v-1.6h5.1V45c-0.4,0.3-0.8,0.5-1.2,0.7s-0.9,0.4-1.4,0.5s-1,0.2-1.5,0.3c-0.6,0.1-1.1,0.1-1.8,0.1
				c-1.1,0-2.1-0.2-3.1-0.6c-1-0.4-1.8-0.9-2.4-1.6c-0.7-0.7-1.2-1.5-1.6-2.4c-0.4-0.9-0.6-2-0.6-3.1s0.2-2.2,0.6-3.1
				c0.4-0.9,0.9-1.8,1.6-2.4c0.7-0.7,1.5-1.2,2.5-1.6s2.1-0.6,3.3-0.6s2.3,0.2,3.2,0.5c0.9,0.4,1.7,0.9,2.3,1.4l-0.8,1.3
				c-0.2,0.3-0.4,0.4-0.6,0.4c-0.2,0-0.3-0.1-0.5-0.2c-0.2-0.1-0.5-0.3-0.7-0.4c-0.2-0.1-0.5-0.3-0.8-0.3c-0.3-0.1-0.6-0.2-1-0.2
				c-0.3-0.1-0.8-0.1-1.2-0.1c-0.8,0-1.5,0.1-2.1,0.4c-0.6,0.3-1.1,0.6-1.6,1.1c-0.4,0.5-0.8,1-1,1.7s-0.4,1.4-0.4,2.2
				c0,0.9,0.1,1.6,0.4,2.3c0.3,0.7,0.6,1.3,1,1.7c0.4,0.5,1,0.8,1.6,1.1C975.7,44.3,976.5,44.4,977.2,44.4"/>
			<path id="Fill-969" class="st9" d="M993,40.4h-5.1v3.9h7.5v2.3h-10.7V31.2h10.7v2.3h-7.5v4.7h5.9v1.7
				C993.7,39.9,993.7,40.4,993,40.4"/>
		</g>
		<g id="SF-logo-vector" transform="translate(115.000000, 212.000000)">
			<path id="Rectangle_4_" class="st10" d="M829-36h4c0.2,0,0.4,0.2,0.4,0.4v0.1c0,0.1-0.1,0.3-0.2,0.4l-12.6,13.8
				c-0.2,0.2-0.2,0.6,0,0.8l10,10.9c0.2,0.2,0.2,0.6,0,0.8l-1.8,2c-0.2,0.2-0.6,0.3-0.8,0l0,0l-12.5-13.7c-0.2-0.2-0.2-0.6,0-0.8
				l13.2-14.5C828.6-35.9,828.8-36,829-36z"/>
			<path id="Rectangle_5_" class="st10" d="M834.7-4h-4c-0.2,0-0.4-0.2-0.4-0.4v-0.1c0-0.1,0.1-0.3,0.2-0.4l12.6-13.8
				c0.2-0.2,0.2-0.6,0-0.8l-9.9-10.9c-0.2-0.2-0.2-0.6,0-0.8l1.8-2c0.2-0.2,0.6-0.3,0.8,0l0,0l12.5,13.7c0.2,0.2,0.2,0.6,0,0.8
				L835.2-4.2C835-4.1,834.9-4,834.7-4z"/>
			<path id="Oval" class="st10" d="M832.3-13.5c2.7,0,4.8-3,4.6-6.2c-0.1-1.4-1-4-1.3-3.5c-0.1,0.2,0.2,2,0.1,3.1
				c-0.2,1.8-0.9,2.9-1.2,2.2c-0.4-0.6-0.2-1.9-0.3-3.2c-0.1-1.4-0.3-2.9-0.6-3.7c-0.1-0.4-1.4-3.7-2.2-4c-0.1,0-0.1,0-0.1,0
				s-0.1,0-0.2,0.1c-0.2,0.2,0.1,1.3-0.7,2.7c-0.5,0.9-1.6,2.1-2.1,3.2c-0.7,1.6-0.8,3.1-0.8,3.9C827.6-15.5,829.6-13.5,832.3-13.5z
				"/>
		</g>
	</g>
</g>
<g id="Layer_3">
	<g id="leader-winter-2021-white_1_">
		<g id="White-leader-badge-3_1_">
			<g id="White-leader-badge-2_2_">
				<g id="White-leader-badge_2_">
					<g id="Group-6_2_">
						<g id="Group-5_2_">
							<g id="shield_2_">
								
									<linearGradient id="Fill-161_3_" gradientUnits="userSpaceOnUse" x1="2.3067" y1="-275.7392" x2="3.5" y2="-274.9383" gradientTransform="matrix(286 0 0 302.6096 -285 83579.375)">
									<stop  offset="0" style="stop-color:#C2C2BD"/>
									<stop  offset="1" style="stop-color:#F06A2A"/>
								</linearGradient>
								<path id="Fill-161_2_" class="st11" d="M264.2,175.5V63.9c0-0.6,0.4-1.1,1-1.2l83.6-12.4c0.1,0,0.2,0,0.3,0l83.6,12.4
									c0.6,0.1,1,0.6,1,1.2v111.6c0,0.4-0.2,0.8-0.6,1l-83.6,53c-0.4,0.2-0.9,0.2-1.3,0l-83.6-53
									C264.5,176.3,264.2,175.9,264.2,175.5z"/>
								<path id="Fill-162_2_" class="st1" d="M430.6,67.1c-0.1-0.4-0.4-1.1-0.7-1.4l-79.7-12c-0.1,0-0.2,0-1.1,0c-1,0-1.1,0-1.1,0
									l-79.9,12c-0.3,0.3-0.6,1-0.7,1.4v106.1c0.1,0.4,0.4,1.1,0.7,1.4l81,52l80.9-52c0.3-0.2,0.6-1,0.7-1.4L430.6,67.1z"/>
								
									<linearGradient id="Fill-163_6_" gradientUnits="userSpaceOnUse" x1="2.2916" y1="-275.7263" x2="2.1674" y2="-275.8209" gradientTransform="matrix(261.9238 0 0 279.8408 -249.0124 77281.3906)">
									<stop  offset="0" style="stop-color:#FFFFFF"/>
									<stop  offset="1" style="stop-color:#E7E7E7"/>
								</linearGradient>
								<polygon id="Fill-163_5_" class="st12" points="271.3,68.6 271.3,171.6 349,223.1 426.6,171.6 426.6,68.6 349,57.2 								
									"/>
								
									<linearGradient id="Fill-163_7_" gradientUnits="userSpaceOnUse" x1="3.256" y1="-275.7764" x2="3.3952" y2="-275.3571" gradientTransform="matrix(131.4054 0 0 279.8408 -118.8108 77281.3906)">
									<stop  offset="0" style="stop-color:#FFFFFF"/>
									<stop  offset="1" style="stop-color:#F3F3F3"/>
								</linearGradient>
								<polygon id="Fill-163_4_" class="st13" points="271.1,171.6 349,223.1 349,57.2 271.3,68.6 								"/>
							</g>
							<g class="st6">
								<path d="M289.6,107.3H303v4.6h-19.3V82h6V107.3z"/>
								<path d="M315.8,112.4c-3.2,0-5.8-1-7.7-3.1s-2.9-4.7-2.9-7.8v-0.8c0-3.3,0.9-6,2.7-8.2s4.3-3.2,7.3-3.2c3,0,5.3,0.9,7,2.7
									c1.7,1.8,2.5,4.3,2.5,7.3v3.3h-13.3l0,0.1c0.1,1.5,0.6,2.7,1.5,3.6c0.9,0.9,2.1,1.4,3.5,1.4c1.3,0,2.4-0.1,3.3-0.4
									c0.9-0.3,1.8-0.7,2.9-1.3l1.6,3.7c-0.9,0.7-2.1,1.4-3.6,1.8C319.2,112.1,317.6,112.4,315.8,112.4z M315.2,93.9
									c-1.1,0-2,0.4-2.6,1.3c-0.6,0.9-1,2-1.2,3.4l0.1,0.1h7.4v-0.5c0-1.3-0.3-2.3-0.9-3.1C317.3,94.3,316.4,93.9,315.2,93.9z"/>
								<path d="M341.3,112c-0.2-0.5-0.4-1-0.6-1.6c-0.2-0.6-0.3-1.1-0.3-1.7c-0.6,1.1-1.4,2-2.4,2.7c-1,0.7-2.2,1.1-3.6,1.1
									c-2.3,0-4.1-0.6-5.4-1.8c-1.3-1.2-1.9-2.8-1.9-4.9c0-2.2,0.8-3.9,2.5-5.1s4.1-1.8,7.3-1.8h3.4v-1.8c0-1.1-0.3-1.9-0.8-2.5
									c-0.6-0.6-1.4-0.9-2.5-0.9c-1,0-1.7,0.2-2.3,0.7s-0.8,1.1-0.8,2l-5.8,0l0-0.1c-0.1-1.9,0.7-3.5,2.4-4.9s4-2,6.8-2
									c2.7,0,4.8,0.7,6.5,2s2.5,3.3,2.5,5.8v9.2c0,1,0.1,2,0.2,2.9s0.4,1.8,0.8,2.7H341.3z M335.8,107.9c1.1,0,2-0.3,2.8-0.8
									s1.4-1.1,1.7-1.8v-3.1h-3.4c-1.3,0-2.2,0.3-2.9,1c-0.7,0.6-1,1.4-1,2.3c0,0.7,0.2,1.3,0.7,1.8S334.9,107.9,335.8,107.9z"/>
								<path d="M349.9,101c0-3.5,0.8-6.3,2.3-8.5s3.6-3.2,6.4-3.2c1.1,0,2.1,0.2,3,0.7c0.9,0.5,1.7,1.2,2.3,2.1V79.9h6V112h-5.2
									l-0.5-2.7c-0.7,1-1.5,1.8-2.5,2.3c-1,0.5-2,0.8-3.3,0.8c-2.7,0-4.8-1-6.4-3s-2.3-4.6-2.3-7.9V101z M355.9,101.5
									c0,2,0.3,3.5,1,4.6c0.7,1.1,1.7,1.7,3.2,1.7c0.9,0,1.6-0.2,2.3-0.5s1.2-0.9,1.6-1.5v-9.5c-0.4-0.7-0.9-1.3-1.6-1.6
									c-0.6-0.4-1.4-0.6-2.2-0.6c-1.5,0-2.5,0.7-3.2,2c-0.7,1.3-1,3-1,5.1V101.5z"/>
								<path d="M384.4,112.4c-3.2,0-5.8-1-7.7-3.1s-2.9-4.7-2.9-7.8v-0.8c0-3.3,0.9-6,2.7-8.2s4.3-3.2,7.3-3.2c3,0,5.3,0.9,7,2.7
									c1.7,1.8,2.5,4.3,2.5,7.3v3.3h-13.3l0,0.1c0.1,1.5,0.6,2.7,1.5,3.6c0.9,0.9,2.1,1.4,3.5,1.4c1.3,0,2.4-0.1,3.3-0.4
									c0.9-0.3,1.8-0.7,2.9-1.3l1.6,3.7c-0.9,0.7-2.1,1.4-3.6,1.8C387.8,112.1,386.2,112.4,384.4,112.4z M383.9,93.9
									c-1.1,0-2,0.4-2.6,1.3c-0.6,0.9-1,2-1.2,3.4l0.1,0.1h7.4v-0.5c0-1.3-0.3-2.3-0.9-3.1C386,94.3,385.1,93.9,383.9,93.9z"/>
								<path d="M408.6,94.9l-2.2-0.1c-0.9,0-1.6,0.2-2.2,0.6c-0.6,0.4-1,0.9-1.3,1.6v15h-6V89.7h5.6l0.3,3.3c0.5-1.2,1.2-2.1,2-2.7
									c0.8-0.7,1.8-1,2.9-1c0.3,0,0.6,0,0.8,0.1c0.3,0,0.5,0.1,0.8,0.2L408.6,94.9z"/>
							</g>
						</g>
						<polygon id="Fill-18-Copy-4_8_" class="st14" points="416.4,125.1 418.2,128.9 422.2,129.5 419.3,132.4 420,136.6 
							416.4,134.6 412.9,136.6 413.6,132.4 410.7,129.5 414.7,128.9 						"/>
						<polygon id="Fill-18-Copy-4_5_" class="st14" points="281.2,125.1 283,128.9 287,129.5 284.1,132.4 284.8,136.6 281.2,134.6 
							277.7,136.6 278.4,132.4 275.5,129.5 279.5,128.9 						"/>
						<g id="Sash-and-text_5_" transform="translate(17.391892, 164.044586)">
							
								<linearGradient id="Rectangle_20_" gradientUnits="userSpaceOnUse" x1="-31.5917" y1="-272.6844" x2="-32.3072" y2="-272.6167" gradientTransform="matrix(251.2162 0 0 61.758 8488.0332 16836.8535)">
								<stop  offset="0" style="stop-color:#FFCB00"/>
								<stop  offset="1" style="stop-color:#F06A2B"/>
							</linearGradient>
							<polygon id="Rectangle_19_" class="st15" points="257.2,-16.5 406.1,-16.5 406.1,5.7 382.8,20.1 280.4,20.1 257.2,5.7 
															"/>
						</g>
						<g id="Sash-and-text_4_" transform="translate(17.391892, 164.044586)">
						</g>
						
							<linearGradient id="Rectangle_21_" gradientUnits="userSpaceOnUse" x1="1.5351" y1="-272.638" x2="2.3163" y2="-272.5985" gradientTransform="matrix(251.2162 0 0 61.758 -232.8243 17000.8965)">
							<stop  offset="0" style="stop-color:#FFCB00"/>
							<stop  offset="1" style="stop-color:#F06A2B"/>
						</linearGradient>
						<polygon id="Rectangle_18_" class="st16" points="274.6,147.6 423.5,147.6 297.8,184.2 274.6,169.8 						"/>
					</g>
					<g class="st6">
						<path class="st17" d="M313.3,174.8l-5.9-22.1h3l3.4,14.5c0.4,1.5,0.7,3,0.9,4.5c0.6-2.4,0.9-3.7,1-4.1l4.2-14.9h3.5l3.2,11.2
							c0.8,2.8,1.4,5.4,1.7,7.8c0.3-1.4,0.6-3,1.1-4.8l3.5-14.2h2.9l-6.1,22.1H327l-4.7-16.8c-0.4-1.4-0.6-2.3-0.7-2.6
							c-0.2,1-0.4,1.9-0.6,2.6l-4.7,16.8H313.3z"/>
						<path class="st17" d="M338.2,155.9v-3.1h2.7v3.1H338.2z M338.2,174.8v-16h2.7v16H338.2z"/>
						<path class="st17" d="M345.1,174.8v-16h2.4v2.3c1.2-1.8,2.9-2.6,5.1-2.6c1,0,1.8,0.2,2.7,0.5c0.8,0.3,1.4,0.8,1.8,1.4
							c0.4,0.6,0.7,1.2,0.8,2c0.1,0.5,0.2,1.4,0.2,2.6v9.8h-2.7v-9.7c0-1.1-0.1-1.9-0.3-2.5c-0.2-0.5-0.6-1-1.1-1.3
							c-0.5-0.3-1.2-0.5-1.9-0.5c-1.2,0-2.2,0.4-3,1.1s-1.3,2.1-1.3,4.2v8.7H345.1z"/>
						<path class="st17" d="M368.1,172.4l0.4,2.4c-0.8,0.2-1.4,0.2-2,0.2c-1,0-1.7-0.2-2.3-0.5c-0.5-0.3-0.9-0.7-1.1-1.2
							s-0.3-1.6-0.3-3.2v-9.2h-2v-2.1h2v-4l2.7-1.6v5.6h2.7v2.1h-2.7v9.3c0,0.8,0,1.3,0.1,1.5c0.1,0.2,0.3,0.4,0.5,0.5
							c0.2,0.1,0.5,0.2,0.9,0.2C367.3,172.5,367.7,172.5,368.1,172.4z"/>
						<path class="st17" d="M381.7,169.7l2.8,0.3c-0.4,1.6-1.3,2.9-2.5,3.8s-2.7,1.4-4.6,1.4c-2.3,0-4.2-0.7-5.6-2.2
							s-2.1-3.5-2.1-6.1c0-2.7,0.7-4.8,2.1-6.3c1.4-1.5,3.2-2.2,5.4-2.2c2.1,0,3.9,0.7,5.2,2.2s2,3.5,2,6.1c0,0.2,0,0.4,0,0.7h-11.9
							c0.1,1.8,0.6,3.1,1.5,4c0.9,0.9,2,1.4,3.3,1.4c1,0,1.8-0.3,2.5-0.8C380.8,171.6,381.3,170.8,381.7,169.7z M372.8,165.3h8.9
							c-0.1-1.3-0.5-2.4-1-3c-0.9-1-2-1.6-3.4-1.6c-1.2,0-2.3,0.4-3.1,1.2C373.4,162.8,372.9,163.9,372.8,165.3z"/>
						<path class="st17" d="M387.9,174.8v-16h2.4v2.4c0.6-1.1,1.2-1.9,1.7-2.2c0.5-0.4,1.1-0.5,1.7-0.5c0.9,0,1.8,0.3,2.8,0.9
							l-0.9,2.5c-0.7-0.4-1.3-0.6-2-0.6c-0.6,0-1.1,0.2-1.6,0.5s-0.8,0.9-1,1.5c-0.3,1-0.5,2-0.5,3.2v8.4H387.9z"/>
					</g>
					<g class="st6">
						<path d="M339.5,201.1v2.2h-8.3c0.1-0.8,0.4-1.6,0.8-2.4c0.4-0.7,1.3-1.7,2.7-3c1.1-1,1.7-1.7,2-2c0.3-0.5,0.5-1,0.5-1.4
							c0-0.5-0.1-0.9-0.4-1.2c-0.3-0.3-0.7-0.4-1.2-0.4c-0.5,0-0.9,0.1-1.2,0.4c-0.3,0.3-0.5,0.8-0.5,1.5l-2.4-0.2
							c0.1-1.3,0.6-2.2,1.3-2.8s1.7-0.8,2.8-0.8c1.2,0,2.2,0.3,2.9,1c0.7,0.7,1,1.5,1,2.4c0,0.6-0.1,1.1-0.3,1.6s-0.5,1-0.9,1.6
							c-0.3,0.4-0.8,0.9-1.5,1.6c-0.7,0.7-1.2,1.1-1.4,1.4c-0.2,0.2-0.4,0.4-0.5,0.7H339.5z"/>
						<path d="M345,190.9c1.2,0,2.1,0.4,2.8,1.3c0.8,1,1.2,2.7,1.2,5c0,2.3-0.4,4-1.2,5c-0.7,0.8-1.6,1.3-2.8,1.3
							c-1.2,0-2.2-0.5-2.9-1.4s-1.1-2.6-1.1-4.9c0-2.3,0.4-4,1.2-5C342.9,191.3,343.9,190.9,345,190.9z M345,192.9
							c-0.3,0-0.5,0.1-0.8,0.3c-0.2,0.2-0.4,0.5-0.5,1c-0.2,0.6-0.2,1.6-0.2,3.1s0.1,2.4,0.2,3s0.3,0.9,0.5,1.1
							c0.2,0.2,0.5,0.3,0.8,0.3c0.3,0,0.5-0.1,0.8-0.3c0.2-0.2,0.4-0.5,0.5-1c0.2-0.6,0.2-1.6,0.2-3.1s-0.1-2.4-0.2-3
							c-0.1-0.5-0.3-0.9-0.6-1.1C345.6,193,345.3,192.9,345,192.9z"/>
						<path d="M358.6,201.1v2.2h-8.3c0.1-0.8,0.4-1.6,0.8-2.4c0.4-0.7,1.3-1.7,2.7-3c1.1-1,1.7-1.7,2-2c0.3-0.5,0.5-1,0.5-1.4
							c0-0.5-0.1-0.9-0.4-1.2c-0.3-0.3-0.7-0.4-1.2-0.4c-0.5,0-0.9,0.1-1.2,0.4c-0.3,0.3-0.5,0.8-0.5,1.5l-2.4-0.2
							c0.1-1.3,0.6-2.2,1.3-2.8s1.7-0.8,2.8-0.8c1.2,0,2.2,0.3,2.9,1c0.7,0.7,1,1.5,1,2.4c0,0.6-0.1,1.1-0.3,1.6s-0.5,1-0.9,1.6
							c-0.3,0.4-0.8,0.9-1.5,1.6c-0.7,0.7-1.2,1.1-1.4,1.4c-0.2,0.2-0.4,0.4-0.5,0.7H358.6z"/>
						<path d="M360.2,200.1l2.4-0.2c0.1,0.5,0.3,1,0.6,1.3s0.7,0.5,1.1,0.5c0.5,0,0.9-0.2,1.3-0.6c0.3-0.4,0.5-1,0.5-1.8
							c0-0.8-0.2-1.3-0.5-1.7c-0.3-0.4-0.8-0.6-1.3-0.6c-0.7,0-1.3,0.3-1.8,0.9l-1.9-0.3l1.2-6.4h6.2v2.2h-4.4l-0.4,2.1
							c0.5-0.3,1.1-0.4,1.6-0.4c1,0,1.9,0.4,2.7,1.1c0.7,0.8,1.1,1.7,1.1,3c0,1-0.3,1.9-0.9,2.7c-0.8,1.1-1.9,1.6-3.3,1.6
							c-1.1,0-2.1-0.3-2.8-0.9C360.8,202,360.4,201.1,360.2,200.1z"/>
					</g>
				</g>
			</g>
			<g id="SourceForge-Logo-White-vector_3_" transform="translate(45.675676, 126.000000)">
				<path id="Fill-953_3_" class="st9" d="M252.8,0.6c-0.1,0.1-0.1,0.1-0.2,0.1c-0.1,0-0.2,0-0.3-0.2c-0.1-0.1-0.3-0.2-0.5-0.4
					c-0.2-0.1-0.5-0.3-0.8-0.4s-0.7-0.2-1.2-0.2s-0.8,0.1-1.2,0.2c-0.3,0.1-0.6,0.3-0.9,0.5c-0.2,0.2-0.4,0.5-0.5,0.8
					S247,1.6,247,1.9c0,0.4,0.1,0.8,0.3,1c0.2,0.3,0.4,0.5,0.7,0.7s0.6,0.4,1,0.5c0.4,0.1,0.8,0.3,1.2,0.4s0.8,0.3,1.2,0.4
					s0.7,0.4,1,0.6s0.5,0.5,0.7,0.8s0.3,0.8,0.3,1.2c0,0.5-0.1,1-0.3,1.4s-0.4,0.8-0.8,1.2c-0.3,0.3-0.8,0.6-1.3,0.8
					s-1.1,0.3-1.7,0.3c-0.8,0-1.5-0.1-2.1-0.4c-0.6-0.3-1.1-0.7-1.6-1.2l0.2-0.4c0.1-0.1,0.1-0.1,0.2-0.1c0.1,0,0.1,0,0.2,0.1
					c0.1,0.1,0.2,0.2,0.3,0.3s0.3,0.2,0.4,0.3c0.2,0.1,0.4,0.2,0.6,0.3c0.2,0.1,0.5,0.2,0.8,0.3s0.6,0.1,1,0.1
					c0.5,0,0.9-0.1,1.3-0.2c0.4-0.1,0.7-0.4,1-0.6c0.3-0.2,0.5-0.6,0.6-0.9c0.1-0.4,0.2-0.7,0.2-1.1s-0.1-0.8-0.3-1.1
					c-0.2-0.3-0.4-0.5-0.7-0.7s-0.6-0.4-1-0.5s-0.8-0.3-1.2-0.4s-0.8-0.3-1.2-0.4s-0.7-0.3-1-0.6c-0.3-0.2-0.5-0.5-0.7-0.9
					S246,2.3,246,1.8c0-0.4,0.1-0.8,0.2-1.2c0.2-0.4,0.4-0.7,0.7-1s0.7-0.5,1.1-0.7c0.5-0.2,1-0.3,1.6-0.3c0.7,0,1.2,0.1,1.8,0.3
					c0.5,0.2,1,0.5,1.4,0.9V0.6z"/>
				<path id="Fill-955_3_" class="st9" d="M265,5.2c0-0.8-0.1-1.6-0.4-2.3c-0.2-0.7-0.6-1.2-1-1.7s-0.9-0.8-1.5-1.1s-1.3-0.4-2-0.4
					s-1.4,0.1-2,0.4s-1.1,0.6-1.5,1.1s-0.8,1-1,1.7s-0.4,1.4-0.4,2.3c0,0.8,0.1,1.6,0.4,2.3s0.6,1.2,1,1.7s0.9,0.8,1.5,1.1
					s1.3,0.4,2,0.4s1.4-0.1,2-0.4c0.6-0.2,1.1-0.6,1.5-1.1s0.7-1,1-1.7S265,6.1,265,5.2 M265.8,5.2c0,0.9-0.1,1.8-0.4,2.6
					s-0.7,1.4-1.2,2c-0.5,0.5-1.1,1-1.8,1.3c-0.7,0.3-1.5,0.4-2.3,0.4s-1.6-0.1-2.3-0.4c-0.7-0.3-1.3-0.7-1.8-1.3
					c-0.5-0.5-0.9-1.2-1.2-2s-0.4-1.6-0.4-2.6c0-0.9,0.1-1.8,0.4-2.5c0.3-0.8,0.7-1.4,1.2-2c0.5-0.5,1.1-1,1.8-1.3
					c0.7-0.3,1.5-0.4,2.3-0.4s1.6,0.1,2.3,0.4c0.7,0.3,1.3,0.7,1.8,1.3c0.5,0.5,0.9,1.2,1.2,2C265.7,3.4,265.8,4.3,265.8,5.2"/>
				<path id="Fill-957_3_" class="st9" d="M272.1,10.7c0.6,0,1.1-0.1,1.5-0.3c0.5-0.2,0.8-0.5,1.1-0.9c0.3-0.4,0.5-0.8,0.7-1.3
					s0.2-1,0.2-1.6V-1h0.8v7.6c0,0.7-0.1,1.3-0.3,1.9c-0.2,0.6-0.5,1.1-0.9,1.5s-0.9,0.8-1.4,1s-1.2,0.4-1.9,0.4
					c-0.7,0-1.3-0.1-1.9-0.4c-0.5-0.3-1-0.6-1.4-1s-0.7-0.9-0.9-1.5c-0.2-0.6-0.3-1.2-0.3-1.9V-1h0.9v7.6c0,0.6,0.1,1.1,0.2,1.6
					c0.2,0.5,0.4,0.9,0.7,1.3c0.3,0.4,0.7,0.6,1.1,0.9C271,10.6,271.5,10.7,272.1,10.7"/>
				<path id="Fill-959_3_" class="st9" d="M280.8,4.9h0.2h0.6c0.6,0,1.2-0.1,1.6-0.2c0.5-0.1,0.9-0.3,1.2-0.5
					c0.3-0.2,0.6-0.5,0.8-0.8c0.2-0.3,0.3-0.7,0.3-1.1c0-0.8-0.3-1.5-1-1.9c-0.6-0.4-1.6-0.6-2.8-0.6h-2.5V5v0.6V11h-1V-1h3.5
					c1.6,0,2.8,0.3,3.5,0.8c0.8,0.5,1.2,1.3,1.2,2.3c0,0.5-0.1,0.9-0.3,1.2c-0.2,0.4-0.5,0.7-0.8,1s-0.7,0.5-1.2,0.7s-1,0.3-1.6,0.4
					c0.2,0.1,0.3,0.2,0.4,0.3l4.7,5.1h-0.9c-0.1,0-0.2,0-0.3,0c-0.1,0-0.2-0.1-0.2-0.2L282,5.9c-0.1-0.1-0.2-0.2-0.3-0.2
					c-0.1,0-0.9-0.1-1.2-0.1C280.5,4.9,280.6,4.9,280.8,4.9"/>
				<path id="Fill-961_3_" class="st9" d="M296.2,9.3c0,0,0.1,0,0.1,0.1l0.3,0.4c-0.2,0.3-0.5,0.5-0.8,0.7s-0.6,0.4-0.9,0.5
					s-0.7,0.3-1.1,0.4c-0.4,0.1-0.8,0.1-1.3,0.1c-0.8,0-1.5-0.1-2.2-0.4c-0.7-0.3-1.2-0.7-1.7-1.3c-0.5-0.5-0.8-1.2-1.1-2
					c-0.3-0.8-0.4-1.6-0.4-2.6c0-0.9,0.1-1.8,0.4-2.5c0.3-0.8,0.7-1.4,1.1-2c0.5-0.5,1.1-1,1.8-1.3c0.7-0.3,1.5-0.4,2.3-0.4
					c0.4,0,0.8,0,1.1,0.1c0.4,0.1,0.7,0.2,1,0.3s0.6,0.3,0.8,0.5c0.3,0.2,0.5,0.4,0.8,0.6l-0.2,0.4c0,0.1-0.1,0.1-0.2,0.1
					c0,0-0.1,0-0.2-0.1s-0.2-0.1-0.3-0.2c-0.1-0.1-0.3-0.2-0.4-0.3c-0.2-0.1-0.4-0.2-0.6-0.3s-0.5-0.2-0.8-0.2
					c-0.3-0.1-0.6-0.1-1-0.1c-0.7,0-1.3,0.1-1.9,0.4s-1.1,0.6-1.5,1.1s-0.8,1.1-1,1.7c-0.2,0.7-0.4,1.4-0.4,2.3s0.1,1.6,0.4,2.3
					c0.2,0.7,0.6,1.2,1,1.7s0.9,0.8,1.5,1.1s1.2,0.4,1.8,0.4c0.4,0,0.8,0,1.1-0.1c0.3,0,0.6-0.1,0.9-0.3c0.3-0.1,0.5-0.3,0.8-0.4
					c0.2-0.2,0.5-0.4,0.7-0.6C296,9.3,296.1,9.2,296.2,9.3C296.1,9.3,296.2,9.3,296.2,9.3"/>
				<polygon id="Fill-963_3_" class="st9" points="306.7,-1 306.7,-0.3 299.4,-0.3 299.4,4.5 305.5,4.5 305.5,5.2 299.4,5.2 
					299.4,10.2 306.7,10.2 306.7,10.9 298.4,10.9 298.4,-1 				"/>
				<polygon id="Fill-965_3_" class="st9" points="316.8,-1 316.8,0.9 310.5,0.9 310.5,4.5 315.8,4.5 315.8,6.4 310.5,6.4 
					310.5,11.5 307.9,11.5 307.9,-1 				"/>
				<path id="Fill-966_3_" class="st9" d="M327.5,5.2c0-0.7-0.1-1.3-0.3-1.8c-0.2-0.5-0.4-1-0.8-1.4c-0.3-0.4-0.7-0.6-1.2-0.8
					s-1-0.3-1.6-0.3S322.5,1,322,1.2s-0.9,0.5-1.2,0.8c-0.3,0.4-0.6,0.8-0.8,1.4c-0.2,0.5-0.3,1.1-0.3,1.8s0.1,1.3,0.3,1.8
					c0.2,0.5,0.4,1,0.8,1.4c0.3,0.4,0.7,0.6,1.2,0.8s1,0.3,1.6,0.3s1.1-0.1,1.6-0.3s0.9-0.5,1.2-0.8c0.3-0.4,0.6-0.8,0.8-1.4
					C327.4,6.5,327.5,5.9,327.5,5.2 M329.8,5.2c0,0.9-0.1,1.7-0.4,2.5s-0.7,1.4-1.3,2c-0.5,0.6-1.2,1-2,1.3s-1.6,0.5-2.5,0.5
					s-1.8-0.2-2.5-0.5c-0.8-0.3-1.4-0.7-2-1.3s-1-1.2-1.3-2s-0.4-1.6-0.4-2.5s0.1-1.7,0.4-2.5s0.7-1.4,1.3-2c0.6-0.6,1.2-1,2-1.3
					s1.6-0.5,2.5-0.5s1.8,0.2,2.5,0.5c0.8,0.3,1.4,0.8,2,1.3c0.5,0.6,1,1.2,1.3,2C329.7,3.5,329.8,4.3,329.8,5.2"/>
				<path id="Fill-967_3_" class="st9" d="M334,4.9h0.5c0.4,0,0.8,0,1.1-0.2c0.3-0.1,0.5-0.3,0.7-0.4c0.2-0.2,0.3-0.4,0.4-0.7
					s0.2-0.6,0.2-0.9c0-0.6-0.2-1.1-0.6-1.5c-0.4-0.3-1-0.5-1.7-0.5h-1.4v4.1v1.7v4.9H331V-1h3.5c0.8,0,1.4,0.1,2,0.3s1,0.4,1.4,0.7
					c0.3,0.3,0.6,0.7,0.8,1.1c0.2,0.4,0.3,0.9,0.3,1.5c0,0.4-0.1,0.8-0.2,1.2s-0.3,0.7-0.5,1s-0.5,0.6-0.8,0.8
					c-0.3,0.2-0.7,0.4-1.1,0.5c0.3,0.2,0.5,0.4,0.7,0.7l2.9,4.6h-2c-0.2,0-0.3,0-0.5-0.1c-0.1-0.1-0.2-0.2-0.3-0.4l-2.4-4
					c-0.1-0.1-0.2-0.3-0.3-0.3h-0.8V5.1C333.8,4.9,334,4.9,334,4.9"/>
				<path id="Fill-968_3_" class="st9" d="M345.9,9.7c0.5,0,1,0,1.4-0.1s0.8-0.2,1.1-0.4V6.4h-1.6c-0.1,0-0.3,0-0.4-0.1
					s-0.1-0.2-0.1-0.3V4.7h4.2v5.5c-0.3,0.2-0.6,0.4-1,0.6c-0.4,0.2-0.7,0.3-1.1,0.4c-0.4,0.1-0.8,0.2-1.3,0.2s-0.9,0.1-1.5,0.1
					c-0.9,0-1.8-0.2-2.6-0.5c-0.8-0.3-1.5-0.7-2-1.3c-0.6-0.5-1-1.2-1.3-2s-0.5-1.6-0.5-2.5s0.1-1.7,0.5-2.5c0.3-0.8,0.7-1.4,1.3-2
					c0.6-0.5,1.3-1,2.1-1.3c0.8-0.3,1.7-0.5,2.7-0.5s1.9,0.1,2.7,0.4c0.8,0.3,1.4,0.7,1.9,1.1l-0.7,1c-0.1,0.2-0.3,0.3-0.5,0.3
					c-0.1,0-0.3,0-0.4-0.1c-0.2-0.1-0.4-0.2-0.6-0.3s-0.4-0.2-0.6-0.3s-0.5-0.1-0.8-0.2c-0.3,0-0.6-0.1-1-0.1
					c-0.6,0-1.2,0.1-1.7,0.3s-0.9,0.5-1.3,0.9s-0.6,0.8-0.8,1.4c-0.2,0.5-0.3,1.1-0.3,1.8s0.1,1.3,0.3,1.9c0.2,0.5,0.5,1,0.9,1.4
					c0.4,0.4,0.8,0.7,1.3,0.9C344.7,9.6,345.3,9.7,345.9,9.7"/>
				<path id="Fill-969_3_" class="st9" d="M358.7,6.5h-4.3v3.1h6.2v1.9h-8.9V-1h8.9v1.9h-6.3v3.8h4.9v1.4
					C359.3,6.1,359.3,6.5,358.7,6.5"/>
			</g>
			<g id="SF-logo-vector_3_" transform="translate(121.000000, 15.000000)">
				<path id="Rectangle_17_" class="st10" d="M226.3,44.2h3.2c0.2,0,0.3,0.1,0.3,0.3v0.1c0,0.1-0.1,0.3-0.2,0.4l-10.1,10.9
					c-0.2,0.2-0.2,0.6,0,0.8l7.9,8.6c0.2,0.2,0.2,0.6,0,0.8l-1.3,1.4c-0.2,0.2-0.6,0.3-0.8,0l0,0l-10-10.8c-0.2-0.2-0.2-0.6,0-0.8
					l10.5-11.5C226,44.3,226.2,44.2,226.3,44.2z"/>
				<path id="Rectangle_16_" class="st10" d="M230.3,69.7h-3.2c-0.2,0-0.3-0.1-0.3-0.3v-0.1c0-0.1,0.1-0.3,0.2-0.4l10.1-11.2
					c0.2-0.2,0.2-0.6,0-0.8l-7.9-8.8c-0.2-0.2-0.2-0.6,0-0.8l1.3-1.4c0.2-0.2,0.6-0.3,0.8-0.1l0,0l10,11c0.2,0.2,0.2,0.6,0,0.8
					l-10.6,11.8C230.6,69.6,230.5,69.7,230.3,69.7z"/>
				<path id="Oval_3_" class="st10" d="M228.4,62.6c2.2,0,3.9-2.4,3.7-5c-0.1-1.2-0.8-3.2-1-2.9c-0.1,0.2,0.2,1.6,0.1,2.5
					c-0.1,1.4-0.7,2.3-1,1.8s-0.2-1.5-0.3-2.6c-0.1-1.2-0.3-2.3-0.5-3c-0.1-0.3-1.1-3-1.8-3.2h-0.1c0,0-0.1,0-0.1,0.1
					c-0.2,0.1,0.1,1-0.6,2.2c-0.4,0.7-1.3,1.7-1.7,2.6c-0.6,1.3-0.7,2.5-0.6,3.2C224.6,60.9,226.2,62.6,228.4,62.6z"/>
			</g>
		</g>
	</g>
</g>
<g id="Layer_4">
	<g id="Outstanding-Fall-2021-white_1_">
		<g id="Group-4_2_">
			
				<g id="Group-2_3_" transform="translate(185.261977, 185.261977) rotate(-315.000000) translate(-185.261977, -185.261977) translate(54.261977, 54.261977)">
				
					<rect id="Rectangle_27_" x="718.4" y="-673.9" transform="matrix(5.070363e-06 1 -1 5.070363e-06 199.8385 -1392.2913)" class="st18" width="155.3" height="155.3"/>
				
					<rect id="Rectangle_26_" x="722.6" y="-669.8" transform="matrix(5.070363e-06 1 -1 5.070363e-06 199.8385 -1392.3912)" class="st1" width="147" height="147"/>
				
					<rect id="Rectangle_25_" x="727.2" y="-665" transform="matrix(5.070363e-06 1 -1 5.070363e-06 199.8385 -1392.1912)" class="st19" width="137.6" height="137.6"/>
			</g>
			<polygon id="Fill-18-Copy-4_7_" class="st14" points="1131.4,174.9 1133.1,178.6 1137,179.2 1134.2,182.1 1134.8,186.2 
				1131.4,184.3 1127.9,186.2 1128.5,182.1 1125.7,179.2 1129.6,178.6 			"/>
			<polygon id="Fill-18-Copy-4_6_" class="st14" points="1208.4,174.9 1210.2,178.6 1214.1,179.2 1211.2,182.1 1211.9,186.2 
				1208.4,184.3 1204.9,186.2 1205.6,182.1 1202.8,179.2 1206.7,178.6 			"/>
			<g id="SF-logo-vector_4_" transform="translate(155.000000, 50.000000)">
				<path id="Rectangle_24_" class="st10" d="M1012.2,11.1h4.4c0.2,0,0.4,0.2,0.4,0.4v0.2c0,0.2-0.1,0.3-0.2,0.4L1002.9,27
					c-0.2,0.2-0.2,0.6,0,0.8l11,11.8c0.2,0.2,0.2,0.6,0,0.8l-2,2.2c-0.2,0.2-0.6,0.3-0.8,0l0,0l-13.8-14.9c-0.2-0.2-0.2-0.6,0-0.8
					l14.5-15.7C1011.8,11.2,1012,11.1,1012.2,11.1z"/>
				<path id="Rectangle_23_" class="st10" d="M1017.6,45.5h-4.4c-0.2,0-0.4-0.2-0.4-0.4v-0.2c0-0.1,0.1-0.3,0.2-0.4l13.9-15.3
					c0.2-0.2,0.2-0.6,0-0.8l-11-12.1c-0.2-0.2-0.2-0.6,0-0.8l2-2.2c0.2-0.2,0.6-0.3,0.8,0l0,0l13.8,15.1c0.2,0.2,0.2,0.6,0,0.8
					l-14.6,16C1017.9,45.4,1017.8,45.5,1017.6,45.5z"/>
				<path id="Oval_4_" class="st10" d="M1015.6,36c2.9,0,5.2-3.2,4.9-6.7c-0.1-1.5-1.1-4.3-1.4-3.8c-0.2,0.2,0.2,2.1,0.1,3.3
					c-0.2,1.9-0.9,3.1-1.3,2.4c-0.4-0.7-0.2-2-0.3-3.5s-0.4-3.1-0.7-4c-0.1-0.4-1.4-4-2.4-4.3c-0.1,0-0.1,0-0.1,0s-0.1,0-0.2,0.1
					c-0.2,0.2,0.1,1.4-0.8,2.9c-0.6,1-1.7,2.2-2.2,3.5c-0.7,1.7-0.9,3.3-0.8,4.2C1010.6,33.8,1012.7,36,1015.6,36z"/>
			</g>
			
				<linearGradient id="Rectangle_28_" gradientUnits="userSpaceOnUse" x1="5.559" y1="-273.4972" x2="4.8436" y2="-273.4347" gradientTransform="matrix(309 0 0 73 -277 20101.1523)">
				<stop  offset="0" style="stop-color:#FFCB00"/>
				<stop  offset="1" style="stop-color:#F06A2B"/>
			</linearGradient>
			<polygon id="Rectangle_22_" class="st20" points="1099.8,119.8 1239.7,119.8 1261.5,141.4 1239.7,163.1 1099.8,163.1 
				1078.3,141.4 			"/>
			<g id="SourceForge-Logo-White-vector_4_" transform="translate(97.000000, 121.000000)">
				<path id="Fill-953_5_" class="st21" d="M1026.4-16.3c0,0.1-0.1,0.1-0.2,0.1s-0.1,0-0.2-0.2c-0.1-0.1-0.2-0.2-0.4-0.3
					c-0.2-0.1-0.4-0.2-0.7-0.3c-0.3-0.1-0.6-0.2-1-0.2s-0.7,0.1-1,0.2s-0.5,0.3-0.7,0.5s-0.3,0.4-0.5,0.7c-0.1,0.3-0.2,0.5-0.2,0.8
					c0,0.4,0.1,0.7,0.2,0.9c0.1,0.2,0.4,0.4,0.6,0.6c0.2,0.2,0.5,0.3,0.9,0.4c0.3,0.1,0.7,0.2,1,0.3s0.7,0.2,1,0.4
					c0.3,0.1,0.6,0.3,0.9,0.5s0.5,0.5,0.6,0.8s0.2,0.7,0.2,1.1c0,0.5-0.1,0.9-0.2,1.3c-0.1,0.4-0.4,0.8-0.7,1.1
					c-0.3,0.3-0.7,0.5-1.1,0.7s-0.9,0.3-1.4,0.3c-0.7,0-1.3-0.1-1.8-0.4s-0.9-0.6-1.3-1.1l0.2-0.3c0.1-0.1,0.1-0.1,0.2-0.1
					c0,0,0.1,0,0.2,0.1c0.1,0.1,0.2,0.1,0.2,0.2c0.1,0.1,0.2,0.2,0.4,0.3c0.1,0.1,0.3,0.2,0.5,0.3s0.4,0.2,0.6,0.2
					c0.2,0.1,0.5,0.1,0.8,0.1c0.4,0,0.8-0.1,1.1-0.2s0.6-0.3,0.8-0.5c0.2-0.2,0.4-0.5,0.5-0.8s0.2-0.7,0.2-1c0-0.4-0.1-0.7-0.2-1
					s-0.4-0.5-0.6-0.6c-0.2-0.2-0.5-0.3-0.9-0.4s-0.7-0.2-1-0.3s-0.7-0.2-1-0.4c-0.3-0.1-0.6-0.3-0.9-0.5c-0.2-0.2-0.5-0.5-0.6-0.8
					s-0.2-0.7-0.2-1.2c0-0.4,0.1-0.7,0.2-1.1c0.1-0.3,0.3-0.6,0.6-0.9s0.6-0.5,1-0.6s0.8-0.2,1.3-0.2c0.6,0,1,0.1,1.5,0.3
					c0.4,0.2,0.8,0.5,1.2,0.8L1026.4-16.3z"/>
				<path id="Fill-955_4_" class="st21" d="M1037.5-12.2c0-0.8-0.1-1.5-0.3-2.1c-0.2-0.6-0.5-1.1-0.9-1.5s-0.8-0.7-1.4-1
					c-0.5-0.2-1.1-0.3-1.8-0.3c-0.6,0-1.2,0.1-1.8,0.3c-0.5,0.2-1,0.5-1.4,1c-0.4,0.4-0.7,0.9-0.9,1.5c-0.2,0.6-0.3,1.3-0.3,2.1
					s0.1,1.5,0.3,2.1c0.2,0.6,0.5,1.1,0.9,1.5s0.8,0.7,1.4,1c0.5,0.2,1.1,0.3,1.8,0.3c0.6,0,1.2-0.1,1.8-0.3c0.5-0.2,1-0.6,1.4-1
					s0.7-0.9,0.9-1.5C1037.4-10.7,1037.5-11.4,1037.5-12.2 M1038.2-12.2c0,0.8-0.1,1.6-0.4,2.3c-0.2,0.7-0.6,1.3-1,1.8
					s-1,0.9-1.6,1.1c-0.6,0.3-1.3,0.4-2.1,0.4c-0.7,0-1.4-0.1-2-0.4s-1.1-0.6-1.6-1.1c-0.4-0.5-0.8-1.1-1-1.8s-0.4-1.5-0.4-2.3
					s0.1-1.6,0.4-2.3c0.2-0.7,0.6-1.3,1-1.8c0.5-0.5,1-0.9,1.6-1.1c0.6-0.3,1.3-0.4,2-0.4c0.8,0,1.4,0.1,2.1,0.4
					c0.6,0.3,1.1,0.6,1.6,1.1c0.4,0.5,0.8,1.1,1,1.8C1038.1-13.8,1038.2-13,1038.2-12.2"/>
				<path id="Fill-957_5_" class="st21" d="M1043.9-7.2c0.5,0,0.9-0.1,1.3-0.3c0.4-0.2,0.7-0.5,1-0.8s0.5-0.7,0.6-1.2
					s0.2-0.9,0.2-1.5v-6.9h0.7v6.9c0,0.6-0.1,1.2-0.3,1.7c-0.2,0.5-0.4,1-0.8,1.4c-0.3,0.4-0.7,0.7-1.2,0.9c-0.5,0.2-1,0.3-1.6,0.3
					s-1.1-0.1-1.6-0.3c-0.5-0.2-0.9-0.5-1.2-0.9c-0.3-0.4-0.6-0.9-0.8-1.4c-0.2-0.5-0.3-1.1-0.3-1.7v-6.9h0.7v6.9
					c0,0.5,0.1,1,0.2,1.5s0.4,0.8,0.6,1.2c0.3,0.3,0.6,0.6,1,0.8C1042.9-7.3,1043.4-7.2,1043.9-7.2"/>
				<path id="Fill-959_5_" class="st21" d="M1052.9-12.5h0.2h0.5c0.5,0,1-0.1,1.4-0.2c0.4-0.1,0.8-0.3,1.1-0.5
					c0.3-0.2,0.5-0.5,0.7-0.8s0.2-0.6,0.2-1c0-0.8-0.3-1.3-0.8-1.7c-0.6-0.4-1.4-0.6-2.5-0.6h-2.2v4.7v0.6v4.8h-0.9v-10.7h3.1
					c1.4,0,2.4,0.2,3.1,0.7s1,1.2,1,2.1c0,0.4-0.1,0.8-0.2,1.1c-0.2,0.3-0.4,0.6-0.7,0.9s-0.6,0.5-1.1,0.6c-0.4,0.2-0.9,0.3-1.4,0.3
					c0.1,0.1,0.3,0.2,0.4,0.3l4.2,4.6h-0.8c-0.1,0-0.2,0-0.2,0c-0.1,0-0.1-0.1-0.2-0.1l-3.8-4.3c-0.1-0.1-0.2-0.2-0.3-0.2
					c-0.1,0-0.8-0.1-1-0.1C1052.6-12.5,1052.7-12.5,1052.9-12.5"/>
				<path id="Fill-961_5_" class="st21" d="M1066.3-8.5c0,0,0.1,0,0.1,0.1l0.3,0.3c-0.2,0.2-0.4,0.5-0.7,0.7
					c-0.3,0.2-0.5,0.4-0.8,0.5s-0.6,0.2-0.9,0.3c-0.3,0.1-0.7,0.1-1.1,0.1c-0.7,0-1.3-0.1-1.9-0.4s-1.1-0.6-1.5-1.1s-0.7-1.1-1-1.8
					c-0.2-0.7-0.3-1.5-0.3-2.3s0.1-1.6,0.4-2.3c0.2-0.7,0.6-1.3,1-1.8c0.4-0.5,0.9-0.9,1.5-1.1c0.6-0.3,1.3-0.4,2-0.4
					c0.4,0,0.7,0,1,0.1s0.6,0.1,0.9,0.3c0.3,0.1,0.5,0.3,0.7,0.4c0.2,0.2,0.5,0.4,0.7,0.6l-0.2,0.3c0,0.1-0.1,0.1-0.2,0.1
					c0,0-0.1,0-0.2-0.1c-0.1-0.1-0.2-0.1-0.3-0.2c-0.1-0.1-0.2-0.2-0.4-0.3c-0.1-0.1-0.3-0.2-0.5-0.3c-0.2-0.1-0.4-0.1-0.7-0.2
					c-0.3-0.1-0.6-0.1-0.9-0.1c-0.6,0-1.2,0.1-1.7,0.3c-0.5,0.2-0.9,0.6-1.3,1s-0.7,1-0.9,1.5c-0.2,0.6-0.3,1.3-0.3,2.1
					s0.1,1.5,0.3,2.1c0.2,0.6,0.5,1.1,0.9,1.5s0.8,0.7,1.3,1c0.5,0.2,1,0.3,1.6,0.3c0.4,0,0.7,0,1-0.1c0.3,0,0.5-0.1,0.8-0.2
					c0.2-0.1,0.5-0.2,0.7-0.4C1065.9-8.2,1066.1-8.3,1066.3-8.5C1066.1-8.5,1066.2-8.5,1066.3-8.5C1066.2-8.5,1066.2-8.5,1066.3-8.5
					"/>
				<polygon id="Fill-963_5_" class="st21" points="1075.6,-17.8 1075.6,-17.2 1069.3,-17.2 1069.3,-12.8 1074.5,-12.8 
					1074.5,-12.2 1069.3,-12.2 1069.3,-7.8 1075.6,-7.8 1075.6,-7.1 1068.4,-7.1 1068.4,-17.8 				"/>
				<polygon id="Fill-965_5_" class="st9" points="1084.5,-17.8 1084.5,-16.1 1079,-16.1 1079,-12.8 1083.6,-12.8 1083.6,-11.1 
					1079,-11.1 1079,-6.5 1076.7,-6.5 1076.7,-17.8 				"/>
				<path id="Fill-966_5_" class="st9" d="M1094.2-12.2c0-0.6-0.1-1.1-0.3-1.6c-0.2-0.5-0.4-0.9-0.7-1.2c-0.3-0.3-0.7-0.6-1.1-0.8
					s-0.9-0.3-1.5-0.3c-0.5,0-1,0.1-1.5,0.3c-0.4,0.2-0.8,0.4-1.1,0.8c-0.3,0.3-0.5,0.7-0.7,1.2s-0.3,1-0.3,1.6s0.1,1.1,0.3,1.6
					c0.2,0.5,0.4,0.9,0.7,1.2c0.3,0.3,0.7,0.6,1.1,0.8s0.9,0.3,1.5,0.3c0.5,0,1-0.1,1.5-0.3c0.4-0.2,0.8-0.4,1.1-0.8
					c0.3-0.3,0.5-0.7,0.7-1.2C1094.1-11,1094.2-11.6,1094.2-12.2 M1096.3-12.2c0,0.8-0.1,1.6-0.4,2.2c-0.3,0.7-0.6,1.3-1.2,1.8
					c-0.5,0.5-1.1,0.9-1.8,1.2c-0.7,0.3-1.5,0.4-2.3,0.4s-1.6-0.1-2.3-0.4c-0.7-0.3-1.3-0.7-1.8-1.2s-0.9-1.1-1.2-1.8
					c-0.3-0.7-0.4-1.4-0.4-2.2s0.1-1.6,0.4-2.2c0.3-0.7,0.6-1.3,1.2-1.8c0.5-0.5,1.1-0.9,1.8-1.2c0.7-0.3,1.5-0.4,2.3-0.4
					s1.6,0.1,2.3,0.4c0.7,0.3,1.3,0.7,1.8,1.2s0.9,1.1,1.2,1.8C1096.2-13.7,1096.3-13,1096.3-12.2"/>
				<path id="Fill-967_5_" class="st9" d="M1100.1-12.5h0.4c0.4,0,0.7,0,0.9-0.1c0.3-0.1,0.5-0.2,0.6-0.4c0.2-0.2,0.3-0.4,0.4-0.6
					c0.1-0.2,0.1-0.5,0.1-0.8c0-0.6-0.2-1-0.5-1.3c-0.3-0.3-0.8-0.5-1.5-0.5h-1.2v3.7v1.5v4.4h-1.8v-11.3h3c0.7,0,1.3,0.1,1.7,0.2
					c0.5,0.1,0.9,0.4,1.2,0.7c0.3,0.3,0.5,0.6,0.7,1c0.1,0.4,0.2,0.8,0.2,1.3c0,0.4-0.1,0.7-0.2,1.1c-0.1,0.3-0.2,0.6-0.4,0.9
					c-0.2,0.3-0.4,0.5-0.7,0.7c-0.3,0.2-0.6,0.4-0.9,0.5c0.2,0.1,0.4,0.4,0.6,0.6l2.5,4.2h-1.7c-0.2,0-0.3,0-0.4-0.1
					s-0.2-0.2-0.3-0.3l-2.1-3.6c-0.1-0.1-0.2-0.3-0.3-0.3h-0.7v-1.4C1099.9-12.5,1100.1-12.5,1100.1-12.5"/>
				<path id="Fill-968_5_" class="st9" d="M1111.7-8.1c0.5,0,0.9,0,1.2-0.1c0.3-0.1,0.7-0.2,1-0.4v-2.5h-1.4c-0.1,0-0.2,0-0.3-0.1
					c-0.1-0.1-0.1-0.2-0.1-0.3v-1.2h3.8v4.9c-0.3,0.2-0.6,0.4-0.9,0.5s-0.6,0.3-1,0.4s-0.7,0.2-1.1,0.2s-0.8,0.1-1.3,0.1
					c-0.8,0-1.6-0.1-2.3-0.4c-0.7-0.3-1.3-0.7-1.8-1.2s-0.9-1.1-1.2-1.8c-0.3-0.7-0.4-1.5-0.4-2.3s0.1-1.6,0.4-2.3s0.7-1.3,1.2-1.8
					s1.1-0.9,1.9-1.2c0.7-0.3,1.5-0.4,2.4-0.4s1.7,0.1,2.4,0.4c0.7,0.3,1.2,0.6,1.7,1l-0.6,0.9c-0.1,0.2-0.3,0.3-0.5,0.3
					c-0.1,0-0.3,0-0.4-0.1c-0.2-0.1-0.3-0.2-0.5-0.3s-0.4-0.2-0.6-0.2c-0.2-0.1-0.5-0.1-0.7-0.2c-0.3,0-0.6-0.1-0.9-0.1
					c-0.6,0-1.1,0.1-1.5,0.3c-0.5,0.2-0.8,0.4-1.2,0.8c-0.3,0.3-0.6,0.7-0.7,1.2c-0.2,0.5-0.3,1-0.3,1.6s0.1,1.2,0.3,1.7
					c0.2,0.5,0.5,0.9,0.8,1.2s0.7,0.6,1.2,0.8C1110.6-8.2,1111.2-8.1,1111.7-8.1"/>
				<path id="Fill-969_5_" class="st9" d="M1123.1-11.1h-3.7v2.8h5.4v1.7h-7.7v-11.3h7.7v1.7h-5.4v3.5h4.3v1.2
					C1123.6-11.4,1123.6-11.1,1123.1-11.1"/>
			</g>
			<g class="st6">
				<path d="M1095.3,149.4v-13.8h-4.9v-2.8h13.2v2.8h-4.9v13.8H1095.3z"/>
				<path d="M1103.3,143.3c0-1.1,0.3-2.1,0.8-3.1c0.5-1,1.3-1.7,2.2-2.3c1-0.5,2-0.8,3.2-0.8c1.8,0,3.3,0.6,4.5,1.8
					c1.2,1.2,1.7,2.7,1.7,4.5c0,1.8-0.6,3.3-1.8,4.5c-1.2,1.2-2.6,1.8-4.4,1.8c-1.1,0-2.1-0.2-3.1-0.7c-1-0.5-1.8-1.2-2.3-2.2
					C1103.5,145.8,1103.3,144.7,1103.3,143.3z M1106.5,143.4c0,1.2,0.3,2.1,0.8,2.7c0.6,0.6,1.3,0.9,2.1,0.9s1.5-0.3,2.1-0.9
					c0.6-0.6,0.8-1.6,0.8-2.8c0-1.2-0.3-2.1-0.8-2.7c-0.6-0.6-1.3-0.9-2.1-0.9s-1.5,0.3-2.1,0.9
					C1106.8,141.3,1106.5,142.3,1106.5,143.4z"/>
				<path d="M1118,137.4h3v1.8c0.4-0.6,0.9-1.1,1.6-1.5c0.7-0.4,1.4-0.6,2.2-0.6c1.4,0,2.6,0.5,3.5,1.6c1,1.1,1.5,2.6,1.5,4.6
					c0,2-0.5,3.6-1.5,4.7s-2.2,1.7-3.6,1.7c-0.7,0-1.3-0.1-1.8-0.4s-1.1-0.7-1.7-1.4v6h-3.2V137.4z M1121.2,143.2
					c0,1.3,0.3,2.3,0.8,3s1.2,1,2,1c0.7,0,1.4-0.3,1.8-0.9s0.7-1.6,0.7-2.9c0-1.3-0.3-2.2-0.8-2.8c-0.5-0.6-1.1-0.9-1.9-0.9
					c-0.8,0-1.4,0.3-1.9,0.9S1121.2,142.1,1121.2,143.2z"/>
				<path d="M1138.7,149.4v-16.6h5.4c2,0,3.4,0.1,4,0.2c0.9,0.2,1.7,0.8,2.4,1.6s1,1.9,1,3.2c0,1-0.2,1.9-0.6,2.6
					c-0.4,0.7-0.8,1.2-1.4,1.6s-1.1,0.7-1.7,0.8c-0.8,0.2-2,0.2-3.5,0.2h-2.2v6.2H1138.7z M1142,135.7v4.7h1.8
					c1.3,0,2.2-0.1,2.6-0.3c0.4-0.2,0.8-0.4,1-0.8s0.4-0.8,0.4-1.3c0-0.6-0.2-1.1-0.5-1.5s-0.8-0.6-1.3-0.7
					c-0.4-0.1-1.2-0.1-2.4-0.1H1142z"/>
				<path d="M1161,145.6l3.2,0.5c-0.4,1.2-1,2-1.9,2.6c-0.9,0.6-2,0.9-3.3,0.9c-2.1,0-3.6-0.7-4.6-2c-0.8-1.1-1.2-2.5-1.2-4.1
					c0-2,0.5-3.5,1.6-4.7c1-1.1,2.4-1.7,3.9-1.7c1.8,0,3.2,0.6,4.2,1.8c1,1.2,1.5,3,1.5,5.4h-7.9c0,0.9,0.3,1.7,0.8,2.2
					s1.1,0.8,1.8,0.8c0.5,0,0.9-0.1,1.3-0.4C1160.6,146.7,1160.9,146.2,1161,145.6z M1161.2,142.4c0-0.9-0.3-1.6-0.7-2.1
					c-0.5-0.5-1-0.7-1.6-0.7c-0.7,0-1.3,0.3-1.7,0.8c-0.5,0.5-0.7,1.2-0.7,2.1H1161.2z"/>
				<path d="M1170,149.4h-3.2v-12h2.9v1.7c0.5-0.8,1-1.3,1.4-1.6c0.4-0.3,0.9-0.4,1.4-0.4c0.7,0,1.4,0.2,2.1,0.6l-1,2.8
					c-0.5-0.3-1-0.5-1.5-0.5c-0.4,0-0.8,0.1-1.1,0.4c-0.3,0.2-0.6,0.7-0.7,1.3s-0.3,2-0.3,4V149.4z"/>
				<path d="M1174.6,137.4h1.8v-0.9c0-1,0.1-1.8,0.3-2.3s0.6-0.9,1.2-1.2s1.3-0.5,2.2-0.5c0.9,0,1.8,0.1,2.7,0.4l-0.4,2.2
					c-0.5-0.1-1-0.2-1.5-0.2c-0.5,0-0.8,0.1-1,0.3c-0.2,0.2-0.3,0.6-0.3,1.2v0.8h2.4v2.5h-2.4v9.5h-3.2v-9.5h-1.8V137.4z"/>
				<path d="M1182.9,143.3c0-1.1,0.3-2.1,0.8-3.1c0.5-1,1.3-1.7,2.2-2.3c1-0.5,2-0.8,3.2-0.8c1.8,0,3.3,0.6,4.5,1.8
					c1.2,1.2,1.7,2.7,1.7,4.5c0,1.8-0.6,3.3-1.8,4.5c-1.2,1.2-2.6,1.8-4.4,1.8c-1.1,0-2.1-0.2-3.1-0.7c-1-0.5-1.8-1.2-2.3-2.2
					C1183.2,145.8,1182.9,144.7,1182.9,143.3z M1186.2,143.4c0,1.2,0.3,2.1,0.8,2.7c0.6,0.6,1.3,0.9,2.1,0.9s1.5-0.3,2.1-0.9
					c0.6-0.6,0.8-1.6,0.8-2.8c0-1.2-0.3-2.1-0.8-2.7c-0.6-0.6-1.3-0.9-2.1-0.9s-1.5,0.3-2.1,0.9
					C1186.5,141.3,1186.2,142.3,1186.2,143.4z"/>
				<path d="M1200.8,149.4h-3.2v-12h2.9v1.7c0.5-0.8,1-1.3,1.4-1.6s0.9-0.4,1.4-0.4c0.7,0,1.4,0.2,2.1,0.6l-1,2.8
					c-0.5-0.3-1-0.5-1.5-0.5c-0.4,0-0.8,0.1-1.1,0.4c-0.3,0.2-0.6,0.7-0.7,1.3c-0.2,0.6-0.3,2-0.3,4V149.4z"/>
				<path d="M1206.5,137.4h2.9v1.6c1-1.3,2.3-1.9,3.7-1.9c0.8,0,1.4,0.2,2,0.5c0.6,0.3,1,0.8,1.4,1.4c0.5-0.6,1.1-1.1,1.7-1.4
					c0.6-0.3,1.3-0.5,2-0.5c0.9,0,1.6,0.2,2.2,0.5c0.6,0.4,1.1,0.9,1.4,1.6c0.2,0.5,0.3,1.3,0.3,2.5v7.7h-3.2v-6.9
					c0-1.2-0.1-2-0.3-2.3c-0.3-0.5-0.7-0.7-1.4-0.7c-0.4,0-0.9,0.1-1.3,0.4c-0.4,0.3-0.7,0.7-0.8,1.2c-0.2,0.5-0.3,1.3-0.3,2.5v5.8
					h-3.2v-6.6c0-1.2-0.1-1.9-0.2-2.3c-0.1-0.3-0.3-0.6-0.5-0.8c-0.2-0.2-0.6-0.2-1-0.2c-0.5,0-0.9,0.1-1.3,0.4
					c-0.4,0.3-0.7,0.6-0.8,1.1s-0.3,1.3-0.3,2.5v5.8h-3.2V137.4z"/>
				<path d="M1234.3,145.6l3.2,0.5c-0.4,1.2-1,2-1.9,2.6c-0.9,0.6-2,0.9-3.3,0.9c-2.1,0-3.6-0.7-4.6-2c-0.8-1.1-1.2-2.5-1.2-4.1
					c0-2,0.5-3.5,1.6-4.7c1-1.1,2.4-1.7,3.9-1.7c1.8,0,3.2,0.6,4.2,1.8c1,1.2,1.5,3,1.5,5.4h-7.9c0,0.9,0.3,1.7,0.8,2.2
					s1.1,0.8,1.8,0.8c0.5,0,0.9-0.1,1.3-0.4C1233.9,146.7,1234.1,146.2,1234.3,145.6z M1234.5,142.4c0-0.9-0.3-1.6-0.7-2.1
					c-0.5-0.5-1-0.7-1.6-0.7c-0.7,0-1.3,0.3-1.7,0.8c-0.5,0.5-0.7,1.2-0.7,2.1H1234.5z"/>
				<path d="M1243.2,149.4h-3.2v-12h2.9v1.7c0.5-0.8,1-1.3,1.4-1.6s0.9-0.4,1.4-0.4c0.7,0,1.4,0.2,2.1,0.6l-1,2.8
					c-0.5-0.3-1-0.5-1.5-0.5c-0.4,0-0.8,0.1-1.1,0.4c-0.3,0.2-0.6,0.7-0.7,1.3c-0.2,0.6-0.3,2-0.3,4V149.4z"/>
			</g>
			<g class="st6">
				<path d="M1156.1,185v-12.7h8.7v2.2h-6.2v3h5.3v2.2h-5.3v5.4H1156.1z"/>
				<path d="M1168.8,178.6l-2.2-0.4c0.2-0.9,0.7-1.6,1.3-2c0.6-0.4,1.5-0.6,2.7-0.6c1.1,0,1.9,0.1,2.4,0.4c0.5,0.3,0.9,0.6,1.1,1
					c0.2,0.4,0.3,1.1,0.3,2.2l0,2.8c0,0.8,0,1.4,0.1,1.8c0.1,0.4,0.2,0.8,0.4,1.2h-2.4c-0.1-0.2-0.1-0.4-0.2-0.7
					c0-0.1-0.1-0.2-0.1-0.3c-0.4,0.4-0.9,0.7-1.3,0.9c-0.5,0.2-1,0.3-1.5,0.3c-0.9,0-1.7-0.3-2.2-0.8s-0.8-1.2-0.8-2
					c0-0.5,0.1-1,0.4-1.4s0.6-0.7,1-0.9c0.4-0.2,1.1-0.4,1.9-0.6c1.1-0.2,1.9-0.4,2.4-0.6v-0.2c0-0.5-0.1-0.8-0.3-1
					c-0.2-0.2-0.7-0.3-1.3-0.3c-0.4,0-0.8,0.1-1,0.3S1168.9,178.2,1168.8,178.6z M1172.1,180.6c-0.3,0.1-0.8,0.2-1.5,0.4
					c-0.7,0.1-1.1,0.3-1.3,0.4c-0.3,0.2-0.5,0.5-0.5,0.9c0,0.3,0.1,0.6,0.4,0.9s0.6,0.4,1,0.4c0.4,0,0.9-0.1,1.3-0.4
					c0.3-0.2,0.5-0.5,0.6-0.8c0.1-0.2,0.1-0.6,0.1-1.2V180.6z"/>
				<path d="M1176.9,185v-12.7h2.4V185H1176.9z"/>
				<path d="M1181.8,185v-12.7h2.4V185H1181.8z"/>
			</g>
			<g class="st6">
				<path d="M1159.4,204.1v2.3h-8.6c0.1-0.9,0.4-1.7,0.8-2.4c0.5-0.8,1.4-1.8,2.7-3.1c1.1-1,1.8-1.7,2-2.1c0.3-0.5,0.5-1,0.5-1.5
					c0-0.5-0.1-1-0.4-1.3c-0.3-0.3-0.7-0.4-1.2-0.4c-0.5,0-0.9,0.2-1.2,0.5s-0.5,0.8-0.5,1.5l-2.4-0.2c0.1-1.3,0.6-2.3,1.4-2.9
					c0.8-0.6,1.7-0.9,2.9-0.9c1.3,0,2.2,0.3,3,1s1.1,1.5,1.1,2.5c0,0.6-0.1,1.1-0.3,1.6c-0.2,0.5-0.5,1.1-1,1.6
					c-0.3,0.4-0.8,0.9-1.6,1.6c-0.8,0.7-1.3,1.2-1.5,1.4c-0.2,0.2-0.4,0.5-0.5,0.7H1159.4z"/>
				<path d="M1165.1,193.6c1.2,0,2.2,0.4,2.9,1.3c0.8,1,1.2,2.8,1.2,5.2c0,2.4-0.4,4.1-1.3,5.2c-0.7,0.9-1.7,1.3-2.9,1.3
					c-1.2,0-2.2-0.5-3-1.4c-0.8-1-1.1-2.7-1.1-5.1c0-2.4,0.4-4.1,1.3-5.2C1162.9,194,1163.9,193.6,1165.1,193.6z M1165.1,195.6
					c-0.3,0-0.6,0.1-0.8,0.3c-0.2,0.2-0.4,0.5-0.5,1c-0.2,0.6-0.3,1.7-0.3,3.2s0.1,2.5,0.2,3.1s0.3,0.9,0.6,1.1
					c0.2,0.2,0.5,0.3,0.8,0.3c0.3,0,0.6-0.1,0.8-0.3s0.4-0.5,0.5-1c0.2-0.6,0.3-1.7,0.3-3.2s-0.1-2.5-0.2-3.1s-0.3-0.9-0.6-1.1
					C1165.7,195.7,1165.4,195.6,1165.1,195.6z"/>
				<path d="M1179.1,204.1v2.3h-8.6c0.1-0.9,0.4-1.7,0.8-2.4c0.5-0.8,1.4-1.8,2.7-3.1c1.1-1,1.8-1.7,2-2.1c0.3-0.5,0.5-1,0.5-1.5
					c0-0.5-0.1-1-0.4-1.3c-0.3-0.3-0.7-0.4-1.2-0.4c-0.5,0-0.9,0.2-1.2,0.5s-0.5,0.8-0.5,1.5l-2.4-0.2c0.1-1.3,0.6-2.3,1.4-2.9
					c0.8-0.6,1.7-0.9,2.9-0.9c1.3,0,2.2,0.3,3,1s1.1,1.5,1.1,2.5c0,0.6-0.1,1.1-0.3,1.6c-0.2,0.5-0.5,1.1-1,1.6
					c-0.3,0.4-0.8,0.9-1.6,1.6c-0.8,0.7-1.3,1.2-1.5,1.4c-0.2,0.2-0.4,0.5-0.5,0.7H1179.1z"/>
				<path d="M1185.6,206.4v-2.6h-5.2v-2.1l5.5-8.1h2v8.1h1.6v2.1h-1.6v2.6H1185.6z M1185.6,201.7v-4.4l-2.9,4.4H1185.6z"/>
			</g>
		</g>
	</g>
</g>
<g id="Layer_5">
	<g id="Outstanding-Winter-2021-white_1_">
		<g id="Group-4_3_">
			
				<g id="Group-2_5_" transform="translate(185.261977, 185.261977) rotate(-315.000000) translate(-185.261977, -185.261977) translate(54.261977, 54.261977)">
				
					<rect id="Rectangle_15_" x="-19.9" y="64.1" transform="matrix(5.070363e-06 1 -1 5.070363e-06 199.558 84.0195)" class="st18" width="155.3" height="155.3"/>
				
					<rect id="Rectangle_14_" x="-15.7" y="68.3" transform="matrix(5.070363e-06 1 -1 5.070363e-06 199.6579 84.0195)" class="st1" width="147" height="147"/>
				
					<rect id="Rectangle_13_" x="-11.1" y="73" transform="matrix(5.070363e-06 1 -1 5.070363e-06 199.5579 84.1195)" class="st19" width="137.6" height="137.6"/>
			</g>
			<polygon id="Fill-18-Copy-4_3_" class="st14" points="87.4,174.8 89.2,178.5 93.1,179.1 90.3,182 90.9,186.1 87.4,184.1 
				84,186.1 84.6,182 81.8,179.1 85.7,178.5 			"/>
			<polygon id="Fill-18-Copy-4_2_" class="st14" points="164.5,174.8 166.3,178.5 170.2,179.1 167.3,182 168,186.1 164.5,184.1 
				161,186.1 161.7,182 158.9,179.1 162.8,178.5 			"/>
			<g id="SF-logo-vector_2_" transform="translate(155.000000, 50.000000)">
				<path id="Rectangle_12_" class="st10" d="M-31.8,11h4.4c0.2,0,0.4,0.2,0.4,0.4v0.2c0,0.2-0.1,0.3-0.2,0.4L-41,26.8
					c-0.2,0.2-0.2,0.6,0,0.8l11,11.8c0.2,0.2,0.2,0.6,0,0.8l-2,2.2c-0.2,0.2-0.6,0.3-0.8,0l0,0l-13.8-14.9c-0.2-0.2-0.2-0.6,0-0.8
					L-32.1,11C-32.1,11-31.9,11-31.8,11z"/>
				<path id="Rectangle_11_" class="st10" d="M-26.3,45.3h-4.4c-0.2,0-0.4-0.2-0.4-0.4v-0.2c0-0.1,0.1-0.3,0.2-0.4L-17,29
					c0.2-0.2,0.2-0.6,0-0.8l-11-12.1c-0.2-0.2-0.2-0.6,0-0.8l2-2.2c0.2-0.2,0.6-0.3,0.8,0l0,0l13.8,15.1c0.2,0.2,0.2,0.6,0,0.8
					L-26,45C-26,45.3-26.1,45.3-26.3,45.3z"/>
				<path id="Oval_2_" class="st10" d="M-28.3,35.9c2.9,0,5.2-3.2,4.9-6.7c-0.1-1.5-1.1-4.3-1.4-3.8c-0.2,0.2,0.2,2.1,0.1,3.3
					c-0.2,1.9-0.9,3.1-1.3,2.4s-0.2-2-0.3-3.5c-0.1-1.5-0.4-3.1-0.7-4c-0.1-0.4-1.4-4-2.4-4.3c-0.1,0-0.1,0-0.1,0s-0.1,0-0.2,0.1
					c-0.2,0.2,0.1,1.4-0.8,2.9c-0.6,1-1.7,2.2-2.2,3.5c-0.7,1.7-0.9,3.3-0.8,4.2C-33.3,33.7-31.2,35.9-28.3,35.9z"/>
			</g>
			
				<linearGradient id="Rectangle_29_" gradientUnits="userSpaceOnUse" x1="2.1807" y1="-273.4992" x2="1.4652" y2="-273.4367" gradientTransform="matrix(309 0 0 73 -277 20101.1523)">
				<stop  offset="0" style="stop-color:#FFCB00"/>
				<stop  offset="1" style="stop-color:#F06A2B"/>
			</linearGradient>
			<polygon id="Rectangle_10_" class="st22" points="55.9,119.7 195.8,119.7 217.6,141.3 195.8,162.9 55.9,162.9 34.4,141.3 			"/>
			<g id="SourceForge-Logo-White-vector_2_" transform="translate(97.000000, 121.000000)">
				<path id="Fill-953_6_" class="st21" d="M-17.5-16.5c0,0.1-0.1,0.1-0.2,0.1s-0.1,0-0.2-0.2c-0.1-0.1-0.2-0.2-0.4-0.3
					c-0.2-0.1-0.4-0.2-0.7-0.3c-0.3-0.1-0.6-0.2-1-0.2s-0.7,0.1-1,0.2s-0.5,0.3-0.7,0.5s-0.3,0.4-0.5,0.7c-0.1,0.3-0.2,0.5-0.2,0.8
					c0,0.4,0.1,0.7,0.2,0.9s0.4,0.4,0.6,0.6c0.2,0.2,0.5,0.3,0.9,0.4c0.3,0.1,0.7,0.2,1,0.3s0.7,0.2,1,0.4c0.3,0.1,0.6,0.3,0.9,0.5
					s0.5,0.5,0.6,0.8s0.2,0.7,0.2,1.1c0,0.5-0.1,0.9-0.2,1.3c-0.1,0.4-0.4,0.8-0.7,1.1c-0.3,0.3-0.7,0.5-1.1,0.7s-0.9,0.3-1.4,0.3
					c-0.7,0-1.3-0.1-1.8-0.4s-0.9-0.6-1.3-1.1l0.2-0.3c0.1-0.1,0.1-0.1,0.2-0.1c0,0,0.1,0,0.2,0.1s0.2,0.1,0.2,0.2
					c0.1,0.1,0.2,0.2,0.4,0.3c0.1,0.1,0.3,0.2,0.5,0.3c0.2,0.1,0.4,0.2,0.6,0.2c0.2,0.1,0.5,0.1,0.8,0.1c0.4,0,0.8-0.1,1.1-0.2
					c0.3-0.1,0.6-0.3,0.8-0.5c0.2-0.2,0.4-0.5,0.5-0.8s0.2-0.7,0.2-1c0-0.4-0.1-0.7-0.2-1s-0.4-0.5-0.6-0.6
					c-0.2-0.2-0.5-0.3-0.9-0.4c-0.3-0.1-0.7-0.2-1-0.3s-0.7-0.2-1-0.4c-0.3-0.1-0.6-0.3-0.9-0.5c-0.2-0.2-0.5-0.5-0.6-0.8
					s-0.2-0.7-0.2-1.2c0-0.4,0.1-0.7,0.2-1.1c0.1-0.3,0.3-0.6,0.6-0.9c0.3-0.3,0.6-0.5,1-0.6s0.8-0.2,1.3-0.2c0.6,0,1,0.1,1.5,0.3
					c0.4,0.2,0.8,0.5,1.2,0.8L-17.5-16.5z"/>
				<path id="Fill-955_2_" class="st21" d="M-6.4-12.3c0-0.8-0.1-1.5-0.3-2.1c-0.2-0.6-0.5-1.1-0.9-1.5c-0.4-0.4-0.8-0.7-1.4-1
					c-0.5-0.2-1.1-0.3-1.8-0.3c-0.6,0-1.2,0.1-1.8,0.3c-0.5,0.2-1,0.5-1.4,1c-0.4,0.4-0.7,0.9-0.9,1.5s-0.3,1.3-0.3,2.1
					s0.1,1.5,0.3,2.1s0.5,1.1,0.9,1.5s0.8,0.7,1.4,1c0.5,0.2,1.1,0.3,1.8,0.3c0.6,0,1.2-0.1,1.8-0.3c0.5-0.2,1-0.6,1.4-1
					s0.7-0.9,0.9-1.5C-6.5-10.9-6.4-11.5-6.4-12.3 M-5.7-12.3c0,0.8-0.1,1.6-0.4,2.3c-0.2,0.7-0.6,1.3-1,1.8s-1,0.9-1.6,1.1
					c-0.6,0.3-1.3,0.4-2.1,0.4c-0.7,0-1.4-0.1-2-0.4s-1.1-0.6-1.6-1.1c-0.4-0.5-0.8-1.1-1-1.8s-0.4-1.5-0.4-2.3s0.1-1.6,0.4-2.3
					c0.2-0.7,0.6-1.3,1-1.8c0.5-0.5,1-0.9,1.6-1.1c0.6-0.3,1.3-0.4,2-0.4c0.8,0,1.4,0.1,2.1,0.4c0.6,0.3,1.1,0.6,1.6,1.1
					c0.4,0.5,0.8,1.1,1,1.8C-5.8-13.9-5.7-13.2-5.7-12.3"/>
				<path id="Fill-957_6_" class="st21" d="M-0.1-7.4c0.5,0,0.9-0.1,1.3-0.3c0.4-0.2,0.7-0.5,1-0.8c0.3-0.3,0.5-0.7,0.6-1.2
					S3-10.6,3-11.2v-6.9h0.7v6.9c0,0.6-0.1,1.2-0.3,1.7C3.3-8.8,3.1-8.4,2.7-8C2.4-7.6,2-7.2,1.5-7s-1,0.3-1.6,0.3S-1.2-6.8-1.7-7
					c-0.4-0.3-0.9-0.6-1.2-1c-0.3-0.4-0.6-0.9-0.8-1.4S-4-10.5-4-11.1V-18h0.7v6.9c0,0.5,0.1,1,0.2,1.5C-3-9.1-2.7-8.8-2.5-8.4
					c0.3,0.3,0.6,0.6,1,0.8C-1-7.5-0.5-7.4-0.1-7.4"/>
				<path id="Fill-959_6_" class="st21" d="M9-12.7h0.2h0.5c0.5,0,1-0.1,1.4-0.2c0.4-0.1,0.8-0.3,1.1-0.5s0.5-0.5,0.7-0.8
					s0.2-0.6,0.2-1c0-0.8-0.3-1.3-0.8-1.7c-0.6-0.4-1.4-0.6-2.5-0.6H7.6v4.7v0.6v4.8H6.7v-10.7h3.1c1.4,0,2.4,0.2,3.1,0.7
					c0.7,0.5,1,1.2,1,2.1c0,0.4-0.1,0.8-0.2,1.1c-0.2,0.3-0.4,0.6-0.7,0.9c-0.3,0.2-0.6,0.5-1.1,0.6c-0.4,0.2-0.9,0.3-1.4,0.3
					c0.1,0.1,0.3,0.2,0.4,0.3L15-7.3h-0.8c-0.1,0-0.2,0-0.2,0c-0.1,0-0.1-0.1-0.2-0.1L10-11.8C9.9-11.9,9.8-12,9.7-12
					s-0.8-0.1-1-0.1C8.7-12.6,8.8-12.7,9-12.7"/>
				<path id="Fill-961_6_" class="st21" d="M22.3-8.7c0,0,0.1,0,0.1,0.1l0.3,0.3c-0.2,0.2-0.4,0.5-0.7,0.7c-0.3,0.2-0.5,0.4-0.8,0.5
					C21-7,20.6-6.9,20.3-6.8c-0.3,0.1-0.7,0.1-1.1,0.1c-0.7,0-1.3-0.1-1.9-0.4s-1.1-0.6-1.5-1.1s-0.7-1.1-1-1.8
					c-0.2-0.7-0.3-1.5-0.3-2.3s0.1-1.6,0.4-2.3c0.2-0.7,0.6-1.3,1-1.8c0.4-0.5,0.9-0.9,1.5-1.1c0.6-0.3,1.3-0.4,2-0.4
					c0.4,0,0.7,0,1,0.1s0.6,0.1,0.9,0.3c0.3,0.1,0.5,0.3,0.7,0.4c0.2,0.2,0.5,0.4,0.7,0.6l-0.2,0.3c0,0.1-0.1,0.1-0.2,0.1
					c0,0-0.1,0-0.2-0.1s-0.2-0.1-0.3-0.2c-0.1-0.1-0.2-0.2-0.4-0.3c-0.1-0.1-0.3-0.2-0.5-0.3c-0.2-0.1-0.4-0.1-0.7-0.2
					c-0.3-0.1-0.6-0.1-0.9-0.1c-0.6,0-1.2,0.1-1.7,0.3c-0.5,0.2-0.9,0.6-1.3,1s-0.7,1-0.9,1.5c-0.2,0.6-0.3,1.3-0.3,2.1
					s0.1,1.5,0.3,2.1s0.5,1.1,0.9,1.5s0.8,0.7,1.3,1c0.5,0.2,1,0.3,1.6,0.3c0.4,0,0.7,0,1-0.1c0.3,0,0.5-0.1,0.8-0.2
					c0.2-0.1,0.5-0.2,0.7-0.4S22.1-8.5,22.3-8.7C22.2-8.7,22.3-8.7,22.3-8.7C22.3-8.6,22.3-8.7,22.3-8.7"/>
				<polygon id="Fill-963_6_" class="st21" points="31.6,-17.9 31.6,-17.3 25.4,-17.3 25.4,-13 30.6,-13 30.6,-12.4 25.4,-12.4 
					25.4,-7.9 31.6,-7.9 31.6,-7.3 24.5,-7.3 24.5,-17.9 				"/>
				<polygon id="Fill-965_6_" class="st9" points="40.5,-17.9 40.5,-16.3 35.1,-16.3 35.1,-12.9 39.7,-12.9 39.7,-11.3 35.1,-11.3 
					35.1,-6.7 32.8,-6.7 32.8,-17.9 				"/>
				<path id="Fill-966_6_" class="st9" d="M50.3-12.3c0-0.6-0.1-1.1-0.3-1.6s-0.4-0.9-0.7-1.2s-0.7-0.6-1.1-0.8
					c-0.4-0.2-0.9-0.3-1.5-0.3c-0.5,0-1,0.1-1.5,0.3c-0.4,0.2-0.8,0.4-1.1,0.8c-0.3,0.3-0.5,0.7-0.7,1.2s-0.3,1-0.3,1.6
					s0.1,1.1,0.3,1.6s0.4,0.9,0.7,1.2s0.7,0.6,1.1,0.8c0.4,0.2,0.9,0.3,1.5,0.3c0.5,0,1-0.1,1.5-0.3c0.4-0.2,0.8-0.4,1.1-0.8
					c0.3-0.3,0.5-0.7,0.7-1.2S50.3-11.7,50.3-12.3 M52.4-12.3c0,0.8-0.1,1.6-0.4,2.2c-0.3,0.7-0.6,1.3-1.2,1.8
					c-0.5,0.5-1.1,0.9-1.8,1.2c-0.7,0.3-1.5,0.4-2.3,0.4s-1.6-0.1-2.3-0.4s-1.3-0.7-1.8-1.2s-0.9-1.1-1.2-1.8S41-11.5,41-12.3
					s0.1-1.6,0.4-2.2c0.3-0.7,0.6-1.3,1.2-1.8c0.5-0.5,1.1-0.9,1.8-1.2c0.7-0.3,1.5-0.4,2.3-0.4s1.6,0.1,2.3,0.4s1.3,0.7,1.8,1.2
					s0.9,1.1,1.2,1.8C52.3-13.9,52.4-13.1,52.4-12.3"/>
				<path id="Fill-967_6_" class="st9" d="M56.2-12.6h0.4c0.4,0,0.7,0,0.9-0.1c0.3-0.1,0.5-0.2,0.6-0.4c0.2-0.2,0.3-0.4,0.4-0.6
					c0.1-0.2,0.1-0.5,0.1-0.8c0-0.6-0.2-1-0.5-1.3c-0.3-0.3-0.8-0.5-1.5-0.5h-1.2v3.7v1.5v4.4h-1.8V-18h3c0.7,0,1.3,0.1,1.7,0.2
					c0.5,0.1,0.9,0.4,1.2,0.7c0.3,0.3,0.5,0.6,0.7,1c0.1,0.4,0.2,0.8,0.2,1.3c0,0.4-0.1,0.7-0.2,1.1c-0.1,0.3-0.2,0.6-0.4,0.9
					c-0.2,0.3-0.4,0.5-0.7,0.7s-0.6,0.4-0.9,0.5c0.2,0.1,0.4,0.4,0.6,0.6l2.5,4.2h-1.7c-0.2,0-0.3,0-0.4-0.1c-0.1,0-0.2-0.1-0.3-0.2
					l-2.1-3.6c-0.1-0.1-0.2-0.3-0.3-0.3h-0.7v-1.4C56-12.6,56.2-12.6,56.2-12.6"/>
				<path id="Fill-968_6_" class="st9" d="M67.8-8.3c0.5,0,0.9,0,1.2-0.1c0.3-0.1,0.7-0.2,1-0.4v-2.5h-1.4c-0.1,0-0.2,0-0.3-0.1
					c-0.1-0.1-0.1-0.2-0.1-0.3v-1.2H72V-8c-0.3,0.2-0.6,0.4-0.9,0.5s-0.6,0.3-1,0.4S69.4-6.9,69-6.9s-0.8,0.1-1.3,0.1
					c-0.8,0-1.6-0.1-2.3-0.4c-0.7-0.3-1.3-0.7-1.8-1.2c-0.6-0.4-1-1-1.3-1.6c-0.3-0.7-0.4-1.5-0.4-2.3s0.1-1.6,0.4-2.3
					c0.3-0.7,0.7-1.3,1.2-1.8c0.5-0.5,1.1-0.9,1.9-1.2c0.7-0.3,1.5-0.4,2.4-0.4s1.7,0.1,2.4,0.4c0.7,0.3,1.2,0.6,1.7,1l-0.6,0.9
					c-0.1,0.2-0.3,0.3-0.5,0.3c-0.1,0-0.3,0-0.4-0.1c-0.2-0.1-0.3-0.2-0.5-0.3S69.5-16,69.3-16c-0.2-0.1-0.5-0.1-0.7-0.2
					c-0.3,0-0.6-0.1-0.9-0.1c-0.6,0-1.1,0.1-1.5,0.3c-0.5,0.2-0.8,0.4-1.2,0.8c-0.3,0.3-0.6,0.7-0.7,1.2c-0.2,0.5-0.3,1-0.3,1.6
					s0.1,1.2,0.3,1.7c0.2,0.5,0.5,0.9,0.8,1.2s0.7,0.6,1.2,0.8C66.7-8.4,67.3-8.3,67.8-8.3"/>
				<path id="Fill-969_6_" class="st9" d="M79.2-11.2h-3.7v2.8h5.4v1.7h-7.7V-18h7.7v1.7h-5.4v3.5h4.3v1.2
					C79.7-11.6,79.7-11.2,79.2-11.2"/>
			</g>
			<g class="st6">
				<path d="M51.4,149.3v-13.8h-4.9v-2.8h13.2v2.8h-4.9v13.8H51.4z"/>
				<path d="M59.4,143.1c0-1.1,0.3-2.1,0.8-3.1c0.5-1,1.3-1.7,2.2-2.3c1-0.5,2-0.8,3.2-0.8c1.8,0,3.3,0.6,4.5,1.8
					c1.2,1.2,1.7,2.7,1.7,4.5c0,1.8-0.6,3.3-1.8,4.5s-2.6,1.8-4.4,1.8c-1.1,0-2.1-0.2-3.1-0.7c-1-0.5-1.8-1.2-2.3-2.2
					C59.6,145.7,59.4,144.5,59.4,143.1z M62.6,143.3c0,1.2,0.3,2.1,0.8,2.7c0.6,0.6,1.3,0.9,2.1,0.9s1.5-0.3,2.1-0.9
					c0.6-0.6,0.8-1.6,0.8-2.8c0-1.2-0.3-2.1-0.8-2.7c-0.6-0.6-1.3-0.9-2.1-0.9s-1.5,0.3-2.1,0.9C62.9,141.2,62.6,142.1,62.6,143.3z"
					/>
				<path d="M74.1,137.3h3v1.8c0.4-0.6,0.9-1.1,1.6-1.5c0.7-0.4,1.4-0.6,2.2-0.6c1.4,0,2.6,0.5,3.5,1.6c1,1.1,1.5,2.6,1.5,4.6
					c0,2-0.5,3.6-1.5,4.7s-2.2,1.7-3.6,1.7c-0.7,0-1.3-0.1-1.8-0.4s-1.1-0.7-1.7-1.4v6h-3.2V137.3z M77.3,143.1c0,1.3,0.3,2.3,0.8,3
					c0.5,0.6,1.2,1,2,1c0.7,0,1.4-0.3,1.8-0.9s0.7-1.6,0.7-2.9c0-1.3-0.3-2.2-0.8-2.8c-0.5-0.6-1.1-0.9-1.9-0.9
					c-0.8,0-1.4,0.3-1.9,0.9C77.5,141,77.3,141.9,77.3,143.1z"/>
				<path d="M94.8,149.3v-16.6h5.4c2,0,3.4,0.1,4,0.2c0.9,0.2,1.7,0.8,2.4,1.6c0.6,0.8,1,1.9,1,3.2c0,1-0.2,1.9-0.6,2.6
					c-0.4,0.7-0.8,1.2-1.4,1.6s-1.1,0.7-1.7,0.8c-0.8,0.2-2,0.2-3.5,0.2h-2.2v6.2H94.8z M98.1,135.5v4.7h1.8c1.3,0,2.2-0.1,2.6-0.3
					c0.4-0.2,0.8-0.4,1-0.8c0.3-0.4,0.4-0.8,0.4-1.3c0-0.6-0.2-1.1-0.5-1.5c-0.4-0.4-0.8-0.6-1.3-0.7c-0.4-0.1-1.2-0.1-2.4-0.1H98.1
					z"/>
				<path d="M117.1,145.5l3.2,0.5c-0.4,1.2-1,2-1.9,2.6c-0.9,0.6-2,0.9-3.3,0.9c-2.1,0-3.6-0.7-4.6-2c-0.8-1.1-1.2-2.5-1.2-4.1
					c0-2,0.5-3.5,1.6-4.7c1-1.1,2.4-1.7,3.9-1.7c1.8,0,3.2,0.6,4.2,1.8c1,1.2,1.5,3,1.5,5.4h-7.9c0,0.9,0.3,1.7,0.8,2.2
					s1.1,0.8,1.8,0.8c0.5,0,0.9-0.1,1.3-0.4C116.7,146.5,117,146.1,117.1,145.5z M117.3,142.3c0-0.9-0.3-1.6-0.7-2.1
					c-0.5-0.5-1-0.7-1.6-0.7c-0.7,0-1.3,0.3-1.7,0.8c-0.5,0.5-0.7,1.2-0.7,2.1H117.3z"/>
				<path d="M126.1,149.3h-3.2v-12h2.9v1.7c0.5-0.8,1-1.3,1.4-1.6c0.4-0.3,0.9-0.4,1.4-0.4c0.7,0,1.4,0.2,2.1,0.6l-1,2.8
					c-0.5-0.3-1-0.5-1.5-0.5c-0.4,0-0.8,0.1-1.1,0.4c-0.3,0.2-0.6,0.7-0.7,1.3c-0.2,0.6-0.3,2-0.3,4V149.3z"/>
				<path d="M130.7,137.3h1.8v-0.9c0-1,0.1-1.8,0.3-2.3c0.2-0.5,0.6-0.9,1.2-1.2c0.6-0.3,1.3-0.5,2.2-0.5c0.9,0,1.8,0.1,2.7,0.4
					l-0.4,2.2c-0.5-0.1-1-0.2-1.5-0.2c-0.5,0-0.8,0.1-1,0.3c-0.2,0.2-0.3,0.6-0.3,1.2v0.8h2.4v2.5h-2.4v9.5h-3.2v-9.5h-1.8V137.3z"
					/>
				<path d="M139,143.1c0-1.1,0.3-2.1,0.8-3.1c0.5-1,1.3-1.7,2.2-2.3c1-0.5,2-0.8,3.2-0.8c1.8,0,3.3,0.6,4.5,1.8
					c1.2,1.2,1.7,2.7,1.7,4.5c0,1.8-0.6,3.3-1.8,4.5s-2.6,1.8-4.4,1.8c-1.1,0-2.1-0.2-3.1-0.7c-1-0.5-1.8-1.2-2.3-2.2
					C139.3,145.7,139,144.5,139,143.1z M142.3,143.3c0,1.2,0.3,2.1,0.8,2.7c0.6,0.6,1.3,0.9,2.1,0.9s1.5-0.3,2.1-0.9
					c0.6-0.6,0.8-1.6,0.8-2.8c0-1.2-0.3-2.1-0.8-2.7c-0.6-0.6-1.3-0.9-2.1-0.9s-1.5,0.3-2.1,0.9
					C142.5,141.2,142.3,142.1,142.3,143.3z"/>
				<path d="M156.9,149.3h-3.2v-12h2.9v1.7c0.5-0.8,1-1.3,1.4-1.6c0.4-0.3,0.9-0.4,1.4-0.4c0.7,0,1.4,0.2,2.1,0.6l-1,2.8
					c-0.5-0.3-1-0.5-1.5-0.5c-0.4,0-0.8,0.1-1.1,0.4c-0.3,0.2-0.6,0.7-0.7,1.3c-0.2,0.6-0.3,2-0.3,4V149.3z"/>
				<path d="M162.6,137.3h2.9v1.6c1-1.3,2.3-1.9,3.7-1.9c0.8,0,1.4,0.2,2,0.5c0.6,0.3,1,0.8,1.4,1.4c0.5-0.6,1.1-1.1,1.7-1.4
					c0.6-0.3,1.3-0.5,2-0.5c0.9,0,1.6,0.2,2.2,0.5c0.6,0.4,1.1,0.9,1.4,1.6c0.2,0.5,0.3,1.3,0.3,2.5v7.7h-3.2v-6.9
					c0-1.2-0.1-2-0.3-2.3c-0.3-0.5-0.7-0.7-1.4-0.7c-0.4,0-0.9,0.1-1.3,0.4c-0.4,0.3-0.7,0.7-0.8,1.2c-0.2,0.5-0.3,1.3-0.3,2.5v5.8
					h-3.2v-6.6c0-1.2-0.1-1.9-0.2-2.3c-0.1-0.3-0.3-0.6-0.5-0.8c-0.2-0.2-0.6-0.2-1-0.2c-0.5,0-0.9,0.1-1.3,0.4
					c-0.4,0.3-0.7,0.6-0.8,1.1c-0.2,0.5-0.3,1.3-0.3,2.5v5.8h-3.2V137.3z"/>
				<path d="M190.4,145.5l3.2,0.5c-0.4,1.2-1,2-1.9,2.6c-0.9,0.6-2,0.9-3.3,0.9c-2.1,0-3.6-0.7-4.6-2c-0.8-1.1-1.2-2.5-1.2-4.1
					c0-2,0.5-3.5,1.6-4.7c1-1.1,2.4-1.7,3.9-1.7c1.8,0,3.2,0.6,4.2,1.8c1,1.2,1.5,3,1.5,5.4h-7.9c0,0.9,0.3,1.7,0.8,2.2
					s1.1,0.8,1.8,0.8c0.5,0,0.9-0.1,1.3-0.4C189.9,146.5,190.2,146.1,190.4,145.5z M190.6,142.3c0-0.9-0.3-1.6-0.7-2.1
					c-0.5-0.5-1-0.7-1.6-0.7c-0.7,0-1.3,0.3-1.7,0.8c-0.5,0.5-0.7,1.2-0.7,2.1H190.6z"/>
				<path d="M199.3,149.3h-3.2v-12h2.9v1.7c0.5-0.8,1-1.3,1.4-1.6c0.4-0.3,0.9-0.4,1.4-0.4c0.7,0,1.4,0.2,2.1,0.6l-1,2.8
					c-0.5-0.3-1-0.5-1.5-0.5c-0.4,0-0.8,0.1-1.1,0.4c-0.3,0.2-0.6,0.7-0.7,1.3c-0.2,0.6-0.3,2-0.3,4V149.3z"/>
			</g>
			<g class="st6">
				<path d="M102,184.9l-3-12.7h2.6l1.9,8.7l2.3-8.7h3.1l2.2,8.9l2-8.9h2.6l-3.1,12.7h-2.7l-2.5-9.5l-2.5,9.5H102z"/>
				<path d="M116.8,174.4v-2.3h2.4v2.3H116.8z M116.8,184.9v-9.2h2.4v9.2H116.8z"/>
				<path d="M130.2,184.9h-2.4v-4.7c0-1-0.1-1.6-0.2-1.9c-0.1-0.3-0.3-0.5-0.5-0.7c-0.2-0.2-0.5-0.2-0.8-0.2c-0.4,0-0.8,0.1-1.1,0.3
					c-0.3,0.2-0.6,0.5-0.7,0.9s-0.2,1.1-0.2,2.1v4.2h-2.4v-9.2h2.3v1.4c0.8-1,1.8-1.6,3-1.6c0.5,0,1,0.1,1.5,0.3
					c0.4,0.2,0.8,0.4,1,0.7c0.2,0.3,0.4,0.6,0.5,1c0.1,0.4,0.1,0.9,0.1,1.6V184.9z"/>
				<path d="M136.9,175.6v1.9h-1.7v3.7c0,0.8,0,1.2,0,1.3c0,0.1,0.1,0.2,0.2,0.3c0.1,0.1,0.3,0.1,0.4,0.1c0.2,0,0.6-0.1,1-0.2
					l0.2,1.9c-0.6,0.2-1.2,0.4-1.9,0.4c-0.4,0-0.8-0.1-1.2-0.2c-0.4-0.1-0.6-0.3-0.8-0.6s-0.3-0.6-0.3-1c-0.1-0.3-0.1-0.9-0.1-1.7
					v-4h-1.1v-1.9h1.1v-1.8l2.4-1.4v3.3H136.9z"/>
				<path d="M143.9,181.9l2.4,0.4c-0.3,0.9-0.8,1.6-1.5,2c-0.7,0.5-1.5,0.7-2.5,0.7c-1.6,0-2.8-0.5-3.6-1.6
					c-0.6-0.8-0.9-1.9-0.9-3.2c0-1.5,0.4-2.7,1.2-3.6c0.8-0.9,1.8-1.3,3-1.3c1.4,0,2.5,0.5,3.2,1.4s1.2,2.3,1.1,4.2h-6.1
					c0,0.7,0.2,1.3,0.6,1.7c0.4,0.4,0.8,0.6,1.4,0.6c0.4,0,0.7-0.1,1-0.3C143.6,182.7,143.8,182.4,143.9,181.9z M144,179.5
					c0-0.7-0.2-1.2-0.5-1.6c-0.3-0.4-0.8-0.6-1.3-0.6c-0.5,0-1,0.2-1.3,0.6c-0.3,0.4-0.5,0.9-0.5,1.6H144z"/>
				<path d="M150.8,184.9h-2.4v-9.2h2.3v1.3c0.4-0.6,0.7-1,1-1.2c0.3-0.2,0.7-0.3,1.1-0.3c0.6,0,1.1,0.2,1.6,0.5l-0.8,2.1
					c-0.4-0.3-0.8-0.4-1.1-0.4c-0.3,0-0.6,0.1-0.9,0.3c-0.2,0.2-0.4,0.5-0.6,1c-0.1,0.5-0.2,1.5-0.2,3.1V184.9z"/>
			</g>
			<g class="st6">
				<path d="M115.4,204v2.3h-8.6c0.1-0.9,0.4-1.7,0.8-2.4c0.5-0.8,1.4-1.8,2.7-3.1c1.1-1,1.8-1.7,2-2.1c0.3-0.5,0.5-1,0.5-1.5
					c0-0.5-0.1-1-0.4-1.3c-0.3-0.3-0.7-0.4-1.2-0.4c-0.5,0-0.9,0.2-1.2,0.5c-0.3,0.3-0.5,0.8-0.5,1.5l-2.4-0.2
					c0.1-1.3,0.6-2.3,1.4-2.9c0.8-0.6,1.7-0.9,2.9-0.9c1.3,0,2.2,0.3,3,1s1.1,1.5,1.1,2.5c0,0.6-0.1,1.1-0.3,1.6
					c-0.2,0.5-0.5,1.1-1,1.6c-0.3,0.4-0.8,0.9-1.6,1.6c-0.8,0.7-1.3,1.2-1.5,1.4s-0.4,0.5-0.5,0.7H115.4z"/>
				<path d="M121.2,193.4c1.2,0,2.2,0.4,2.9,1.3c0.8,1,1.2,2.8,1.2,5.2c0,2.4-0.4,4.1-1.3,5.2c-0.7,0.9-1.7,1.3-2.9,1.3
					c-1.2,0-2.2-0.5-3-1.4c-0.8-1-1.1-2.7-1.1-5.1c0-2.4,0.4-4.1,1.3-5.2C119,193.9,120,193.4,121.2,193.4z M121.2,195.5
					c-0.3,0-0.6,0.1-0.8,0.3c-0.2,0.2-0.4,0.5-0.5,1c-0.2,0.6-0.3,1.7-0.3,3.2s0.1,2.5,0.2,3.1c0.2,0.6,0.3,0.9,0.6,1.1
					c0.2,0.2,0.5,0.3,0.8,0.3c0.3,0,0.6-0.1,0.8-0.3s0.4-0.5,0.5-1c0.2-0.6,0.3-1.7,0.3-3.2s-0.1-2.5-0.2-3.1
					c-0.2-0.6-0.3-0.9-0.6-1.1C121.8,195.6,121.5,195.5,121.2,195.5z"/>
				<path d="M135.2,204v2.3h-8.6c0.1-0.9,0.4-1.7,0.8-2.4c0.5-0.8,1.4-1.8,2.7-3.1c1.1-1,1.8-1.7,2-2.1c0.3-0.5,0.5-1,0.5-1.5
					c0-0.5-0.1-1-0.4-1.3c-0.3-0.3-0.7-0.4-1.2-0.4c-0.5,0-0.9,0.2-1.2,0.5c-0.3,0.3-0.5,0.8-0.5,1.5l-2.4-0.2
					c0.1-1.3,0.6-2.3,1.4-2.9c0.8-0.6,1.7-0.9,2.9-0.9c1.3,0,2.2,0.3,3,1s1.1,1.5,1.1,2.5c0,0.6-0.1,1.1-0.3,1.6
					c-0.2,0.5-0.5,1.1-1,1.6c-0.3,0.4-0.8,0.9-1.6,1.6c-0.8,0.7-1.3,1.2-1.5,1.4s-0.4,0.5-0.5,0.7H135.2z"/>
				<path d="M136.9,202.9l2.4-0.3c0.1,0.6,0.3,1,0.6,1.3s0.7,0.5,1.2,0.5c0.5,0,0.9-0.2,1.3-0.6c0.4-0.4,0.5-1,0.5-1.9
					c0-0.8-0.2-1.4-0.5-1.8c-0.4-0.4-0.8-0.6-1.4-0.6c-0.7,0-1.3,0.3-1.9,0.9l-2-0.3l1.3-6.6h6.5v2.3h-4.6l-0.4,2.2
					c0.5-0.3,1.1-0.4,1.7-0.4c1.1,0,2,0.4,2.8,1.2c0.8,0.8,1.1,1.8,1.1,3.1c0,1-0.3,2-0.9,2.8c-0.8,1.1-2,1.7-3.4,1.7
					c-1.2,0-2.1-0.3-2.9-0.9S137.1,204,136.9,202.9z"/>
			</g>
		</g>
	</g>
</g>
<g id="Layer_2">
	<g id="Trusted-Vendor-SF">
		<g id="Group-2">
			<polygon id="Path-4" class="st23" points="576.2,97.1 832.6,97.1 817.9,141.7 832.6,189.7 551.6,189.7 571.9,144.7 571.9,105.1 
							"/>
			<path id="Path-2" class="st24" d="M531.6,76.1l45.3,13.1c2.3,0.7,3.9,2.8,3.9,5.2v51.2c0,4.3-0.6,8.6-1.7,12.8l-1.7,6.4
				c-1.1,4.1-2.8,8.1-5.1,11.7l-0.5,0.8c-1.9,3.1-4.3,5.8-6.9,8.3l-10.9,9.9c-3.4,3.1-7.2,5.7-11.2,7.7l-15.8,7.9
				c-1.5,0.8-3.3,0.8-4.9,0l-18.1-9c-2.8-1.4-5.4-3.1-7.7-5.2L483.5,186c-3-2.6-5.6-5.7-7.7-9.1l-0.9-1.5c-1.7-2.8-3-5.9-3.9-9.1
				l-2-7.6c-1.1-4.3-1.7-8.8-1.6-13.3l1-51.1c0-2.4,1.6-4.5,3.9-5.1l45-13.1C522,74.7,527,74.7,531.6,76.1z"/>
			<path id="TRUSTEDVENDOR" class="st17" d="M602.3,138.2v-19.1h3.6v-4.8h-13.5v4.8h3.6v19.1H602.3z M614.1,138.2v-11
				c0.2-0.1,0.5-0.1,0.7-0.1c0.6,0,1.1,0.2,1.3,0.6c0.2,0.4,0.3,0.9,0.3,1.5l0,0v9.1h5.8v-8.4c0-1.3-0.3-2.4-0.9-3.1
				c-0.6-0.7-1.6-1.1-3-1.2l0,0v-0.1c1.3-0.1,2.2-0.5,2.8-1.2c0.5-0.7,0.8-1.7,0.8-3l0,0v-2.1c0-1.2-0.2-2.1-0.5-2.7
				c-0.4-0.6-0.8-1.1-1.5-1.4c-0.6-0.3-1.4-0.5-2.2-0.6c-0.9-0.1-1.8-0.1-2.8-0.1l0,0h-6.8v23.9H614.1z M614.6,123.4h-0.5v-5.3h0.5
				c0.2,0,0.4,0,0.6,0.1c0.2,0,0.4,0.1,0.6,0.3c0.2,0.1,0.3,0.3,0.4,0.5c0.1,0.2,0.2,0.5,0.2,0.8l0,0v2c0,0.3-0.1,0.6-0.2,0.8
				s-0.3,0.4-0.4,0.5c-0.2,0.1-0.4,0.2-0.6,0.3C615,123.4,614.8,123.4,614.6,123.4L614.6,123.4z M632.5,138.7c1.4,0,2.6-0.2,3.5-0.5
				c0.9-0.4,1.7-0.9,2.2-1.5c0.6-0.6,1-1.4,1.2-2.2s0.4-1.8,0.4-2.8l0,0v-17.3h-6.2v18.2c0,0.7-0.1,1.2-0.3,1.5
				c-0.2,0.3-0.5,0.4-0.9,0.4c-0.4,0-0.7-0.1-0.9-0.4c-0.2-0.3-0.3-0.8-0.3-1.5l0,0v-18.2h-6.2v17.3c0,1,0.1,1.9,0.4,2.8
				s0.6,1.6,1.2,2.2c0.6,0.6,1.3,1.1,2.2,1.5C629.9,138.5,631.1,138.7,632.5,138.7z M649.2,138.7c1.1,0,2-0.1,2.9-0.3
				c0.9-0.2,1.6-0.5,2.3-1s1.1-1.1,1.5-1.9c0.3-0.8,0.5-1.8,0.5-3l0,0v-1.9c0-1.2-0.2-2.1-0.6-3c-0.4-0.8-0.9-1.5-1.5-2.1
				c-0.6-0.6-1.3-1.1-2-1.5c-0.7-0.4-1.4-0.8-2-1.2c-0.6-0.4-1.1-0.8-1.5-1.2c-0.4-0.4-0.6-0.9-0.6-1.5l0,0v-1c0-0.6,0.1-1,0.3-1.2
				c0.2-0.2,0.4-0.3,0.8-0.3c0.1,0,0.3,0,0.4,0.1c0.1,0,0.3,0.1,0.4,0.2c0.1,0.1,0.2,0.3,0.3,0.5s0.1,0.5,0.1,0.9l0,0v2h5.5v-2.2
				c0-0.6-0.1-1.3-0.3-1.9c-0.2-0.6-0.5-1.2-1-1.7s-1.2-0.9-2.1-1.2s-2.1-0.5-3.5-0.5c-1,0-2,0.1-2.8,0.3c-0.8,0.2-1.5,0.6-2.1,1
				c-0.6,0.5-1,1.1-1.4,1.8s-0.5,1.7-0.5,2.8l0,0v1.3c0,1.1,0.2,2.1,0.6,2.9c0.4,0.8,0.9,1.4,1.5,2c0.6,0.5,1.2,1,1.9,1.4
				s1.3,0.8,1.9,1.2c0.6,0.4,1.1,0.9,1.5,1.4c0.4,0.5,0.6,1.1,0.6,1.8l0,0v1c0,0.2,0,0.5,0,0.7c0,0.2-0.1,0.5-0.1,0.7
				c-0.1,0.2-0.2,0.4-0.4,0.5c-0.2,0.1-0.4,0.2-0.6,0.2c-0.4,0-0.7-0.2-0.9-0.5c-0.1-0.3-0.2-0.7-0.2-1.1l0,0v-3.8h-5.8v3
				c0,0.8,0.1,1.7,0.2,2.4c0.1,0.8,0.5,1.4,0.9,2c0.5,0.6,1.1,1,2,1.3C646.6,138.5,647.8,138.7,649.2,138.7z M668.2,138.2v-19.1h3.6
				v-4.8h-13.5v4.8h3.6v19.1H668.2z M684.9,138.2v-4.8h-4.6v-5.3h4v-4.6h-4v-4.4h4.2v-4.8h-10.4v23.9H684.9z M696.6,138.2
				c0.7,0,1.3-0.1,2-0.2s1.2-0.4,1.8-0.7c0.5-0.3,0.9-0.8,1.2-1.4c0.3-0.6,0.5-1.3,0.5-2.2l0,0v-13.2c0-1.3-0.2-2.4-0.5-3.2
				c-0.3-0.8-0.8-1.4-1.4-1.9c-0.6-0.4-1.3-0.7-2.2-0.9c-0.8-0.1-1.8-0.2-2.8-0.2l0,0h-7.8v23.9H696.6z M694.5,134.2h-0.9v-15.9h0.9
				c0.4,0,0.8,0.2,1.1,0.6c0.3,0.4,0.4,0.8,0.4,1.4l0,0v11.9c0,0.6-0.1,1.1-0.4,1.4C695.3,134,695,134.2,694.5,134.2L694.5,134.2z
				 M722.5,138.2l3.2-23.9H720l-1.6,19.3h-0.1l-1.4-19.3h-6.2l3,23.9H722.5z M739,138.2v-4.8h-4.6v-5.3h4v-4.6h-4v-4.4h4.2v-4.8
				h-10.4v23.9H739z M746.7,138.2v-13.4h0.1l3.5,13.4h5.2v-23.9h-5.2v11.9h-0.1l-3.5-11.9h-5.2v23.9H746.7z M767.7,138.2
				c0.7,0,1.3-0.1,2-0.2c0.7-0.1,1.2-0.4,1.8-0.7c0.5-0.3,0.9-0.8,1.2-1.4c0.3-0.6,0.5-1.3,0.5-2.2l0,0v-13.2c0-1.3-0.2-2.4-0.5-3.2
				c-0.3-0.8-0.8-1.4-1.4-1.9c-0.6-0.4-1.3-0.7-2.2-0.9s-1.8-0.2-2.8-0.2l0,0h-7.8v23.9H767.7z M765.5,134.2h-0.9v-15.9h0.9
				c0.4,0,0.8,0.2,1.1,0.6c0.3,0.4,0.4,0.8,0.4,1.4l0,0v11.9c0,0.6-0.1,1.1-0.4,1.4S766,134.2,765.5,134.2L765.5,134.2z
				 M783.4,138.7c1.5,0,2.8-0.2,3.7-0.6c1-0.4,1.7-1,2.2-1.7c0.5-0.7,0.9-1.5,1.1-2.4c0.2-0.9,0.3-1.8,0.3-2.7l0,0v-10.1
				c0-0.9-0.1-1.9-0.3-2.7c-0.2-0.9-0.5-1.7-1.1-2.4s-1.3-1.2-2.2-1.7c-1-0.4-2.2-0.6-3.7-0.6s-2.8,0.2-3.7,0.6
				c-1,0.4-1.7,1-2.2,1.7s-0.9,1.5-1.1,2.4c-0.2,0.9-0.3,1.8-0.3,2.7l0,0v10.1c0,0.9,0.1,1.9,0.3,2.7c0.2,0.9,0.5,1.7,1.1,2.4
				c0.5,0.7,1.3,1.2,2.2,1.7S781.9,138.7,783.4,138.7z M783.4,134.7c-0.5,0-0.8-0.2-0.9-0.5c-0.2-0.3-0.2-0.7-0.2-1.1l0,0v-13.7
				c0-0.4,0.1-0.8,0.2-1.1c0.2-0.3,0.5-0.5,0.9-0.5s0.8,0.2,0.9,0.5c0.2,0.3,0.2,0.7,0.2,1.1l0,0v13.7c0,0.4-0.1,0.8-0.2,1.1
				C784.2,134.5,783.9,134.7,783.4,134.7z M799.6,138.2v-11c0.2-0.1,0.5-0.1,0.7-0.1c0.6,0,1.1,0.2,1.3,0.6c0.2,0.4,0.3,0.9,0.3,1.5
				l0,0v9.1h5.8v-8.4c0-1.3-0.3-2.4-0.9-3.1c-0.6-0.7-1.6-1.1-3-1.2l0,0v-0.1c1.3-0.1,2.2-0.5,2.8-1.2c0.5-0.7,0.8-1.7,0.8-3l0,0
				v-2.1c0-1.2-0.2-2.1-0.5-2.7c-0.4-0.6-0.8-1.1-1.5-1.4c-0.6-0.3-1.4-0.5-2.2-0.6s-1.8-0.1-2.8-0.1l0,0h-6.8v23.9H799.6z
				 M800.1,123.4h-0.5v-5.3h0.5c0.2,0,0.4,0,0.6,0.1c0.2,0,0.4,0.1,0.6,0.3c0.2,0.1,0.3,0.3,0.4,0.5c0.1,0.2,0.2,0.5,0.2,0.8l0,0v2
				c0,0.3-0.1,0.6-0.2,0.8s-0.3,0.4-0.4,0.5c-0.2,0.1-0.4,0.2-0.6,0.3S800.3,123.4,800.1,123.4L800.1,123.4z"/>
			<path class="st25" d="M562.9,139.4c-10.3,10.4-20.6,20.8-30.9,31.2c-1,1-1.9,1.5-3.3,1.4c-2.1-0.1-4.2,0-6.3-0.1
				c-0.6,0-1.2-0.4-1.8-0.6c0.3-0.6,0.4-1.3,0.8-1.7c9.3-9.4,18.5-18.8,27.8-28.2c2.2-2.2,2.2-2.5-0.1-4.7
				c-7.1-7.2-14.3-14.4-21.4-21.6c-1.5-1.5-1.5-1.7,0-3.2c1-1,2-2,3-3c0.9-1.1,1.6-1,2.6,0c8.7,8.9,17.4,17.7,26.2,26.5
				c1.2,1.2,2.3,2.4,3.4,3.6C562.9,139.2,562.9,139.3,562.9,139.4z"/>
			<path class="st25" d="M526.4,103.2c1.1,1,0.4,1.7-0.4,2.5c-9.2,9.2-18.4,18.5-27.6,27.8c-0.4,0.4-0.8,0.8-1.1,1.2
				c-0.8,0.8-0.7,1.7,0,2.5c0.3,0.4,0.7,0.7,1,1.1c7.1,7.2,14.3,14.4,21.4,21.5c1.4,1.4,1.4,1.7,0,3.1c-1.1,1.1-2.1,2.1-3.2,3.2
				c-0.8,0.8-1.4,0.8-2.2,0c-9.6-9.7-19.2-19.3-28.9-29c-0.8-0.8-0.8-1.5,0-2.3c10.2-10.2,20.4-20.4,30.6-30.6
				c0.3-0.3,0.6-0.6,1-0.9C520.1,103.2,523.2,103.2,526.4,103.2z"/>
			<path class="st25" d="M532.9,131.6c2.3,4.4,3.3,9,1.1,13.8c-2.3,4.9-6.4,6.8-10.3,6.7c-5-0.2-9.1-3.7-10.4-8.6
				c-1.3-4.8-0.3-9.2,2.5-13.3c1-1.5,2.2-2.8,3.3-4.3c1.2-1.7,2.2-3.4,2.1-5.6c0-0.3,0.2-0.6,0.3-0.9c0.4,0.2,0.8,0.2,1.1,0.5
				c2.7,2.8,4.3,6.2,5,9.9c0.7,3.4,0.9,6.9,1.2,10.4c0.1,1.1-0.1,2.6,1.2,2.8c1.4,0.3,1.9-1.3,2.1-2.4c0.4-2.4,0.4-4.8,0.6-7.2
				c0-0.6-0.1-1.2-0.2-1.8C532.7,131.6,532.8,131.6,532.9,131.6z"/>
			<g id="Group" transform="translate(179.049080, 100.475049)">
				<path id="Fill-953_1_" class="st26" d="M438.4,55.2c-0.1,0.2-0.2,0.2-0.4,0.2c-0.1,0-0.3-0.1-0.4-0.3c-0.2-0.2-0.4-0.4-0.7-0.6
					c-0.3-0.2-0.7-0.4-1.2-0.6c-0.5-0.2-1.1-0.3-1.8-0.3c-0.7,0-1.3,0.1-1.8,0.3c-0.5,0.2-1,0.5-1.3,0.8s-0.6,0.8-0.8,1.2
					c-0.2,0.5-0.3,1-0.3,1.5c0,0.7,0.1,1.2,0.4,1.7c0.3,0.4,0.6,0.8,1.1,1.1c0.4,0.3,1,0.6,1.5,0.8c0.6,0.2,1.2,0.4,1.8,0.6
					c0.6,0.2,1.2,0.4,1.8,0.7c0.6,0.2,1.1,0.6,1.5,0.9c0.5,0.3,0.8,0.8,1.1,1.4c0.3,0.5,0.4,1.2,0.4,2c0,0.8-0.1,1.6-0.4,2.3
					c-0.3,0.7-0.7,1.4-1.2,1.9c-0.5,0.5-1.2,1-1.9,1.3c-0.8,0.3-1.6,0.5-2.6,0.5c-1.2,0-2.3-0.2-3.2-0.7c-0.9-0.5-1.7-1.1-2.4-1.9
					l0.4-0.6c0.1-0.2,0.2-0.2,0.4-0.2c0.1,0,0.2,0,0.3,0.2c0.1,0.1,0.3,0.3,0.4,0.4c0.2,0.2,0.4,0.3,0.7,0.5
					c0.3,0.2,0.5,0.4,0.9,0.5c0.3,0.2,0.7,0.3,1.1,0.4c0.4,0.1,0.9,0.2,1.5,0.2c0.8,0,1.4-0.1,2-0.3c0.6-0.2,1.1-0.6,1.5-1
					c0.4-0.4,0.7-0.9,1-1.5c0.2-0.6,0.3-1.2,0.3-1.8c0-0.7-0.1-1.3-0.4-1.7c-0.3-0.5-0.6-0.8-1.1-1.2c-0.4-0.3-1-0.6-1.5-0.8
					c-0.6-0.2-1.2-0.4-1.8-0.6c-0.6-0.2-1.2-0.4-1.8-0.7c-0.6-0.2-1.1-0.5-1.5-0.9c-0.4-0.4-0.8-0.8-1.1-1.4
					c-0.3-0.6-0.4-1.3-0.4-2.1c0-0.6,0.1-1.3,0.4-1.9c0.3-0.6,0.6-1.1,1.1-1.6c0.5-0.5,1-0.8,1.7-1.1c0.7-0.3,1.5-0.4,2.3-0.4
					c1,0,1.9,0.2,2.7,0.5c0.8,0.3,1.5,0.8,2.2,1.5L438.4,55.2z"/>
				<path id="Fill-956" class="st27" d="M452.5,53c-1.3,0-2.5,0.2-3.6,0.7c-1.1,0.4-2,1.1-2.8,1.9c-0.8,0.8-1.4,1.9-1.8,3.1
					c-0.4,1.2-0.7,2.5-0.7,4c0,1.5,0.2,2.8,0.7,4c0.4,1.2,1,2.2,1.8,3.1c0.8,0.8,1.7,1.5,2.8,1.9s2.3,0.7,3.6,0.7s2.5-0.2,3.6-0.7
					c1.1-0.4,2-1.1,2.8-1.9c0.8-0.8,1.4-1.9,1.8-3c0.4-1.2,0.7-2.5,0.7-4c0-1.5-0.2-2.8-0.7-4c-0.4-1.2-1-2.2-1.8-3.1
					c-0.8-0.8-1.7-1.5-2.8-1.9C455,53.2,453.8,53,452.5,53 M452.5,72.7c-1.4,0-2.7-0.3-3.8-0.7c-1.1-0.5-2.1-1.2-3-2
					c-0.8-0.9-1.5-1.9-1.9-3.2c-0.4-1.2-0.7-2.6-0.7-4.1c0-1.5,0.2-2.9,0.7-4.1c0.4-1.2,1.1-2.3,1.9-3.2c0.8-0.9,1.8-1.6,3-2.1
					c1.1-0.5,2.4-0.7,3.8-0.7c1.4,0,2.7,0.3,3.8,0.7c1.1,0.5,2.1,1.1,3,2c0.8,0.9,1.5,2,1.9,3.2c0.4,1.2,0.7,2.6,0.7,4.1
					c0,1.5-0.2,2.9-0.7,4.1c-0.4,1.2-1.1,2.3-1.9,3.2c-0.8,0.9-1.8,1.6-3,2C455.1,72.5,453.8,72.7,452.5,72.7"/>
				<path id="Fill-957_1_" class="st26" d="M472.7,71.5c1,0,1.9-0.2,2.6-0.5c0.8-0.3,1.4-0.8,2-1.4c0.6-0.6,0.9-1.3,1.2-2.1
					c0.3-0.8,0.4-1.7,0.4-2.6V52.5h1.5v12.4c0,1.1-0.2,2.1-0.6,3.1c-0.4,1-0.9,1.8-1.5,2.5c-0.7,0.7-1.5,1.3-2.4,1.7
					c-0.9,0.4-2.1,0.6-3.2,0.6s-2.3-0.2-3.2-0.6c-0.9-0.4-1.8-1-2.4-1.7c-0.7-0.7-1.2-1.5-1.5-2.5c-0.4-1-0.6-2-0.6-3.1V52.5h1.5
					v12.3c0,0.9,0.2,1.8,0.4,2.6c0.3,0.8,0.7,1.5,1.2,2.1c0.6,0.6,1.2,1,2,1.4C470.8,71.3,471.8,71.5,472.7,71.5"/>
				<path id="Fill-959_1_" class="st26" d="M487.1,61.7h0.3h0.8c0.8,0,1.6-0.1,2.3-0.3c0.7-0.2,1.3-0.5,1.7-0.9
					c0.5-0.4,0.8-0.8,1.1-1.3c0.3-0.5,0.4-1.1,0.4-1.8c0-1.3-0.4-2.3-1.3-3c-0.9-0.6-2.2-1-3.9-1H485v8.2v1v8.5h-1.4V52.5h4.9
					c2.2,0,3.9,0.4,4.9,1.3c1.1,0.8,1.6,2,1.6,3.7c0,0.7-0.1,1.4-0.4,1.9c-0.3,0.6-0.6,1.1-1.1,1.5c-0.5,0.4-1,0.8-1.7,1.1
					c-0.7,0.3-1.4,0.5-2.3,0.6c0.2,0.1,0.4,0.3,0.6,0.5l6.6,8.1h-1.2c-0.1,0-0.3,0-0.4-0.1c-0.1,0-0.2-0.1-0.3-0.3l-6.1-7.6
					c-0.1-0.2-0.3-0.3-0.5-0.4c-0.2-0.1-1.3-0.1-1.6-0.1C486.7,61.8,486.8,61.7,487.1,61.7"/>
				<path id="Fill-961_1_" class="st26" d="M513.1,67.9c0.1,0,0.2,0,0.2,0.1l0.6,0.6c-0.4,0.4-0.9,0.8-1.4,1.1
					c-0.5,0.3-1.1,0.6-1.7,0.8c-0.6,0.2-1.3,0.4-2,0.5c-0.7,0.1-1.5,0.2-2.4,0.2c-1.4,0-2.8-0.2-4-0.7c-1.2-0.5-2.2-1.1-3.1-1.9
					c-0.8-0.8-1.5-1.8-2-3c-0.5-1.2-0.7-2.4-0.7-3.8c0-1.4,0.2-2.6,0.8-3.8c0.5-1.2,1.2-2.1,2.1-3c0.9-0.8,2-1.4,3.2-1.9
					c1.2-0.5,2.6-0.7,4.1-0.7c0.8,0,1.4,0,2.1,0.1c0.6,0.1,1.2,0.2,1.8,0.4s1,0.4,1.5,0.7c0.5,0.3,1,0.6,1.4,1l-0.4,0.6
					c-0.1,0.1-0.2,0.1-0.4,0.1c-0.1,0-0.2,0-0.3-0.1c-0.1-0.1-0.3-0.2-0.5-0.4c-0.2-0.1-0.5-0.3-0.8-0.4c-0.3-0.2-0.6-0.3-1.1-0.4
					c-0.4-0.1-0.9-0.2-1.4-0.4c-0.5-0.1-1.2-0.1-1.8-0.1c-1.3,0-2.4,0.2-3.5,0.6s-2,0.9-2.7,1.7c-0.8,0.7-1.4,1.6-1.8,2.6
					c-0.4,1-0.6,2.1-0.6,3.4c0,1.3,0.2,2.4,0.6,3.5c0.4,1,1,1.9,1.8,2.6c0.8,0.7,1.6,1.2,2.6,1.6c1,0.4,2.1,0.6,3.3,0.6
					c0.8,0,1.4,0,2-0.1c0.6-0.1,1.1-0.2,1.6-0.4c0.5-0.2,1-0.4,1.4-0.6c0.4-0.2,0.8-0.5,1.2-0.9c0,0,0.1-0.1,0.1-0.1
					C513,67.9,513.1,67.9,513.1,67.9"/>
				<polygon id="Fill-963_1_" class="st26" points="527.9,52.5 527.9,53.6 517.7,53.6 517.7,61.2 526.2,61.2 526.2,62.3 517.7,62.3 
					517.7,70.1 527.9,70.1 527.9,71.2 516.3,71.2 516.3,52.5 				"/>
				<polygon id="Fill-965_1_" class="st19" points="545.1,51.7 545.1,54.7 535.8,54.7 535.8,60.7 543.6,60.7 543.6,63.7 535.8,63.7 
					535.8,72 531.8,72 531.8,51.8 545.1,51.8 				"/>
				<path id="Fill-966_1_" class="st19" d="M561.5,61.8c0-1.1-0.2-2.1-0.5-2.9c-0.3-0.9-0.7-1.6-1.2-2.2c-0.5-0.6-1.2-1-2-1.4
					c-0.8-0.3-1.7-0.5-2.6-0.5c-1,0-1.8,0.2-2.6,0.5c-0.8,0.3-1.4,0.8-2,1.4c-0.6,0.6-1,1.3-1.3,2.2c-0.3,0.9-0.5,1.8-0.5,2.9
					c0,1.1,0.2,2.1,0.5,2.9c0.3,0.9,0.7,1.6,1.3,2.2c0.6,0.6,1.2,1,2,1.4c0.8,0.3,1.7,0.5,2.6,0.5c1,0,1.8-0.1,2.6-0.5
					c0.8-0.3,1.4-0.8,2-1.4c0.5-0.6,0.9-1.3,1.2-2.2C561.3,63.9,561.5,62.9,561.5,61.8 M565.3,61.8c0,1.5-0.2,2.8-0.7,4
					c-0.5,1.2-1.2,2.3-2.1,3.2c-0.9,0.9-2,1.6-3.2,2.1c-1.2,0.5-2.6,0.7-4.1,0.7c-1.5,0-2.9-0.3-4.1-0.7c-1.2-0.5-2.3-1.2-3.2-2.1
					c-0.9-0.9-1.6-2-2.1-3.2c-0.5-1.2-0.7-2.6-0.7-4c0-1.5,0.2-2.8,0.7-4s1.2-2.3,2.1-3.2c0.9-0.9,2-1.6,3.2-2.1
					c1.2-0.5,2.6-0.7,4.1-0.7c1.5,0,2.9,0.3,4.1,0.8s2.3,1.2,3.2,2.1c0.9,0.9,1.6,2,2.1,3.2C565,59,565.3,60.4,565.3,61.8"/>
				<path id="Fill-967_1_" class="st19" d="M572,61.3h0.9c0.7,0,1.3-0.1,1.8-0.3c0.5-0.2,0.9-0.4,1.3-0.7c0.3-0.3,0.6-0.7,0.8-1.1
					c0.2-0.4,0.3-0.9,0.3-1.4c0-1-0.3-1.8-1-2.4c-0.7-0.5-1.7-0.8-3.1-0.8h-2.4v6.7v2.7V72h-3.7V51.7h6.1c1.4,0,2.5,0.2,3.5,0.4
					c1,0.3,1.8,0.7,2.4,1.2c0.6,0.5,1.1,1.1,1.4,1.8c0.3,0.7,0.5,1.5,0.5,2.4c0,0.7-0.1,1.3-0.3,2c-0.2,0.6-0.5,1.1-0.9,1.6
					s-0.8,0.9-1.4,1.3c-0.6,0.4-1.2,0.7-1.9,0.9c0.5,0.3,0.9,0.6,1.2,1.1l5,7.5h-3.4c-0.3,0-0.6-0.1-0.8-0.2
					c-0.2-0.1-0.4-0.3-0.6-0.6l-4.2-6.5c-0.1-0.2-0.3-0.5-0.6-0.5h-1.3v-2.4C571.6,61.3,572,61.3,572,61.3"/>
				<path id="Fill-968_1_" class="st19" d="M592.5,69.1c0.8,0,1.5-0.1,2.1-0.2c0.6-0.1,1.2-0.4,1.7-0.6v-4.5h-2.4
					c-0.2,0-0.4-0.1-0.5-0.2c-0.1-0.2-0.2-0.3-0.2-0.5V61h6.4v8.9c-0.5,0.4-1,0.7-1.5,0.9c-0.5,0.3-1.1,0.5-1.7,0.7
					c-0.6,0.2-1.2,0.3-1.9,0.4c-0.7,0.1-1.4,0.1-2.2,0.1c-1.4,0-2.7-0.3-3.9-0.7c-1.2-0.5-2.2-1.2-3.1-2.1c-0.9-0.9-1.5-2-2-3.2
					c-0.5-1.2-0.7-2.6-0.7-4.1c0-1.5,0.2-2.8,0.7-4.1c0.5-1.2,1.1-2.3,2-3.2c0.9-0.9,1.9-1.6,3.2-2.1c1.2-0.5,2.6-0.7,4.2-0.7
					c1.6,0,2.9,0.2,4.1,0.7c1.2,0.5,2.1,1.1,2.9,1.9l-1.1,1.7c-0.2,0.3-0.5,0.5-0.8,0.5c-0.2,0-0.4-0.1-0.7-0.2
					c-0.3-0.2-0.6-0.3-0.9-0.5c-0.3-0.2-0.6-0.3-1-0.4c-0.4-0.1-0.8-0.2-1.2-0.3c-0.4-0.1-1-0.1-1.6-0.1c-0.9,0-1.8,0.1-2.6,0.5
					c-0.8,0.3-1.4,0.8-2,1.4c-0.5,0.6-0.9,1.3-1.2,2.2c-0.3,0.9-0.4,1.8-0.4,2.9c0,1.2,0.1,2.2,0.5,3.1c0.3,0.9,0.8,1.6,1.3,2.2
					c0.5,0.6,1.2,1.1,2,1.4C590.6,68.9,591.6,69.1,592.5,69.1"/>
				<path id="Fill-969_1_" class="st19" d="M613,63.8h-6.4v5.1h9.3v3h-13.2V51.7h13.2v3h-9.3V61h7.3v2.2
					C613.9,63.2,613.8,63.8,613,63.8"/>
			</g>
		</g>
	</g>
</g>
</svg>
