<?xml version="1.0" encoding="utf-8"?>
<!-- Generator: Adobe Illustrator 24.2.3, SVG Export Plug-In . SVG Version: 6.00 Build 0)  -->
<!DOCTYPE svg PUBLIC "-//W3C//DTD SVG 1.1//EN" "http://www.w3.org/Graphics/SVG/1.1/DTD/svg11.dtd" [
	<!ENTITY ns_extend "http://ns.adobe.com/Extensibility/1.0/">
	<!ENTITY ns_ai "http://ns.adobe.com/AdobeIllustrator/10.0/">
	<!ENTITY ns_graphs "http://ns.adobe.com/Graphs/1.0/">
	<!ENTITY ns_vars "http://ns.adobe.com/Variables/1.0/">
	<!ENTITY ns_imrep "http://ns.adobe.com/ImageReplacement/1.0/">
	<!ENTITY ns_sfw "http://ns.adobe.com/SaveForWeb/1.0/">
	<!ENTITY ns_custom "http://ns.adobe.com/GenericCustomNamespace/1.0/">
	<!ENTITY ns_adobe_xpath "http://ns.adobe.com/XPath/1.0/">
]>
<svg version="1.1"
	 id="Layer_1" xmlns:x="&ns_extend;" xmlns:i="&ns_ai;" xmlns:graph="&ns_graphs;" xmlns:xodm="http://www.corel.com/coreldraw/odm/2003"
	 xmlns="http://www.w3.org/2000/svg" xmlns:xlink="http://www.w3.org/1999/xlink" x="0px" y="0px" viewBox="0 0 122.9 122.9"
	 style="enable-background:new 0 0 122.9 122.9;" xml:space="preserve">
<style type="text/css">
	.st0{fill:none;}
	.st1{fill-rule:evenodd;clip-rule:evenodd;fill:#1BB6F9;}
	.st2{fill-rule:evenodd;clip-rule:evenodd;fill:url(#SVGID_1_);fill-opacity:0.2;}
	.st3{fill-rule:evenodd;clip-rule:evenodd;fill:#0382F3;}
	.st4{fill-rule:evenodd;clip-rule:evenodd;fill:url(#SVGID_2_);fill-opacity:0.2;}
	.st5{fill-rule:evenodd;clip-rule:evenodd;fill:url(#SVGID_3_);fill-opacity:0.2;}
	.st6{fill-rule:evenodd;clip-rule:evenodd;fill:url(#SVGID_4_);fill-opacity:0.2;}
	.st7{fill-rule:evenodd;clip-rule:evenodd;fill:url(#SVGID_5_);fill-opacity:0.2;}
	.st8{fill-rule:evenodd;clip-rule:evenodd;fill:#102E7A;}
	.st9{fill-rule:evenodd;clip-rule:evenodd;fill:url(#SVGID_6_);fill-opacity:0.2;}
	.st10{fill-rule:evenodd;clip-rule:evenodd;fill:url(#SVGID_7_);fill-opacity:0.2;}
	.st11{fill-rule:evenodd;clip-rule:evenodd;fill:url(#SVGID_8_);fill-opacity:0.2;}
	.st12{fill-rule:evenodd;clip-rule:evenodd;fill:url(#SVGID_9_);fill-opacity:0.2;}
	.st13{fill:#FFFFFF;}
	.st14{fill-rule:evenodd;clip-rule:evenodd;fill:#FFFFFF;}
</style>
<metadata  id="CorelCorpID_0Corel-Layer">
	<sfw  xmlns="&ns_sfw;">
		<slices></slices>
		<sliceSourceBounds  bottomLeftOrigin="true" height="122.9" width="122.9" x="0" y="0"></sliceSourceBounds>
	</sfw>
</metadata>
<g id="Layer_x0020_1">
	<rect y="0" class="st0" width="122.9" height="122.9"/>
	<g id="_2888754740800">
		<path class="st1" d="M97.3,119.9h-73c-1.6,0-3-1.3-3-3V14.6c0-6.6,5.4-12,12-12h73c1.7,0,3,1.3,3,3v102.3
			C109.3,114.5,103.9,119.9,97.3,119.9z"/>
		<linearGradient id="SVGID_1_" gradientUnits="userSpaceOnUse" x1="21.3" y1="61.25" x2="109.3" y2="61.25">
			<stop  offset="0" style="stop-color:#FFFFFF"/>
			<stop  offset="1" style="stop-color:#FFFFFF;stop-opacity:0"/>
		</linearGradient>
		<path class="st2" d="M97.3,119.9h-73c-1.6,0-3-1.3-3-3V14.6c0-6.6,5.4-12,12-12h73c1.7,0,3,1.3,3,3v102.3
			C109.3,114.5,103.9,119.9,97.3,119.9z"/>
		<path class="st3" d="M21.3,31.9h-3.7c-2,0-3.7-1.6-3.7-3.7l0,0c0-2,1.6-3.7,3.7-3.7h3.7l7.3,3.7L21.3,31.9z"/>
		<linearGradient id="SVGID_2_" gradientUnits="userSpaceOnUse" x1="13.9" y1="28.2" x2="28.6" y2="28.2">
			<stop  offset="0" style="stop-color:#FFFFFF"/>
			<stop  offset="1" style="stop-color:#FFFFFF;stop-opacity:0"/>
		</linearGradient>
		<path class="st4" d="M21.3,31.9h-3.7c-2,0-3.7-1.6-3.7-3.7l0,0c0-2,1.6-3.7,3.7-3.7h3.7l7.3,3.7L21.3,31.9z"/>
		<path class="st3" d="M21.3,53.9h-3.7c-2,0-3.7-1.6-3.7-3.7l0,0c0-2,1.6-3.7,3.7-3.7h3.7l7.3,3.7L21.3,53.9z"/>
		<linearGradient id="SVGID_3_" gradientUnits="userSpaceOnUse" x1="13.9" y1="50.2" x2="28.6" y2="50.2">
			<stop  offset="0" style="stop-color:#FFFFFF"/>
			<stop  offset="1" style="stop-color:#FFFFFF;stop-opacity:0"/>
		</linearGradient>
		<path class="st5" d="M21.3,53.9h-3.7c-2,0-3.7-1.6-3.7-3.7l0,0c0-2,1.6-3.7,3.7-3.7h3.7l7.3,3.7L21.3,53.9z"/>
		<path class="st3" d="M21.3,75.9h-3.7c-2,0-3.7-1.6-3.7-3.7l0,0c0-2,1.6-3.7,3.7-3.7h3.7l7.3,3.7L21.3,75.9z"/>
		<linearGradient id="SVGID_4_" gradientUnits="userSpaceOnUse" x1="13.9" y1="72.2" x2="28.6" y2="72.2">
			<stop  offset="0" style="stop-color:#FFFFFF"/>
			<stop  offset="1" style="stop-color:#FFFFFF;stop-opacity:0"/>
		</linearGradient>
		<path class="st6" d="M21.3,75.9h-3.7c-2,0-3.7-1.6-3.7-3.7l0,0c0-2,1.6-3.7,3.7-3.7h3.7l7.3,3.7L21.3,75.9z"/>
		<path class="st3" d="M21.3,97.9h-3.7c-2,0-3.7-1.6-3.7-3.7l0,0c0-2,1.6-3.7,3.7-3.7h3.7l7.3,3.7L21.3,97.9z"/>
		<linearGradient id="SVGID_5_" gradientUnits="userSpaceOnUse" x1="13.9" y1="94.2" x2="28.6" y2="94.2">
			<stop  offset="0" style="stop-color:#FFFFFF"/>
			<stop  offset="1" style="stop-color:#FFFFFF;stop-opacity:0"/>
		</linearGradient>
		<path class="st7" d="M21.3,97.9h-3.7c-2,0-3.7-1.6-3.7-3.7l0,0c0-2,1.6-3.7,3.7-3.7h3.7l7.3,3.7L21.3,97.9z"/>
		<path class="st8" d="M21.3,24.6H25c2,0,3.6,1.6,3.6,3.6l0,0c0,2-1.6,3.6-3.6,3.6h-3.7V24.6z"/>
		<linearGradient id="SVGID_6_" gradientUnits="userSpaceOnUse" x1="21.3" y1="28.2" x2="28.6" y2="28.2">
			<stop  offset="0" style="stop-color:#FFFFFF"/>
			<stop  offset="1" style="stop-color:#FFFFFF;stop-opacity:0"/>
		</linearGradient>
		<path class="st9" d="M21.3,24.6H25c2,0,3.6,1.6,3.6,3.6l0,0c0,2-1.6,3.6-3.6,3.6h-3.7V24.6z"/>
		<path class="st8" d="M21.3,46.6H25c2,0,3.6,1.6,3.6,3.6l0,0c0,2-1.6,3.6-3.6,3.6h-3.7V46.6z"/>
		<linearGradient id="SVGID_7_" gradientUnits="userSpaceOnUse" x1="21.3" y1="50.2" x2="28.6" y2="50.2">
			<stop  offset="0" style="stop-color:#FFFFFF"/>
			<stop  offset="1" style="stop-color:#FFFFFF;stop-opacity:0"/>
		</linearGradient>
		<path class="st10" d="M21.3,46.6H25c2,0,3.6,1.6,3.6,3.6l0,0c0,2-1.6,3.6-3.6,3.6h-3.7V46.6z"/>
		<path class="st8" d="M21.3,68.6H25c2,0,3.6,1.6,3.6,3.6l0,0c0,2-1.6,3.6-3.6,3.6h-3.7V68.6z"/>
		<linearGradient id="SVGID_8_" gradientUnits="userSpaceOnUse" x1="21.3" y1="72.2" x2="28.6" y2="72.2">
			<stop  offset="0" style="stop-color:#FFFFFF"/>
			<stop  offset="1" style="stop-color:#FFFFFF;stop-opacity:0"/>
		</linearGradient>
		<path class="st11" d="M21.3,68.6H25c2,0,3.6,1.6,3.6,3.6l0,0c0,2-1.6,3.6-3.6,3.6h-3.7V68.6z"/>
		<path class="st8" d="M21.3,90.6H25c2,0,3.6,1.6,3.6,3.6l0,0c0,2-1.6,3.6-3.6,3.6h-3.7V90.6z"/>
		<linearGradient id="SVGID_9_" gradientUnits="userSpaceOnUse" x1="21.3" y1="94.2" x2="28.6" y2="94.2">
			<stop  offset="0" style="stop-color:#FFFFFF"/>
			<stop  offset="1" style="stop-color:#FFFFFF;stop-opacity:0"/>
		</linearGradient>
		<path class="st12" d="M21.3,90.6H25c2,0,3.6,1.6,3.6,3.6l0,0c0,2-1.6,3.6-3.6,3.6h-3.7V90.6z"/>
		<g>
			<path class="st13" d="M57.6,52.6c-6.1,0-11,4.9-11,11v18.3h7.3v-7.3h7.3v7.3h7.3V63.6C68.6,57.5,63.6,52.6,57.6,52.6L57.6,52.6z
				 M61.2,67.2h-7.3v-3.7c0-2.1,1.6-3.7,3.7-3.7s3.7,1.6,3.7,3.7v3.7H61.2z"/>
			<polygon class="st14" points="90.6,45.2 83.2,45.2 83.2,37.9 75.9,37.9 75.9,45.2 68.6,45.2 68.6,52.6 75.9,52.6 75.9,59.9 
				83.2,59.9 83.2,52.6 90.6,52.6 			"/>
		</g>
	</g>
</g>
</svg>
