<svg id="Layer_1" enable-background="new 0 0 512.004 512.004" height="512" viewBox="0 0 512.004 512.004" width="512" xmlns="http://www.w3.org/2000/svg"><g><path d="m383.47 225.356c10.66 0 21.076 1.065 31.152 3.081 12.424-121.178-84.886-228.728-206.819-228.014-114.764 0-207.799 93.035-207.799 207.8-.713 121.922 106.835 219.257 228.014 206.819-20.344-96.391 56.757-190.807 155.452-189.686zm-170.206 9.539-5.46-5.46-5.46 5.46c-5.856 5.857-15.355 5.859-21.213 0-5.858-5.857-5.858-15.355 0-21.213l5.46-5.46-37.594-37.594c-5.858-5.857-5.858-15.355 0-21.213 5.857-5.857 15.355-5.857 21.213 0l37.594 37.594 77.76-77.76c5.857-5.857 15.355-5.859 21.213 0 5.858 5.857 5.858 15.355 0 21.213l-77.76 77.76 5.46 5.46c5.858 5.857 5.858 15.355 0 21.213-5.857 5.857-15.354 5.86-21.213 0z"/><path d="m383.47 255.356c-70.874 0-128.534 57.66-128.534 128.534 6.462 170.282 250.631 170.236 257.067-.002.001-70.872-57.659-128.532-128.533-128.532zm15 197.305v3.528c-.738 19.881-29.269 19.866-30 0v-3.019c-9.02-2.407-15.883-6.649-19.707-10.474-5.953-5.762-6.107-15.258-.346-21.21 5.762-5.953 15.258-6.107 21.21-.346 9.535 7.229 30.139 5.536 30.976-13.15 0-1.439 0-2.096-2.6-3.612-4.179-2.438-11.292-4.216-18.172-5.936-8.918-2.229-18.14-4.535-26.012-9.126-33.34-20.233-14.46-65.311 14.65-74.198v-3.528c.738-19.881 29.269-19.866 30 0v3.019c9.02 2.407 15.883 6.649 19.707 10.474 5.953 5.762 6.107 15.258.346 21.21-5.762 5.953-15.258 6.107-21.21.346-9.535-7.229-30.139-5.536-30.976 13.15 0 1.439 0 2.096 2.6 3.612 4.179 2.438 11.292 4.216 18.172 5.936 8.918 2.229 18.14 4.535 26.012 9.126 33.34 20.234 14.46 65.312-14.65 74.198z"/></g></svg>