<svg height="512" viewBox="0 0 32 32" width="512" xmlns="http://www.w3.org/2000/svg"><g id="dollar_calendar"><path d="m24 17c-3.8603516 0-7 3.1396484-7 7s3.1396484 7 7 7 7-3.1396484 7-7-3.1396484-7-7-7zm-1 6h2c1.3798828 0 2.5 1.1201172 2.5 2.5v.5c0 1.3798828-1.1201172 2.5-2.5 2.5v.5h-2v-.5c-1.3798828 0-2.5-1.1201172-2.5-2.5h2c0 .2695313.2304688.5.5.5h2c.2695313 0 .5-.2304688.5-.5v-.5c0-.2695313-.2304688-.5-.5-.5h-2c-1.3798828 0-2.5-1.1201172-2.5-2.5v-.5c0-1.3798828 1.1201172-2.5 2.5-2.5v-.5h2v.5c1.3798828 0 2.5 1.1201172 2.5 2.5h-2c0-.2695313-.2304688-.5-.5-.5h-2c-.2695313 0-.5.2304688-.5.5v.5c0 .2695313.2304688.5.5.5zm-22-12v15c0 1.6503906 1.3496094 3 3 3h12.5195313c-.9589844-1.4296875-1.5195313-3.1503906-1.5195313-5 0-4.9599609 4.0400391-9 9-9 1.8496094 0 3.5703125.5605469 5 1.5195313v-5.5195313zm9 13h-4v-2h4zm0-6h-4v-2h4zm7 0h-4v-2h4zm12-12v3h-28v-3c0-1.6503906 1.3496094-3 3-3h3v-2h2v2h12v-2h2v2h3c1.6503906 0 3 1.3496094 3 3z"/></g></svg>