<svg id="Capa_1" enable-background="new 0 0 483.241 483.241" height="512" viewBox="0 0 483.241 483.241" width="512" xmlns="http://www.w3.org/2000/svg"><g><path d="m209.021 452c-97.056-134.088 51.02-304.101 197.48-225.61v-102.39h-123v-124h-255v482h210.36c-11.274-8.587-21.323-18.677-29.84-30zm-131.52-239v-30h88v30zm150-60h-150v-30h150zm-150-60v-30h112v30z"/><path d="m398.751 94-85.25-86.18v86.18z"/><path d="m389.581 251.33c-80.829-44.063-181.908 16.371-181.319 108.671-.209 68.074 56.08 123.521 123.239 123.239 67.96 0 123.24-55.28 123.24-123.24 0-46.97-26.41-87.89-65.16-108.67zm-66.3 81.67c6.037 4.714 17.328 8.843 25.5 11.75 38.88 13.524 34.699 66.211-1.53 79.23v18.02h-30v-16.32c-6.82-1.21-13.08-3.78-20.96-8.94-.527-.345-11.722-7.669-12.55-8.21l16.42-25.11c2.061 1.354 10.662 6.988 12.55 8.22 7.22 4.72 9.56 5.08 19.44 5.02 9.49-.06 13.27-7.51 14-11.9.96-5.71-1.52-9.65-7.37-11.72-5.29-1.87-10.63-3.86-15.72-6.08-6.81-2.95-13.16-6.32-18.3-10.35-21.596-16.985-12.095-52.906 12.49-62.46v-17.15h30v14.98c12.417 2.597 21.342 8.579 31.58 13.93l-14.23 26.41c-10.476-5.115-22.483-14.862-35.59-10.59-4.726 1.723-7.65 8.054-5.73 11.27z"/></g></svg>