<svg id="Capa_1" enable-background="new 0 0 512.003 512.003" height="512" viewBox="0 0 512.003 512.003" width="512" xmlns="http://www.w3.org/2000/svg"><g><path d="m271.001 15c0-8.284-6.716-15-15-15s-15 6.716-15 15v25.002h30z"/><path d="m170.997 15c0-8.284-6.716-15-15-15s-15 6.716-15 15v25.002h30z"/><path d="m371.006 15c0-8.284-6.716-15-15-15s-15 6.716-15 15v25.002h30z"/><path d="m452 40.002h-80.994v24.995c0 8.284-6.716 15-15 15s-15-6.716-15-15v-24.995h-70.005v24.995c0 8.284-6.716 15-15 15s-15-6.716-15-15v-24.995h-70.005v24.995c0 8.284-6.716 15-15 15s-15-6.716-15-15v-24.995h-80.994c-24.813 0-45 20.187-45 45v50.005h481.998v-50.005c0-24.814-20.187-45-45-45z"/><path d="m256.001 240.009c-74.989 0-135.997 61.008-135.997 135.996 0 74.989 61.008 135.998 135.997 135.998s135.997-61.009 135.997-135.998c0-74.988-61.008-135.996-135.997-135.996zm15.001 204.404v7.595c0 8.285-6.716 15-15 15s-15-6.715-15-15v-9.156c-15.018-4.716-28.853-13.918-32.861-19.637-4.755-6.783-3.11-16.138 3.673-20.893 6.386-4.475 15.049-3.281 20.009 2.532 3.565 3.067 17.246 10.993 26.785 10.993 9.906 0 16.859-5.788 17.858-11.384 1.317-7.377-10.027-12.173-13.536-13.467-17.032-6.282-32.161-13.017-32.797-13.301-.722-.321-1.418-.701-2.08-1.133-25.637-16.714-21.037-56.557 11.332-67.458v-9.103c0-8.284 6.716-15 15-15s15 6.716 15 15v7.341c9.54 1.98 18.833 6.369 27.415 13.07 7.295 5.675 7.863 14.904 3.171 21.149-4.768 6.346-14.147 8.356-21.634 2.496-6.496-5.072-16.781-10.354-28.899-6.702-8.535 2.572-9.617 10.231-5.717 13.543 4.021 1.757 16.358 7.069 29.592 11.95 49.868 18.398 39.103 71.807-2.311 81.565z"/><path d="m15.002 436.998c0 24.812 20.187 45 45 45h68.348c-23.932-28.773-38.345-65.73-38.345-105.993 0-91.53 74.466-165.996 165.997-165.996s165.997 74.466 165.997 165.996c0 40.263-14.414 77.22-38.345 105.993h68.346c24.812 0 45-20.188 45-45v-271.991h-481.998z"/></g></svg>