<svg height="512pt" viewBox="0 0 512 512" width="512pt" xmlns="http://www.w3.org/2000/svg"><path d="m215 250c68.925781 0 125-56.074219 125-125s-56.074219-125-125-125-125 56.074219-125 125 56.074219 125 125 125zm0 0"/><path d="m204 373c0-34.765625 10.558594-67.109375 28.628906-94.007812-5.789062.660156-11.667968 1.007812-17.628906 1.007812-44.144531 0-84.039062-18.550781-112.296875-48.269531-60.023437 25.34375-102.703125 88.96875-102.703125 163.269531v102c0 8.285156 6.714844 15 15 15h261.992188c-44.066407-30.53125-72.992188-81.449219-72.992188-139zm0 0"/><path d="m373 234c-76.644531 0-139 62.355469-139 139s62.355469 139 139 139 139-62.355469 139-139-62.355469-139-139-139zm0 124c24.8125 0 45 20.1875 45 45 0 19.554688-12.539062 36.226562-30 42.421875v7.578125c0 8.285156-6.714844 15-15 15s-15-6.714844-15-15v-5h-15c-8.285156 0-15-6.714844-15-15s6.714844-15 15-15h30c8.269531 0 15-6.730469 15-15s-6.730469-15-15-15c-24.8125 0-45-20.1875-45-45 0-19.554688 12.539062-36.226562 30-42.421875v-7.578125c0-8.285156 6.714844-15 15-15s15 6.714844 15 15v5h15c8.285156 0 15 6.714844 15 15s-6.714844 15-15 15h-30c-8.269531 0-15 6.730469-15 15s6.730469 15 15 15zm0 0"/></svg>