<?xml version="1.0" encoding="utf-8"?>
<!-- Generator: Adobe Illustrator 24.2.3, SVG Export Plug-In . SVG Version: 6.00 Build 0)  -->
<!DOCTYPE svg PUBLIC "-//W3C//DTD SVG 1.1//EN" "http://www.w3.org/Graphics/SVG/1.1/DTD/svg11.dtd" [
	<!ENTITY ns_extend "http://ns.adobe.com/Extensibility/1.0/">
	<!ENTITY ns_ai "http://ns.adobe.com/AdobeIllustrator/10.0/">
	<!ENTITY ns_graphs "http://ns.adobe.com/Graphs/1.0/">
	<!ENTITY ns_vars "http://ns.adobe.com/Variables/1.0/">
	<!ENTITY ns_imrep "http://ns.adobe.com/ImageReplacement/1.0/">
	<!ENTITY ns_sfw "http://ns.adobe.com/SaveForWeb/1.0/">
	<!ENTITY ns_custom "http://ns.adobe.com/GenericCustomNamespace/1.0/">
	<!ENTITY ns_adobe_xpath "http://ns.adobe.com/XPath/1.0/">
]>
<svg version="1.1" id="Layer_2" xmlns:x="&ns_extend;" xmlns:i="&ns_ai;" xmlns:graph="&ns_graphs;"
	 xmlns="http://www.w3.org/2000/svg" xmlns:xlink="http://www.w3.org/1999/xlink" x="0px" y="0px" viewBox="0 0 122.9 122.9"
	 style="enable-background:new 0 0 122.9 122.9;" xml:space="preserve">
<style type="text/css">
	.st0{fill:none;}
	.st1{fill:#00CEB3;}
	.st2{fill:#FC787D;}
	.st3{fill:#FBB130;}
	.st4{fill:#1BB6F9;}
	.st5{fill:url(#SVGID_1_);fill-opacity:0.2;}
	.st6{fill:url(#SVGID_2_);fill-opacity:0.2;}
	.st7{fill:url(#SVGID_3_);fill-opacity:0.2;}
	.st8{fill:url(#SVGID_4_);fill-opacity:0.2;}
</style>
<metadata  id="CorelCorpID_0Corel-Layer">
	<sfw  xmlns="&ns_sfw;">
		<slices></slices>
		<sliceSourceBounds  bottomLeftOrigin="true" height="122.9" width="122.9" x="0" y="0"></sliceSourceBounds>
	</sfw>
</metadata>
<rect x="0" y="0" class="st0" width="122.9" height="122.9"/>
<g>
	<g>
		<path class="st1" d="M28.9,86.2v26L18,119.4l-10.9-7.2v-26c0-1.7,1.3-3,3-3h15.7C27.5,83.2,28.9,84.5,28.9,86.2z"/>
		<path class="st2" d="M57.8,64.4v47.7L47,119.4l-10.9-7.2V64.4c0-1.7,1.3-3,3-3h15.7C56.5,61.5,57.8,62.8,57.8,64.4z"/>
		<path class="st3" d="M86.8,35.5v76.6l-10.9,7.2l-10.9-7.2V35.5c0-1.7,1.3-3,3-3h15.7C85.4,32.5,86.8,33.8,86.8,35.5z"/>
		<path class="st4" d="M115.7,6.5v105.6l-10.9,7.2L94,112.1V6.5c0-1.7,1.3-3,3-3h15.7C114.4,3.5,115.7,4.9,115.7,6.5z"/>
	</g>
	<g>
		<linearGradient id="SVGID_1_" gradientUnits="userSpaceOnUse" x1="7.1592" y1="101.2632" x2="28.8755" y2="101.2632">
			<stop  offset="0" style="stop-color:#FFFFFF"/>
			<stop  offset="1" style="stop-color:#FFFFFF;stop-opacity:0"/>
		</linearGradient>
		<path class="st5" d="M28.9,86.2v26L18,119.4l-10.9-7.2v-26c0-1.7,1.3-3,3-3h15.7C27.5,83.2,28.9,84.5,28.9,86.2z"/>
		<linearGradient id="SVGID_2_" gradientUnits="userSpaceOnUse" x1="36.1143" y1="90.4051" x2="57.8306" y2="90.4051">
			<stop  offset="0" style="stop-color:#FFFFFF"/>
			<stop  offset="1" style="stop-color:#FFFFFF;stop-opacity:0"/>
		</linearGradient>
		<path class="st6" d="M57.8,64.4v47.7L47,119.4l-10.9-7.2V64.4c0-1.7,1.3-3,3-3h15.7C56.5,61.5,57.8,62.8,57.8,64.4z"/>
		<linearGradient id="SVGID_3_" gradientUnits="userSpaceOnUse" x1="65.0694" y1="75.9275" x2="86.7857" y2="75.9275">
			<stop  offset="0" style="stop-color:#FFFFFF"/>
			<stop  offset="1" style="stop-color:#FFFFFF;stop-opacity:0"/>
		</linearGradient>
		<path class="st7" d="M86.8,35.5v76.6l-10.9,7.2l-10.9-7.2V35.5c0-1.7,1.3-3,3-3h15.7C85.4,32.5,86.8,33.8,86.8,35.5z"/>
		<linearGradient id="SVGID_4_" gradientUnits="userSpaceOnUse" x1="94.0245" y1="61.45" x2="115.7408" y2="61.45">
			<stop  offset="0" style="stop-color:#FFFFFF"/>
			<stop  offset="1" style="stop-color:#FFFFFF;stop-opacity:0"/>
		</linearGradient>
		<path class="st8" d="M115.7,6.5v105.6l-10.9,7.2L94,112.1V6.5c0-1.7,1.3-3,3-3h15.7C114.4,3.5,115.7,4.9,115.7,6.5z"/>
	</g>
	<path class="st4" d="M94,112.1h21.7v7.2H94V112.1z"/>
	<path class="st3" d="M65.1,112.1h21.7v7.2H65.1V112.1z"/>
	<path class="st2" d="M36.1,112.1h21.7v7.2H36.1V112.1z"/>
	<path class="st1" d="M7.2,112.1h21.7v7.2H7.2V112.1z"/>
</g>
</svg>
