<?xml version="1.0" encoding="utf-8"?>
<!-- Generator: Adobe Illustrator 24.2.3, SVG Export Plug-In . SVG Version: 6.00 Build 0)  -->
<!DOCTYPE svg PUBLIC "-//W3C//DTD SVG 1.1//EN" "http://www.w3.org/Graphics/SVG/1.1/DTD/svg11.dtd" [
	<!ENTITY ns_extend "http://ns.adobe.com/Extensibility/1.0/">
	<!ENTITY ns_ai "http://ns.adobe.com/AdobeIllustrator/10.0/">
	<!ENTITY ns_graphs "http://ns.adobe.com/Graphs/1.0/">
	<!ENTITY ns_vars "http://ns.adobe.com/Variables/1.0/">
	<!ENTITY ns_imrep "http://ns.adobe.com/ImageReplacement/1.0/">
	<!ENTITY ns_sfw "http://ns.adobe.com/SaveForWeb/1.0/">
	<!ENTITY ns_custom "http://ns.adobe.com/GenericCustomNamespace/1.0/">
	<!ENTITY ns_adobe_xpath "http://ns.adobe.com/XPath/1.0/">
]>
<svg version="1.1"
	 id="Layer_1" xmlns:x="&ns_extend;" xmlns:i="&ns_ai;" xmlns:graph="&ns_graphs;" xmlns:xodm="http://www.corel.com/coreldraw/odm/2003"
	 xmlns="http://www.w3.org/2000/svg" xmlns:xlink="http://www.w3.org/1999/xlink" x="0px" y="0px" viewBox="0 0 122.9 122.9"
	 style="enable-background:new 0 0 122.9 122.9;" xml:space="preserve">
<style type="text/css">
	.st0{fill:none;}
	.st1{fill-rule:evenodd;clip-rule:evenodd;fill:#11D1B8;}
	.st2{fill-rule:evenodd;clip-rule:evenodd;fill:#0D3F61;}
	.st3{fill:#245170;}
	.st4{fill-rule:evenodd;clip-rule:evenodd;fill:url(#SVGID_1_);}
</style>
<metadata  id="CorelCorpID_0Corel-Layer">
	<sfw  xmlns="&ns_sfw;">
		<slices></slices>
		<sliceSourceBounds  bottomLeftOrigin="true" height="122.9" width="122.9" x="-0.2" y="-0.2"></sliceSourceBounds>
	</sfw>
</metadata>
<g id="Layer_x0020_1">
	<rect x="-0.2" y="0.2" class="st0" width="122.9" height="122.9"/>
	<g id="_1873264624496">
		<path class="st1" d="M19.5,21h100.5v63.8c0,9.2-7.5,16.7-16.7,16.7H2.8V37.8C2.8,28.5,10.3,21,19.5,21z"/>
		<path class="st2" d="M24,28.8h89.1v52.1c0,7.5-6.2,13.7-13.7,13.7H10.3V42.3C10.3,34.8,16.5,28.8,24,28.8z"/>
		<polygon class="st3" points="61.5,87.3 90.8,87.3 90.8,101.9 61.5,101.9 		"/>
		
			<linearGradient id="SVGID_1_" gradientUnits="userSpaceOnUse" x1="18927.9766" y1="28778.9902" x2="18806.5723" y2="28293.3926" gradientTransform="matrix(2.834646e-02 0 0 2.834646e-02 -458.6204 -718)">
			<stop  offset="0" style="stop-color:#22B8F9"/>
			<stop  offset="1" style="stop-color:#45C4FA"/>
		</linearGradient>
		<polygon class="st4" points="61.5,87.3 90.8,87.3 90.8,94.6 61.5,94.6 		"/>
	</g>
</g>
</svg>
