<?xml version="1.0" encoding="utf-8"?>
<!-- Generator: Adobe Illustrator 24.2.3, SVG Export Plug-In . SVG Version: 6.00 Build 0)  -->
<!DOCTYPE svg PUBLIC "-//W3C//DTD SVG 1.1//EN" "http://www.w3.org/Graphics/SVG/1.1/DTD/svg11.dtd" [
	<!ENTITY ns_extend "http://ns.adobe.com/Extensibility/1.0/">
	<!ENTITY ns_ai "http://ns.adobe.com/AdobeIllustrator/10.0/">
	<!ENTITY ns_graphs "http://ns.adobe.com/Graphs/1.0/">
	<!ENTITY ns_vars "http://ns.adobe.com/Variables/1.0/">
	<!ENTITY ns_imrep "http://ns.adobe.com/ImageReplacement/1.0/">
	<!ENTITY ns_sfw "http://ns.adobe.com/SaveForWeb/1.0/">
	<!ENTITY ns_custom "http://ns.adobe.com/GenericCustomNamespace/1.0/">
	<!ENTITY ns_adobe_xpath "http://ns.adobe.com/XPath/1.0/">
]>
<svg version="1.1" id="Layer_2_1_" xmlns:x="&ns_extend;" xmlns:i="&ns_ai;" xmlns:graph="&ns_graphs;"
	 xmlns="http://www.w3.org/2000/svg" xmlns:xlink="http://www.w3.org/1999/xlink" x="0px" y="0px" viewBox="0 0 122.9 122.9"
	 style="enable-background:new 0 0 122.9 122.9;" xml:space="preserve">
<style type="text/css">
	.st0{fill:none;}
	.st1{fill:#00CEB3;}
	.st2{fill:#003458;}
	.st3{fill:url(#SVGID_1_);fill-opacity:0.3;}
	.st4{fill:#0382F3;}
	.st5{fill:url(#SVGID_2_);fill-opacity:0.2;}
	.st6{fill:url(#SVGID_3_);fill-opacity:0.3;}
	.st7{fill:url(#SVGID_4_);fill-opacity:0.2;}
	.st8{fill-rule:evenodd;clip-rule:evenodd;fill:#FFFFFF;}
	.st9{fill:#FFFFFF;}
</style>
<metadata  id="CorelCorpID_0Corel-Layer">
	<sfw  xmlns="&ns_sfw;">
		<slices></slices>
		<sliceSourceBounds  bottomLeftOrigin="true" height="122.9" width="122.9" x="0" y="0"></sliceSourceBounds>
	</sfw>
</metadata>
<rect y="0" class="st0" width="122.9" height="122.9"/>
<g id="Layer_3_3_">
	<path class="st1" d="M109.6,58.7c0,7.4-6,13.4-13.4,13.4s-13.4-6-13.4-13.4s6-13.4,13.4-13.4S109.6,51.4,109.6,58.7z"/>
	<path class="st2" d="M109.6,58.7c0,7.4-6,13.4-13.4,13.4s-13.4-6-13.4-13.4s6-13.4,13.4-13.4S109.6,51.4,109.6,58.7z"/>
	
		<linearGradient id="SVGID_1_" gradientUnits="userSpaceOnUse" x1="82.75" y1="65.1898" x2="109.55" y2="65.1898" gradientTransform="matrix(1 0 0 -1 0 123.8898)">
		<stop  offset="0" style="stop-color:#FFFFFF"/>
		<stop  offset="1" style="stop-color:#FFFFFF;stop-opacity:0"/>
	</linearGradient>
	<path class="st3" d="M109.6,58.7c0,7.4-6,13.4-13.4,13.4s-13.4-6-13.4-13.4s6-13.4,13.4-13.4S109.6,51.4,109.6,58.7z"/>
	<path class="st4" d="M69.5,37.4c0,14.8-12,26.7-26.7,26.7s-26.7-12-26.7-26.7s12-26.7,26.7-26.7S69.5,22.6,69.5,37.4z"/>
	
		<linearGradient id="SVGID_2_" gradientUnits="userSpaceOnUse" x1="11.3465" y1="-623.6437" x2="74.1936" y2="-639.3557" gradientTransform="matrix(1 0 0 -1 0 -594.1102)">
		<stop  offset="0" style="stop-color:#FFFFFF"/>
		<stop  offset="1" style="stop-color:#FFFFFF;stop-opacity:0"/>
	</linearGradient>
	<path class="st5" d="M69.5,37.4c0,14.8-12,26.7-26.7,26.7s-26.7-12-26.7-26.7s12-26.7,26.7-26.7S69.5,22.6,69.5,37.4z"/>
	<path class="st1" d="M37.5,77.4h69.4c5.9,0,10.7,4.8,10.7,10.7v13.4c0,5.9-4.8,10.7-10.7,10.7H37.5V77.4z"/>
	<path class="st2" d="M37.5,77.4h69.4c5.9,0,10.7,4.8,10.7,10.7v13.4c0,5.9-4.8,10.7-10.7,10.7H37.5V77.4z"/>
	
		<linearGradient id="SVGID_3_" gradientUnits="userSpaceOnUse" x1="37.5" y1="29.0898" x2="117.6" y2="29.0898" gradientTransform="matrix(1 0 0 -1 0 123.8898)">
		<stop  offset="0" style="stop-color:#FFFFFF"/>
		<stop  offset="1" style="stop-color:#FFFFFF;stop-opacity:0"/>
	</linearGradient>
	<path class="st6" d="M37.5,77.4h69.4c5.9,0,10.7,4.8,10.7,10.7v13.4c0,5.9-4.8,10.7-10.7,10.7H37.5V77.4z"/>
	<path class="st4" d="M5.4,77.4H48c19.2,0,34.7,15.5,34.7,34.7H40.1C21,112.2,5.4,96.6,5.4,77.4z"/>
	
		<linearGradient id="SVGID_4_" gradientUnits="userSpaceOnUse" x1="7.1845" y1="-668.3104" x2="80.9834" y2="-709.4675" gradientTransform="matrix(1 0 0 -1 0 -594.1102)">
		<stop  offset="0" style="stop-color:#FFFFFF"/>
		<stop  offset="1" style="stop-color:#FFFFFF;stop-opacity:0"/>
	</linearGradient>
	<path class="st7" d="M5.4,77.4H48c19.2,0,34.7,15.5,34.7,34.7H40.1C21,112.2,5.4,96.6,5.4,77.4z"/>
	<path class="st8" d="M55.9,46V34.9h3V46c0,0.8-0.7,1.5-1.5,1.5C56.6,47.5,55.9,46.8,55.9,46z"/>
	<path class="st9" d="M26.6,33.9l13.7-6.1c1.6-0.7,3.4-0.7,5,0L59,33.9c0.8,0.4,0.8,1.5,0,1.8l-13.7,6.1c-1.6,0.7-3.4,0.7-5,0
		l-13.7-6.1C25.8,35.4,25.8,34.3,26.6,33.9L26.6,33.9z"/>
</g>
</svg>
