<?xml version="1.0" encoding="utf-8"?>
<!-- Generator: Adobe Illustrator 24.2.3, SVG Export Plug-In . SVG Version: 6.00 Build 0)  -->
<!DOCTYPE svg PUBLIC "-//W3C//DTD SVG 1.1//EN" "http://www.w3.org/Graphics/SVG/1.1/DTD/svg11.dtd" [
	<!ENTITY ns_extend "http://ns.adobe.com/Extensibility/1.0/">
	<!ENTITY ns_ai "http://ns.adobe.com/AdobeIllustrator/10.0/">
	<!ENTITY ns_graphs "http://ns.adobe.com/Graphs/1.0/">
	<!ENTITY ns_vars "http://ns.adobe.com/Variables/1.0/">
	<!ENTITY ns_imrep "http://ns.adobe.com/ImageReplacement/1.0/">
	<!ENTITY ns_sfw "http://ns.adobe.com/SaveForWeb/1.0/">
	<!ENTITY ns_custom "http://ns.adobe.com/GenericCustomNamespace/1.0/">
	<!ENTITY ns_adobe_xpath "http://ns.adobe.com/XPath/1.0/">
]>
<svg version="1.1" xmlns:x="&ns_extend;" xmlns:i="&ns_ai;" xmlns:graph="&ns_graphs;"
	 xmlns="http://www.w3.org/2000/svg" xmlns:xlink="http://www.w3.org/1999/xlink" x="0px" y="0px" viewBox="0 0 122.9 122.9"
	 style="enable-background:new 0 0 122.9 122.9;" xml:space="preserve">
<style type="text/css">
	.st0{fill:none;}
	.st1{fill:#1BB6F9;}
	.st2{fill:url(#SVGID_1_);fill-opacity:0.2;}
	.st3{fill:#1B567A;}
	.st4{fill:url(#SVGID_2_);fill-opacity:0.2;}
	.st5{display:none;fill:url(#SVGID_3_);fill-opacity:0.2;}
	.st6{fill:#FFFFFF;}
</style>
<metadata  id="CorelCorpID_0Corel-Layer">
	<sfw  xmlns="&ns_sfw;">
		<slices></slices>
		<sliceSourceBounds  bottomLeftOrigin="true" height="122.9" width="122.9" x="0" y="-0.9"></sliceSourceBounds>
	</sfw>
</metadata>
<g id="Layer_2_1_">
	<rect y="0.9" class="st0" width="122.9" height="122.9"/>
	<g>
		<path class="st1" d="M15.4,11.6c-6.6,0-12,5.4-12,12v9.8l58,7.3l58-7.3V11.6H15.4z"/>
		
			<linearGradient id="SVGID_1_" gradientUnits="userSpaceOnUse" x1="3.4" y1="744.15" x2="119.4" y2="744.15" gradientTransform="matrix(1 0 0 1 0 -718)">
			<stop  offset="0" style="stop-color:#FFFFFF"/>
			<stop  offset="1" style="stop-color:#FFFFFF;stop-opacity:0"/>
		</linearGradient>
		<path class="st2" d="M15.4,11.6c-6.6,0-12,5.4-12,12v9.8l58,7.3l58-7.3V11.6H15.4z"/>
		<path class="st3" d="M3.4,33.3h116v67.8c0,6.6-5.4,12-12,12H3.4V33.3z"/>
		<linearGradient id="SVGID_2_" gradientUnits="userSpaceOnUse" x1="3.4" y1="73.2" x2="119.4" y2="73.2">
			<stop  offset="0" style="stop-color:#FFFFFF"/>
			<stop  offset="1" style="stop-color:#FFFFFF;stop-opacity:0"/>
		</linearGradient>
		<path class="st4" d="M3.4,33.3h116v67.8c0,6.6-5.4,12-12,12H3.4V33.3z"/>
		
			<linearGradient id="SVGID_3_" gradientUnits="userSpaceOnUse" x1="3.45" y1="791.2" x2="119.45" y2="791.2" gradientTransform="matrix(1 0 0 1 0 -718)">
			<stop  offset="0" style="stop-color:#FFFFFF"/>
			<stop  offset="1" style="stop-color:#FFFFFF;stop-opacity:0"/>
		</linearGradient>
		<path class="st5" d="M3.5,33.3h116v67.8c0,6.6-5.4,12-12,12H3.5V33.3z"/>
	</g>
</g>
<g id="Layer_3">
	<path class="st6" d="M86.4,54.1v37.5c0,2.3-1.8,4.1-4.1,4.1H40.5c-2.3,0-4.1-1.8-4.1-4.1V54.8c0-2.3,1.8-4.1,4.1-4.1h15.9
		c2.7,0,5,2.3,5,5c0-2.7,2.3-5,5-5H83C84.9,50.7,86.4,52.2,86.4,54.1z"/>
	<path class="st3" d="M43.8,65.7h10.1c1.4,0,2.5,1.1,2.5,2.5l0,0c0,1.4-1.1,2.5-2.5,2.5H43.8c-1.4,0-2.5-1.1-2.5-2.5l0,0
		C41.3,66.8,42.4,65.7,43.8,65.7z"/>
	<path class="st3" d="M43.8,75.7h10.1c1.4,0,2.5,1.1,2.5,2.5l0,0c0,1.4-1.1,2.5-2.5,2.5H43.8c-1.4,0-2.5-1.1-2.5-2.5l0,0
		C41.3,76.8,42.4,75.7,43.8,75.7z"/>
	<path class="st3" d="M68.8,65.7h10c1.4,0,2.5,1.1,2.5,2.5l0,0c0,1.4-1.1,2.5-2.5,2.5h-10c-1.4,0-2.5-1.1-2.5-2.5l0,0
		C66.3,66.8,67.4,65.7,68.8,65.7z"/>
	<path class="st3" d="M68.8,75.7h10c1.4,0,2.5,1.1,2.5,2.5l0,0c0,1.4-1.1,2.5-2.5,2.5h-10c-1.4,0-2.5-1.1-2.5-2.5l0,0
		C66.3,76.8,67.4,75.7,68.8,75.7z"/>
</g>
</svg>
