<?xml version="1.0" encoding="utf-8"?>
<!-- Generator: Adobe Illustrator 24.2.3, SVG Export Plug-In . SVG Version: 6.00 Build 0)  -->
<!DOCTYPE svg PUBLIC "-//W3C//DTD SVG 1.1//EN" "http://www.w3.org/Graphics/SVG/1.1/DTD/svg11.dtd" [
	<!ENTITY ns_extend "http://ns.adobe.com/Extensibility/1.0/">
	<!ENTITY ns_ai "http://ns.adobe.com/AdobeIllustrator/10.0/">
	<!ENTITY ns_graphs "http://ns.adobe.com/Graphs/1.0/">
	<!ENTITY ns_vars "http://ns.adobe.com/Variables/1.0/">
	<!ENTITY ns_imrep "http://ns.adobe.com/ImageReplacement/1.0/">
	<!ENTITY ns_sfw "http://ns.adobe.com/SaveForWeb/1.0/">
	<!ENTITY ns_custom "http://ns.adobe.com/GenericCustomNamespace/1.0/">
	<!ENTITY ns_adobe_xpath "http://ns.adobe.com/XPath/1.0/">
]>
<svg version="1.1" id="Layer_2_1_" xmlns:x="&ns_extend;" xmlns:i="&ns_ai;" xmlns:graph="&ns_graphs;"
	 xmlns="http://www.w3.org/2000/svg" xmlns:xlink="http://www.w3.org/1999/xlink" x="0px" y="0px" viewBox="0 0 122.9 122.9"
	 style="enable-background:new 0 0 122.9 122.9;" xml:space="preserve">
<style type="text/css">
	.st0{fill:none;}
	.st1{fill-rule:evenodd;clip-rule:evenodd;fill:#FBB130;}
	.st2{fill-rule:evenodd;clip-rule:evenodd;fill:url(#SVGID_1_);fill-opacity:0.2;}
	.st3{fill-rule:evenodd;clip-rule:evenodd;fill:#FC787D;}
	.st4{fill-rule:evenodd;clip-rule:evenodd;fill:url(#SVGID_2_);fill-opacity:0.2;}
	.st5{fill-rule:evenodd;clip-rule:evenodd;fill:#FFFFFF;}
	.st6{fill-rule:evenodd;clip-rule:evenodd;fill:#F85318;}
</style>
<metadata  id="CorelCorpID_0Corel-Layer">
	<sfw  xmlns="&ns_sfw;">
		<slices></slices>
		<sliceSourceBounds  bottomLeftOrigin="true" height="122.9" width="122.9" x="0" y="0"></sliceSourceBounds>
	</sfw>
</metadata>
<rect y="0" class="st0" width="122.9" height="122.9"/>
<g id="_2032718428560">
	<g id="Calendar">
		<path class="st1" d="M119.9,39.6v61.1c0,6.6-5.4,12-12,12H6c-1.7,0-3-1.3-3-3V39.6l62.2-3.7L119.9,39.6z"/>
		
			<linearGradient id="SVGID_1_" gradientUnits="userSpaceOnUse" x1="3" y1="49.6398" x2="119.9" y2="49.6398" gradientTransform="matrix(1 0 0 -1 0 123.8898)">
			<stop  offset="0" style="stop-color:#FFFFFF"/>
			<stop  offset="1" style="stop-color:#FFFFFF;stop-opacity:0"/>
		</linearGradient>
		<path class="st2" d="M119.9,39.6v61.1c0,6.6-5.4,12-12,12H6c-1.7,0-3-1.3-3-3V39.6l62.2-3.7L119.9,39.6z"/>
		<path class="st3" d="M119.9,13.3v19l-54.8,3.6L3,32.3v-10c0-6.6,5.4-12,12-12h2.6l7.3,0h29.3h7.3h29.3h7.3H117
			C118.6,10.3,119.9,11.6,119.9,13.3z"/>
		<linearGradient id="SVGID_2_" gradientUnits="userSpaceOnUse" x1="3" y1="23.05" x2="119.9" y2="23.05">
			<stop  offset="0" style="stop-color:#FFFFFF"/>
			<stop  offset="1" style="stop-color:#FFFFFF;stop-opacity:0"/>
		</linearGradient>
		<path class="st4" d="M119.9,13.3v19l-54.8,3.6L3,32.3v-10c0-6.6,5.4-12,12-12h2.6l7.3,0h29.3h7.3h29.3h7.3H117
			C118.6,10.3,119.9,11.6,119.9,13.3z"/>
		<g>
			<path class="st5" d="M61.5,54.2c-12.2,0-22,9.8-22,22c0,12.1,9.8,21.9,21.9,21.9s22-9.8,22-21.9C83.5,64,73.7,54.2,61.5,54.2z
				 M72.5,79.8H57.8V61.5h7.4v11h7.3V79.8z"/>
			<polygon class="st6" points="3,32.3 119.9,32.3 119.9,39.6 3,39.6 			"/>
			<line class="st0" x1="119.9" y1="39.6" x2="3" y2="39.6"/>
		</g>
	</g>
</g>
</svg>
