<?xml version="1.0" encoding="utf-8"?>
<!-- Generator: Adobe Illustrator 24.2.3, SVG Export Plug-In . SVG Version: 6.00 Build 0)  -->
<!DOCTYPE svg PUBLIC "-//W3C//DTD SVG 1.1//EN" "http://www.w3.org/Graphics/SVG/1.1/DTD/svg11.dtd" [
	<!ENTITY ns_extend "http://ns.adobe.com/Extensibility/1.0/">
	<!ENTITY ns_ai "http://ns.adobe.com/AdobeIllustrator/10.0/">
	<!ENTITY ns_graphs "http://ns.adobe.com/Graphs/1.0/">
	<!ENTITY ns_vars "http://ns.adobe.com/Variables/1.0/">
	<!ENTITY ns_imrep "http://ns.adobe.com/ImageReplacement/1.0/">
	<!ENTITY ns_sfw "http://ns.adobe.com/SaveForWeb/1.0/">
	<!ENTITY ns_custom "http://ns.adobe.com/GenericCustomNamespace/1.0/">
	<!ENTITY ns_adobe_xpath "http://ns.adobe.com/XPath/1.0/">
]>
<svg version="1.1"
	 id="Layer_1" xmlns:x="&ns_extend;" xmlns:i="&ns_ai;" xmlns:graph="&ns_graphs;" xmlns:xodm="http://www.corel.com/coreldraw/odm/2003"
	 xmlns="http://www.w3.org/2000/svg" xmlns:xlink="http://www.w3.org/1999/xlink" x="0px" y="0px" viewBox="0 0 122.9 122.9"
	 style="enable-background:new 0 0 122.9 122.9;" xml:space="preserve">
<style type="text/css">
	.st0{fill:none;}
	.st1{fill:#FBB130;}
	.st2{fill:url(#SVGID_1_);fill-opacity:0.2;}
	.st3{fill:url(#SVGID_2_);fill-opacity:0.2;}
	.st4{fill:#F77B09;}
	.st5{fill:#00CEB3;}
	.st6{fill:url(#SVGID_3_);fill-opacity:0.2;}
	.st7{fill:url(#SVGID_4_);fill-opacity:0.2;}
	.st8{fill:#006158;}
	.st9{fill:#1BB6F9;}
	.st10{fill:url(#SVGID_5_);fill-opacity:0.2;}
	.st11{fill:url(#SVGID_6_);fill-opacity:0.2;}
	.st12{fill:#102E7A;}
	.st13{fill:url(#SVGID_7_);fill-opacity:0.2;}
	.st14{fill:url(#SVGID_8_);fill-opacity:0.2;}
	.st15{fill:url(#SVGID_9_);fill-opacity:0.2;}
	.st16{fill:url(#SVGID_10_);fill-opacity:0.2;}
	.st17{fill:url(#SVGID_11_);fill-opacity:0.2;}
	.st18{fill:url(#SVGID_12_);fill-opacity:0.2;}
</style>
<metadata  id="CorelCorpID_0Corel-Layer">
	<sfw  xmlns="&ns_sfw;">
		<slices></slices>
		<sliceSourceBounds  bottomLeftOrigin="true" height="122.9" width="122.9" x="-0.2" y="-0.2"></sliceSourceBounds>
	</sfw>
</metadata>
<rect x="-0.2" y="0.2" class="st0" width="122.9" height="122.9"/>
<g id="_1873289427872">
	<path class="st1" d="M39,20.4v14.9L24.1,40l-15-4.7v-4.6c0.2-8.2,7.4-10.4,10.2-10.3H39z"/>
	<path class="st1" d="M39,42.8v71.9c0,1.6-1.3,2.9-2.9,2.9H12c-1.6,0-2.9-1.3-2.9-2.9V42.8L24,40L39,42.8z"/>
	<linearGradient id="SVGID_1_" gradientUnits="userSpaceOnUse" x1="9.0878" y1="78.7606" x2="39.0227" y2="78.7606">
		<stop  offset="0" style="stop-color:#FFFFFF"/>
		<stop  offset="1" style="stop-color:#FFFFFF;stop-opacity:0"/>
	</linearGradient>
	<path class="st2" d="M39,42.8v71.9c0,1.6-1.3,2.9-2.9,2.9H12c-1.6,0-2.9-1.3-2.9-2.9V42.8L24,40L39,42.8z"/>
	
		<linearGradient id="SVGID_2_" gradientUnits="userSpaceOnUse" x1="9.0878" y1="93.7152" x2="39.0227" y2="93.7152" gradientTransform="matrix(1 0 0 -1 0 123.8898)">
		<stop  offset="0" style="stop-color:#FFFFFF"/>
		<stop  offset="1" style="stop-color:#FFFFFF;stop-opacity:0"/>
	</linearGradient>
	<path class="st3" d="M39,20.4v14.9L24.1,40l-15-4.7v-4.6c0.2-8.2,7.4-10.4,10.2-10.3H39z"/>
	<polygon class="st4" points="16.5,57.8 31.5,57.8 31.5,95.2 16.5,95.2 	"/>
	<path class="st5" d="M76.4,5.4v14.9l-14.9,2.8l-14.9-2.8v-4.9c-0.4-2.1,1.8-9.7,9.9-10H76.4z"/>
	<path class="st5" d="M76.4,27.8v86.8c0,1.6-1.3,2.9-2.9,2.9H49.4c-1.6,0-2.9-1.3-2.9-2.9V27.8l14.9-4.7L76.4,27.8z"/>
	<linearGradient id="SVGID_3_" gradientUnits="userSpaceOnUse" x1="46.4825" y1="70.3444" x2="76.4175" y2="70.3444">
		<stop  offset="0" style="stop-color:#FFFFFF"/>
		<stop  offset="1" style="stop-color:#FFFFFF;stop-opacity:0"/>
	</linearGradient>
	<path class="st6" d="M76.4,27.8v86.8c0,1.6-1.3,2.9-2.9,2.9H49.4c-1.6,0-2.9-1.3-2.9-2.9V27.8l14.9-4.7L76.4,27.8z"/>
	
		<linearGradient id="SVGID_4_" gradientUnits="userSpaceOnUse" x1="46.4429" y1="109.6853" x2="76.3816" y2="109.6853" gradientTransform="matrix(1 0 0 -1 0 123.8898)">
		<stop  offset="0" style="stop-color:#FFFFFF"/>
		<stop  offset="1" style="stop-color:#FFFFFF;stop-opacity:0"/>
	</linearGradient>
	<path class="st7" d="M76.4,5.4v14.9l-14.9,2.8l-14.9-2.8v-4.9c-0.4-2.1,1.8-9.7,9.9-10H76.4z"/>
	<polygon class="st8" points="53.9,42.8 68.9,42.8 68.9,95.2 53.9,95.2 	"/>
	<path class="st9" d="M113.8,12.9v14.9l-14.7,4.7l-15.2-4.7v-4.7C84,16,90.2,12.7,94.2,12.9H113.8z"/>
	<path class="st9" d="M113.8,35.3v79.4c0,1.6-1.3,2.9-2.9,2.9H86.7c-1.6,0-2.9-1.3-2.9-2.9V35.3l15.2-2.8L113.8,35.3z"/>
	<linearGradient id="SVGID_5_" gradientUnits="userSpaceOnUse" x1="83.8773" y1="75.0307" x2="113.8122" y2="75.0307">
		<stop  offset="0" style="stop-color:#FFFFFF"/>
		<stop  offset="1" style="stop-color:#FFFFFF;stop-opacity:0"/>
	</linearGradient>
	<path class="st10" d="M113.8,35.3v79.4c0,1.6-1.3,2.9-2.9,2.9H86.7c-1.6,0-2.9-1.3-2.9-2.9V35.3l15.2-2.8L113.8,35.3z"/>
	
		<linearGradient id="SVGID_6_" gradientUnits="userSpaceOnUse" x1="83.8773" y1="101.1775" x2="113.8122" y2="101.1775" gradientTransform="matrix(1 0 0 -1 0 123.8898)">
		<stop  offset="0" style="stop-color:#FFFFFF"/>
		<stop  offset="1" style="stop-color:#FFFFFF;stop-opacity:0"/>
	</linearGradient>
	<path class="st11" d="M113.8,12.9v14.9l-14.7,4.7l-15.2-4.7v-4.7C84,16,90.2,12.7,94.2,12.9H113.8z"/>
	<polygon class="st12" points="91.3,50.3 106.3,50.3 106.3,95.2 91.3,95.2 	"/>
	<polygon class="st4" points="9.1,35.3 39,35.3 39,42.8 9.1,42.8 	"/>
	
		<linearGradient id="SVGID_7_" gradientUnits="userSpaceOnUse" x1="16.5476" y1="47.4246" x2="31.5041" y2="47.4246" gradientTransform="matrix(1 0 0 -1 0 123.8898)">
		<stop  offset="0" style="stop-color:#FFFFFF"/>
		<stop  offset="1" style="stop-color:#FFFFFF;stop-opacity:0"/>
	</linearGradient>
	<polygon class="st13" points="16.5,57.8 31.5,57.8 31.5,95.2 16.5,95.2 	"/>
	
		<linearGradient id="SVGID_8_" gradientUnits="userSpaceOnUse" x1="9.0878" y1="84.8671" x2="39.0227" y2="84.8671" gradientTransform="matrix(1 0 0 -1 0 123.8898)">
		<stop  offset="0" style="stop-color:#FFFFFF"/>
		<stop  offset="1" style="stop-color:#FFFFFF;stop-opacity:0"/>
	</linearGradient>
	<polygon class="st14" points="9.1,35.3 39,35.3 39,42.8 9.1,42.8 	"/>
	<polygon class="st8" points="46.5,20.4 76.4,20.4 76.4,27.8 46.5,27.8 	"/>
	
		<linearGradient id="SVGID_9_" gradientUnits="userSpaceOnUse" x1="53.9424" y1="54.9322" x2="68.8988" y2="54.9322" gradientTransform="matrix(1 0 0 -1 0 123.8898)">
		<stop  offset="0" style="stop-color:#FFFFFF"/>
		<stop  offset="1" style="stop-color:#FFFFFF;stop-opacity:0"/>
	</linearGradient>
	<polygon class="st15" points="53.9,42.8 68.9,42.8 68.9,95.2 53.9,95.2 	"/>
	
		<linearGradient id="SVGID_10_" gradientUnits="userSpaceOnUse" x1="46.4825" y1="99.7867" x2="76.4175" y2="99.7867" gradientTransform="matrix(1 0 0 -1 0 123.8898)">
		<stop  offset="0" style="stop-color:#FFFFFF"/>
		<stop  offset="1" style="stop-color:#FFFFFF;stop-opacity:0"/>
	</linearGradient>
	<polygon class="st16" points="46.5,20.4 76.4,20.4 76.4,27.8 46.5,27.8 	"/>
	<polygon class="st12" points="83.9,27.8 113.8,27.8 113.8,35.3 83.9,35.3 	"/>
	
		<linearGradient id="SVGID_11_" gradientUnits="userSpaceOnUse" x1="91.3371" y1="51.1545" x2="106.2937" y2="51.1545" gradientTransform="matrix(1 0 0 -1 0 123.8898)">
		<stop  offset="0" style="stop-color:#FFFFFF"/>
		<stop  offset="1" style="stop-color:#FFFFFF;stop-opacity:0"/>
	</linearGradient>
	<polygon class="st17" points="91.3,50.3 106.3,50.3 106.3,95.2 91.3,95.2 	"/>
	
		<linearGradient id="SVGID_12_" gradientUnits="userSpaceOnUse" x1="83.8773" y1="92.3269" x2="113.8122" y2="92.3269" gradientTransform="matrix(1 0 0 -1 0 123.8898)">
		<stop  offset="0" style="stop-color:#FFFFFF"/>
		<stop  offset="1" style="stop-color:#FFFFFF;stop-opacity:0"/>
	</linearGradient>
	<polygon class="st18" points="83.9,27.8 113.8,27.8 113.8,35.3 83.9,35.3 	"/>
</g>
</svg>
