<?xml version="1.0" encoding="utf-8"?>
<!-- Generator: Adobe Illustrator 24.2.3, SVG Export Plug-In . SVG Version: 6.00 Build 0)  -->
<!DOCTYPE svg PUBLIC "-//W3C//DTD SVG 1.1//EN" "http://www.w3.org/Graphics/SVG/1.1/DTD/svg11.dtd" [
	<!ENTITY ns_extend "http://ns.adobe.com/Extensibility/1.0/">
	<!ENTITY ns_ai "http://ns.adobe.com/AdobeIllustrator/10.0/">
	<!ENTITY ns_graphs "http://ns.adobe.com/Graphs/1.0/">
	<!ENTITY ns_vars "http://ns.adobe.com/Variables/1.0/">
	<!ENTITY ns_imrep "http://ns.adobe.com/ImageReplacement/1.0/">
	<!ENTITY ns_sfw "http://ns.adobe.com/SaveForWeb/1.0/">
	<!ENTITY ns_custom "http://ns.adobe.com/GenericCustomNamespace/1.0/">
	<!ENTITY ns_adobe_xpath "http://ns.adobe.com/XPath/1.0/">
]>
<svg version="1.1"
	 id="Layer_1" xmlns:x="&ns_extend;" xmlns:i="&ns_ai;" xmlns:graph="&ns_graphs;" xmlns:xodm="http://www.corel.com/coreldraw/odm/2003"
	 xmlns="http://www.w3.org/2000/svg" xmlns:xlink="http://www.w3.org/1999/xlink" x="0px" y="0px" viewBox="0 0 122.9 122.9"
	 style="enable-background:new 0 0 122.9 122.9;" xml:space="preserve">
<style type="text/css">
	.st0{fill:none;}
	.st1{fill:#FC787D;}
	.st2{fill:url(#SVGID_1_);fill-opacity:0.2;}
	.st3{fill:#911E3D;}
	.st4{fill:url(#SVGID_2_);fill-opacity:0.2;}
	.st5{fill:#FFFFFF;}
</style>
<metadata  id="CorelCorpID_0Corel-Layer">
	<sfw  xmlns="&ns_sfw;">
		<slices></slices>
		<sliceSourceBounds  bottomLeftOrigin="true" height="122.9" width="122.9" x="0" y="0"></sliceSourceBounds>
	</sfw>
</metadata>
<rect x="0" class="st0" width="122.9" height="122.9"/>
<g id="Layer_2">
	<path class="st1" d="M96.7,118.3H26.3c-12,0-21.7-9.5-21.7-21.2V4.6h81.2c6,0,10.8,4.7,10.8,10.6V118.3z"/>
	
		<linearGradient id="SVGID_1_" gradientUnits="userSpaceOnUse" x1="-4.3898" y1="74.5658" x2="106.1182" y2="52.201" gradientTransform="matrix(1 0 0 -1 0 123.8898)">
		<stop  offset="0" style="stop-color:#FFFFFF"/>
		<stop  offset="1" style="stop-color:#FFFFFF;stop-opacity:0"/>
	</linearGradient>
	<path class="st2" d="M96.7,118.3H26.3c-12,0-21.7-9.5-21.7-21.2V4.6h81.2c6,0,10.8,4.7,10.8,10.6V118.3z"/>
	<path class="st3" d="M26.3,118.3h70.4c2.8,0,5.7-0.6,8.3-1.6c2.6-1.1,5-2.7,7-4.7c2-2,3.6-4.4,4.7-7c1.1-2.6,1.6-5.4,1.6-8.3H48
		C48,108.6,38.3,118.3,26.3,118.3z"/>
	
		<linearGradient id="SVGID_2_" gradientUnits="userSpaceOnUse" x1="45.3095" y1="45.1319" x2="99.3439" y2="-12.2796" gradientTransform="matrix(1 0 0 -1 0 123.8898)">
		<stop  offset="0" style="stop-color:#FFFFFF"/>
		<stop  offset="1" style="stop-color:#FFFFFF;stop-opacity:0"/>
	</linearGradient>
	<path class="st4" d="M26.3,118.3h70.4c2.8,0,5.7-0.6,8.3-1.6c2.6-1.1,5-2.7,7-4.7c2-2,3.6-4.4,4.7-7c1.1-2.6,1.6-5.4,1.6-8.3H48
		C48,108.6,38.3,118.3,26.3,118.3z"/>
</g>
<g id="Layer_2_1_">
	<path class="st5" d="M39.1,24.1c0,5.4-4.3,9.7-9.7,9.7s-9.7-4.3-9.7-9.7s4.3-9.7,9.7-9.7S39.1,18.7,39.1,24.1z"/>
	<path class="st5" d="M15.5,38h14.9c7.1,0,12.8,5.7,12.8,12.8H28.4C21.3,50.8,15.5,45.1,15.5,38z"/>
</g>
</svg>
