<?xml version="1.0" encoding="utf-8"?>
<!-- Generator: Adobe Illustrator 24.2.3, SVG Export Plug-In . SVG Version: 6.00 Build 0)  -->
<!DOCTYPE svg PUBLIC "-//W3C//DTD SVG 1.1//EN" "http://www.w3.org/Graphics/SVG/1.1/DTD/svg11.dtd" [
	<!ENTITY ns_extend "http://ns.adobe.com/Extensibility/1.0/">
	<!ENTITY ns_ai "http://ns.adobe.com/AdobeIllustrator/10.0/">
	<!ENTITY ns_graphs "http://ns.adobe.com/Graphs/1.0/">
	<!ENTITY ns_vars "http://ns.adobe.com/Variables/1.0/">
	<!ENTITY ns_imrep "http://ns.adobe.com/ImageReplacement/1.0/">
	<!ENTITY ns_sfw "http://ns.adobe.com/SaveForWeb/1.0/">
	<!ENTITY ns_custom "http://ns.adobe.com/GenericCustomNamespace/1.0/">
	<!ENTITY ns_adobe_xpath "http://ns.adobe.com/XPath/1.0/">
]>
<svg version="1.1" id="Layer_3" xmlns:x="&ns_extend;" xmlns:i="&ns_ai;" xmlns:graph="&ns_graphs;"
	 xmlns="http://www.w3.org/2000/svg" xmlns:xlink="http://www.w3.org/1999/xlink" x="0px" y="0px" viewBox="0 0 122.9 122.9"
	 style="enable-background:new 0 0 122.9 122.9;" xml:space="preserve">
<style type="text/css">
	.st0{fill:none;}
	.st1{fill:#FBB130;}
	.st2{fill:url(#SVGID_1_);fill-opacity:0.2;}
	.st3{fill:#00A079;}
	.st4{fill:url(#SVGID_2_);fill-opacity:0.2;}
	.st5{fill:#FFFFFF;}
</style>
<metadata  id="CorelCorpID_0Corel-Layer">
	<sfw  xmlns="&ns_sfw;">
		<slices></slices>
		<sliceSourceBounds  bottomLeftOrigin="true" height="122.9" width="122.9" x="0" y="0"></sliceSourceBounds>
	</sfw>
</metadata>
<rect y="0" class="st0" width="122.9" height="122.9"/>
<g id="Hotel_1_">
	<path class="st1" d="M103.4,107h-28l-7-21l7-28h22c3.3,0,6,2.7,6,6V107z"/>
	
		<linearGradient id="SVGID_1_" gradientUnits="userSpaceOnUse" x1="68.45" y1="41.3898" x2="103.4903" y2="41.3898" gradientTransform="matrix(1 0 0 -1 0 123.8898)">
		<stop  offset="0" style="stop-color:#FFFFFF"/>
		<stop  offset="1" style="stop-color:#FFFFFF;stop-opacity:0"/>
	</linearGradient>
	<path class="st2" d="M103.4,107h-28l-7-21l7-28h22c3.3,0,6,2.7,6,6V107z"/>
	<path class="st3" d="M75.4,21.9V107h-21l-7-14l-7,14h-21V21.9c0-3.3,2.7-6,6-6h44.1C72.8,15.9,75.4,18.6,75.4,21.9z"/>
	
		<linearGradient id="SVGID_2_" gradientUnits="userSpaceOnUse" x1="19.3678" y1="62.4398" x2="75.4323" y2="62.4398" gradientTransform="matrix(1 0 0 -1 0 123.8898)">
		<stop  offset="0" style="stop-color:#FFFFFF"/>
		<stop  offset="1" style="stop-color:#FFFFFF;stop-opacity:0"/>
	</linearGradient>
	<path class="st4" d="M75.4,21.9V107h-21l-7-14l-7,14h-21V21.9c0-3.3,2.7-6,6-6h44.1C72.8,15.9,75.4,18.6,75.4,21.9z"/>
	<g>
		<path class="st5" d="M40.4,93h14v14h-14V93z"/>
	</g>
</g>
</svg>
