<?xml version="1.0" encoding="utf-8"?>
<!-- Generator: Adobe Illustrator 24.2.3, SVG Export Plug-In . SVG Version: 6.00 Build 0)  -->
<!DOCTYPE svg PUBLIC "-//W3C//DTD SVG 1.1//EN" "http://www.w3.org/Graphics/SVG/1.1/DTD/svg11.dtd" [
	<!ENTITY ns_extend "http://ns.adobe.com/Extensibility/1.0/">
	<!ENTITY ns_ai "http://ns.adobe.com/AdobeIllustrator/10.0/">
	<!ENTITY ns_graphs "http://ns.adobe.com/Graphs/1.0/">
	<!ENTITY ns_vars "http://ns.adobe.com/Variables/1.0/">
	<!ENTITY ns_imrep "http://ns.adobe.com/ImageReplacement/1.0/">
	<!ENTITY ns_sfw "http://ns.adobe.com/SaveForWeb/1.0/">
	<!ENTITY ns_custom "http://ns.adobe.com/GenericCustomNamespace/1.0/">
	<!ENTITY ns_adobe_xpath "http://ns.adobe.com/XPath/1.0/">
]>
<svg version="1.1"
	 id="Layer_1" xmlns:x="&ns_extend;" xmlns:i="&ns_ai;" xmlns:graph="&ns_graphs;" xmlns:xodm="http://www.corel.com/coreldraw/odm/2003"
	 xmlns="http://www.w3.org/2000/svg" xmlns:xlink="http://www.w3.org/1999/xlink" x="0px" y="0px" viewBox="0 0 122.9 122.9"
	 style="enable-background:new 0 0 122.9 122.9;" xml:space="preserve">
<style type="text/css">
	.st0{fill:none;}
	.st1{fill-rule:evenodd;clip-rule:evenodd;fill:#FBB130;}
	.st2{fill-rule:evenodd;clip-rule:evenodd;fill:url(#SVGID_1_);fill-opacity:0.2;}
	.st3{fill-rule:evenodd;clip-rule:evenodd;fill:#006158;}
	.st4{fill-rule:evenodd;clip-rule:evenodd;fill:url(#SVGID_2_);fill-opacity:0.2;}
	.st5{fill-rule:evenodd;clip-rule:evenodd;fill:#00A079;}
	.st6{fill-rule:evenodd;clip-rule:evenodd;fill:url(#SVGID_3_);fill-opacity:0.2;}
	.st7{fill-rule:evenodd;clip-rule:evenodd;fill:#EBF6F0;}
	.st8{fill-rule:evenodd;clip-rule:evenodd;fill:url(#SVGID_4_);}
	.st9{fill-rule:evenodd;clip-rule:evenodd;fill:url(#SVGID_5_);fill-opacity:0.2;}
</style>
<metadata  id="CorelCorpID_0Corel-Layer">
	<sfw  xmlns="&ns_sfw;">
		<slices></slices>
		<sliceSourceBounds  bottomLeftOrigin="true" height="122.9" width="122.9" x="0" y="0"></sliceSourceBounds>
	</sfw>
</metadata>
<rect y="0" class="st0" width="122.9" height="122.9"/>
<g id="Layer_2_1_">
	<path class="st1" d="M52.9,16.7c-0.1-0.3-0.3-0.6-0.6-0.7s-0.7-0.1-1,0.1L16.6,41.8c-0.4,0.3-0.5,0.9-0.3,1.3
		c0.2,0.4,0.8,0.6,1.2,0.4c1.7-0.7,3.6-1.1,5.6-1.1h5.3c0.2,0,0.4-0.1,0.6-0.2l26.2-19.4c0.2-0.2,0.4-0.4,0.4-0.7
		c0-0.3-0.1-0.6-0.3-0.8C54.1,20.1,53.2,18.5,52.9,16.7z M71.6,16c-0.3-0.2-0.6-0.3-1-0.1C70.3,16,70,16.3,70,16.6
		c-0.3,1.8-1.2,3.4-2.5,4.6c-0.2,0.2-0.3,0.5-0.3,0.8s0.2,0.6,0.4,0.7l26.2,19.4c0.2,0.1,0.4,0.2,0.6,0.2h5.3c2,0,3.9,0.4,5.6,1.1
		c0.5,0.2,1,0,1.2-0.4s0.1-1-0.3-1.3L71.6,16z"/>
	<linearGradient id="SVGID_1_" gradientUnits="userSpaceOnUse" x1="16.2" y1="29.6847" x2="106.6" y2="29.6847">
		<stop  offset="0" style="stop-color:#FFFFFF"/>
		<stop  offset="1" style="stop-color:#FFFFFF;stop-opacity:0"/>
	</linearGradient>
	<path class="st2" d="M52.9,16.7c-0.1-0.3-0.3-0.6-0.6-0.7s-0.7-0.1-1,0.1L16.6,41.8c-0.4,0.3-0.5,0.9-0.3,1.3
		c0.2,0.4,0.8,0.6,1.2,0.4c1.7-0.7,3.6-1.1,5.6-1.1h5.3c0.2,0,0.4-0.1,0.6-0.2l26.2-19.4c0.2-0.2,0.4-0.4,0.4-0.7
		c0-0.3-0.1-0.6-0.3-0.8C54.1,20.1,53.2,18.5,52.9,16.7z M71.6,16c-0.3-0.2-0.6-0.3-1-0.1C70.3,16,70,16.3,70,16.6
		c-0.3,1.8-1.2,3.4-2.5,4.6c-0.2,0.2-0.3,0.5-0.3,0.8s0.2,0.6,0.4,0.7l26.2,19.4c0.2,0.1,0.4,0.2,0.6,0.2h5.3c2,0,3.9,0.4,5.6,1.1
		c0.5,0.2,1,0,1.2-0.4s0.1-1-0.3-1.3L71.6,16z"/>
	<path class="st3" d="M116.8,57.5c0-9.4-7.7-17.1-17.1-17.1H23.2c-9.4,0-17.1,7.7-17.1,17.1v43.8c0,9.4,7.7,17.1,17.1,17.1h76.6
		c9.4,0,17.1-7.7,17.1-17.1L116.8,57.5L116.8,57.5z"/>
	<linearGradient id="SVGID_2_" gradientUnits="userSpaceOnUse" x1="6.1" y1="79.4" x2="116.9" y2="79.4">
		<stop  offset="0" style="stop-color:#FFFFFF"/>
		<stop  offset="1" style="stop-color:#FFFFFF;stop-opacity:0"/>
	</linearGradient>
	<path class="st4" d="M116.8,57.5c0-9.4-7.7-17.1-17.1-17.1H23.2c-9.4,0-17.1,7.7-17.1,17.1v43.8c0,9.4,7.7,17.1,17.1,17.1h76.6
		c9.4,0,17.1-7.7,17.1-17.1L116.8,57.5L116.8,57.5z"/>
	<path class="st5" d="M109.4,57.5c0-5.3-4.3-9.6-9.6-9.6H23.2c-5.3,0-9.7,4.3-9.7,9.6v43.8c0,5.3,4.3,9.6,9.7,9.6h76.6
		c5.3,0,9.6-4.3,9.6-9.6V57.5z"/>
	<linearGradient id="SVGID_3_" gradientUnits="userSpaceOnUse" x1="13.5" y1="79.4" x2="109.4" y2="79.4">
		<stop  offset="0" style="stop-color:#FFFFFF"/>
		<stop  offset="1" style="stop-color:#FFFFFF;stop-opacity:0"/>
	</linearGradient>
	<path class="st6" d="M109.4,57.5c0-5.3-4.3-9.6-9.6-9.6H23.2c-5.3,0-9.7,4.3-9.7,9.6v43.8c0,5.3,4.3,9.6,9.7,9.6h76.6
		c5.3,0,9.6-4.3,9.6-9.6V57.5z"/>
	<path class="st7" d="M28.4,72.7h66c0.6,0,1-0.4,1-1s-0.4-1-1-1h-66c-0.6,0-1,0.4-1,1C27.4,72.2,27.9,72.7,28.4,72.7L28.4,72.7z"/>
	<path class="st7" d="M28.4,88.2h66c0.6,0,1-0.4,1-1s-0.4-1-1-1h-66c-0.6,0-1,0.4-1,1C27.4,87.8,27.9,88.2,28.4,88.2L28.4,88.2z"/>
	
		<linearGradient id="SVGID_4_" gradientUnits="userSpaceOnUse" x1="50.7414" y1="108.8898" x2="72.1414" y2="108.8898" gradientTransform="matrix(1 0 0 -1 0 123.8898)">
		<stop  offset="0" style="stop-color:#FBB232"/>
		<stop  offset="1" style="stop-color:#FCBB4B"/>
	</linearGradient>
	<circle class="st8" cx="61.5" cy="15" r="10.7"/>
	<circle class="st3" cx="61.5" cy="15" r="6.8"/>
	<linearGradient id="SVGID_5_" gradientUnits="userSpaceOnUse" x1="54.7" y1="15" x2="68.3" y2="15">
		<stop  offset="0" style="stop-color:#FFFFFF"/>
		<stop  offset="1" style="stop-color:#FFFFFF;stop-opacity:0"/>
	</linearGradient>
	<circle class="st9" cx="61.5" cy="15" r="6.8"/>
</g>
</svg>
