<?xml version="1.0" encoding="utf-8"?>
<!-- Generator: Adobe Illustrator 24.2.3, SVG Export Plug-In . SVG Version: 6.00 Build 0)  -->
<!DOCTYPE svg PUBLIC "-//W3C//DTD SVG 1.1//EN" "http://www.w3.org/Graphics/SVG/1.1/DTD/svg11.dtd" [
	<!ENTITY ns_extend "http://ns.adobe.com/Extensibility/1.0/">
	<!ENTITY ns_ai "http://ns.adobe.com/AdobeIllustrator/10.0/">
	<!ENTITY ns_graphs "http://ns.adobe.com/Graphs/1.0/">
	<!ENTITY ns_vars "http://ns.adobe.com/Variables/1.0/">
	<!ENTITY ns_imrep "http://ns.adobe.com/ImageReplacement/1.0/">
	<!ENTITY ns_sfw "http://ns.adobe.com/SaveForWeb/1.0/">
	<!ENTITY ns_custom "http://ns.adobe.com/GenericCustomNamespace/1.0/">
	<!ENTITY ns_adobe_xpath "http://ns.adobe.com/XPath/1.0/">
]>
<svg version="1.1" id="Layer_2_1_" xmlns:x="&ns_extend;" xmlns:i="&ns_ai;" xmlns:graph="&ns_graphs;"
	 xmlns="http://www.w3.org/2000/svg" xmlns:xlink="http://www.w3.org/1999/xlink" x="0px" y="0px" viewBox="0 0 122.9 122.9"
	 style="enable-background:new 0 0 122.9 122.9;" xml:space="preserve">
<style type="text/css">
	.st0{fill:none;}
	.st1{fill-rule:evenodd;clip-rule:evenodd;fill:#00A079;}
	.st2{fill-rule:evenodd;clip-rule:evenodd;fill:url(#SVGID_1_);fill-opacity:0.2;}
	.st3{fill:#FBB130;}
	.st4{fill:url(#SVGID_2_);fill-opacity:0.2;}
	.st5{fill:#00A079;}
	.st6{fill:url(#SVGID_3_);fill-opacity:0.2;}
</style>
<metadata  id="CorelCorpID_0Corel-Layer">
	<sfw  xmlns="&ns_sfw;">
		<slices></slices>
		<sliceSourceBounds  bottomLeftOrigin="true" height="122.9" width="122.9" x="0" y="0"></sliceSourceBounds>
	</sfw>
</metadata>
<rect y="0" class="st0" width="122.9" height="122.9"/>
<g>
	<path class="st1" d="M103.8,83.3V47.5h9.8v35.9c0,2.7-2.2,4.9-4.9,4.9C106,88.2,103.8,86,103.8,83.3z"/>
	
		<linearGradient id="SVGID_1_" gradientUnits="userSpaceOnUse" x1="103.8203" y1="55.9648" x2="113.5986" y2="55.9648" gradientTransform="matrix(1 0 0 -1 0 123.8898)">
		<stop  offset="0" style="stop-color:#FFFFFF"/>
		<stop  offset="1" style="stop-color:#FFFFFF;stop-opacity:0"/>
	</linearGradient>
	<path class="st2" d="M103.8,83.3V47.5h9.8v35.9c0,2.7-2.2,4.9-4.9,4.9C106,88.2,103.8,86,103.8,83.3z"/>
	<path class="st3" d="M87.9,73.2c0,14.6-11.8,26.4-26.4,26.4S35,87.8,35,73.2s11.9-26.4,26.4-26.4S87.9,58.6,87.9,73.2z"/>
	
		<linearGradient id="SVGID_2_" gradientUnits="userSpaceOnUse" x1="35" y1="50.6648" x2="87.8" y2="50.6648" gradientTransform="matrix(1 0 0 -1 0 123.8898)">
		<stop  offset="0" style="stop-color:#FFFFFF"/>
		<stop  offset="1" style="stop-color:#FFFFFF;stop-opacity:0"/>
	</linearGradient>
	<path class="st4" d="M87.9,73.2c0,14.6-11.8,26.4-26.4,26.4S35,87.8,35,73.2s11.9-26.4,26.4-26.4S87.9,58.6,87.9,73.2z"/>
	<path class="st5" d="M9.5,44.5l44-19.6c5.1-2.2,10.8-2.2,15.9,0l44,19.6c2.6,1.1,2.6,4.8,0,6L69.4,70c-5.1,2.2-10.8,2.2-15.9,0
		l-44-19.6C6.9,49.3,6.9,45.7,9.5,44.5L9.5,44.5z"/>
	
		<linearGradient id="SVGID_3_" gradientUnits="userSpaceOnUse" x1="7.55" y1="76.4148" x2="115.35" y2="76.4148" gradientTransform="matrix(1 0 0 -1 0 123.8898)">
		<stop  offset="0" style="stop-color:#FFFFFF"/>
		<stop  offset="1" style="stop-color:#FFFFFF;stop-opacity:0"/>
	</linearGradient>
	<path class="st6" d="M9.5,44.5l44-19.6c5.1-2.2,10.8-2.2,15.9,0l44,19.6c2.6,1.1,2.6,4.8,0,6L69.4,70c-5.1,2.2-10.8,2.2-15.9,0
		l-44-19.6C6.9,49.3,6.9,45.7,9.5,44.5L9.5,44.5z"/>
</g>
<g id="Layer_3">
</g>
</svg>
