<svg version="1.1" id="Capa_1" xmlns="http://www.w3.org/2000/svg" xmlns:xlink="http://www.w3.org/1999/xlink" x="0px" y="0px" viewBox="0 0 512 512" style="enable-background:new 0 0 512 512;" xml:space="preserve">
<g>
	<g>
		<rect x="435.731" y="188.412" style="fill:#FDCB50;" width="66.269" height="232.179"/>
		<rect x="10" y="152.057" style="fill:#FD7DA0;" width="66.269" height="268.534"/>
		<rect x="164.629" y="127.362" style="fill:#BC9AF4;" width="54.22" height="293.229"/>
		<path style="fill:#6864F7;" d="M164.629,227.534v193.057h54.22V245.225C199.748,241.799,181.551,235.772,164.629,227.534z"/>
		<rect x="435.731" y="271.104" style="fill:#FFFFFF;" width="66.269" height="66.796"/>
		<polygon style="fill:#D2DCFD;" points="164.629,222.986 164.629,354.89 218.849,324.967 218.849,193.063 &#9;&#9;"/>
		<path style="fill:#93B2F4;" d="M164.629,227.534V354.89l54.22-29.923v-79.742C199.748,241.799,181.551,235.772,164.629,227.534z"/>
		<rect x="10" y="152.057" style="fill:#FDCB50;" width="66.269" height="51.153"/>
		<rect x="293.151" y="166.096" style="fill:#B1D952;" width="54.22" height="254.496"/>
		<path style="fill:#91B706;" d="M293.151,245.225v175.366h54.22V227.534C330.449,235.772,312.252,241.799,293.151,245.225z"/>
		<rect x="347.371" y="118.835" style="fill:#FD7DA0;" width="88.359" height="301.756"/>
		<path style="fill:#DB4B86;" d="M347.371,227.534v193.057h88.359V146.252C414.904,181.236,384.162,209.624,347.371,227.534z"/>
		<rect x="76.269" y="118.835" style="fill:#67CCD1;" width="88.359" height="301.756"/>
		<path style="fill:#27A2CC;" d="M76.269,146.251v274.34h88.359V227.534C127.838,209.624,97.096,181.236,76.269,146.251z"/>
		<rect x="218.849" y="91.409" style="fill:#FDCB50;" width="74.302" height="329.182"/>
		<path style="fill:#FD8F01;" d="M256,248.518c-12.679,0-25.094-1.131-37.151-3.293v175.366h74.302V245.225&#10;&#9;&#9;&#9;C281.094,247.388,268.679,248.518,256,248.518z"/>
	</g>
	<g>
		
			<line style="fill:none;stroke:#6864F7;stroke-width:20;stroke-linecap:round;stroke-linejoin:round;stroke-miterlimit:10;" x1="391.551" y1="163.014" x2="391.551" y2="223.518"/>
		
			<line style="fill:none;stroke:#FFFFFF;stroke-width:20;stroke-linecap:round;stroke-linejoin:round;stroke-miterlimit:10;" x1="120.449" y1="163.014" x2="120.449" y2="280.875"/>
		
			<line style="fill:none;stroke:#FFFFFF;stroke-width:20;stroke-linecap:round;stroke-linejoin:round;stroke-miterlimit:10;" x1="120.449" y1="346.16" x2="120.449" y2="376.411"/>
		
			<line style="fill:none;stroke:#DB4B86;stroke-width:20;stroke-linejoin:round;stroke-miterlimit:10;" x1="218.849" y1="142.562" x2="293.151" y2="142.562"/>
		
			<line style="fill:none;stroke:#DB4B86;stroke-width:20;stroke-linejoin:round;stroke-miterlimit:10;" x1="293.151" y1="369.438" x2="218.849" y2="369.438"/>
		
			<rect x="218.849" y="91.409" style="fill:none;stroke:#052A75;stroke-width:20;stroke-linejoin:round;stroke-miterlimit:10;" width="74.302" height="329.182"/>
		
			<rect x="293.151" y="166.096" style="fill:none;stroke:#052A75;stroke-width:20;stroke-linejoin:round;stroke-miterlimit:10;" width="54.22" height="254.496"/>
		
			<rect x="164.629" y="127.362" style="fill:none;stroke:#052A75;stroke-width:20;stroke-linejoin:round;stroke-miterlimit:10;" width="54.22" height="293.229"/>
		
			<rect x="347.371" y="118.835" style="fill:none;stroke:#052A75;stroke-width:20;stroke-linejoin:round;stroke-miterlimit:10;" width="88.359" height="301.756"/>
		
			<rect x="435.731" y="188.412" style="fill:none;stroke:#052A75;stroke-width:20;stroke-linejoin:round;stroke-miterlimit:10;" width="66.269" height="232.179"/>
		
			<rect x="10" y="152.057" style="fill:none;stroke:#052A75;stroke-width:20;stroke-linejoin:round;stroke-miterlimit:10;" width="66.269" height="268.534"/>
		
			<rect x="76.269" y="118.835" style="fill:none;stroke:#052A75;stroke-width:20;stroke-linejoin:round;stroke-miterlimit:10;" width="88.359" height="301.756"/>
	</g>
</g>
<g>
</g>
<g>
</g>
<g>
</g>
<g>
</g>
<g>
</g>
<g>
</g>
<g>
</g>
<g>
</g>
<g>
</g>
<g>
</g>
<g>
</g>
<g>
</g>
<g>
</g>
<g>
</g>
<g>
</g>
</svg>