<svg version="1.1" id="Capa_1" xmlns="http://www.w3.org/2000/svg" xmlns:xlink="http://www.w3.org/1999/xlink" x="0px" y="0px" viewBox="0 0 510 510" style="enable-background:new 0 0 510 510;" xml:space="preserve">
<g>
	<g>
		<g>
			<rect x="401.39" y="43.548" style="fill:#FD7DA0;" width="65.062" height="81.328"/>
			<rect x="401.39" y="320.062" style="fill:#B1D952;" width="65.062" height="81.328"/>
			<rect x="401.39" y="181.805" style="fill:#FDCB50;" width="65.062" height="81.328"/>
		</g>
		<g>
			<path style="fill:#67CCD1;" d="M76.079,10c-17.967,0-32.531,14.565-32.531,32.531v424.938l357.842-32.531V10H76.079z"/>
			<path style="fill:#27A2CC;" d="M135.064,238.734c0-83.733,23.309-162.023,63.791-228.734H76.079&#10;&#9;&#9;&#9;&#9;c-17.967,0-32.531,14.565-32.531,32.531v424.938l147.49-13.408C155.387,390.361,135.064,316.921,135.064,238.734z"/>
			<rect x="116.743" y="303.797" style="fill:#FFFFFF;" width="211.452" height="56.929"/>
		</g>
		<path style="fill:#FFFFFF;" d="M385.125,467.469c0-17.967,16.266-32.531,16.266-32.531H76.079&#10;&#9;&#9;&#9;c-17.966,0-32.531,14.565-32.531,32.531c0,17.966,14.565,32.531,32.531,32.531H401.39C401.39,500,385.125,485.435,385.125,467.469&#10;&#9;&#9;&#9;z"/>
	</g>
	<g>
		
			<polyline style="fill:none;stroke:#052A75;stroke-width:20;stroke-linecap:round;stroke-linejoin:round;stroke-miterlimit:10;" points="&#10;&#9;&#9;&#9;401.39,43.548 466.452,43.548 466.452,124.876 401.39,124.876 &#9;&#9;"/>
		
			<polyline style="fill:none;stroke:#052A75;stroke-width:20;stroke-linecap:round;stroke-linejoin:round;stroke-miterlimit:10;" points="&#10;&#9;&#9;&#9;401.39,320.062 466.452,320.062 466.452,401.39 401.39,401.39 &#9;&#9;"/>
		
			<polyline style="fill:none;stroke:#052A75;stroke-width:20;stroke-linecap:round;stroke-linejoin:round;stroke-miterlimit:10;" points="&#10;&#9;&#9;&#9;401.39,181.805 466.452,181.805 466.452,263.133 401.39,263.133 &#9;&#9;"/>
		<path style="fill:none;stroke:#052A75;stroke-width:20;stroke-linecap:round;stroke-linejoin:round;stroke-miterlimit:10;" d="&#10;&#9;&#9;&#9;M43.548,467.469V42.531C43.548,24.565,58.112,10,76.079,10H401.39v424.938"/>
		
			<polyline style="fill:none;stroke:#FFFFFF;stroke-width:20;stroke-linecap:round;stroke-linejoin:round;stroke-miterlimit:10;" points="&#10;&#9;&#9;&#9;124.876,198.07 165.539,100.477 206.203,198.07 &#9;&#9;"/>
		
			<line style="fill:none;stroke:#FFFFFF;stroke-width:20;stroke-linecap:round;stroke-linejoin:round;stroke-miterlimit:10;" x1="135.064" y1="173.672" x2="196.043" y2="173.672"/>
		<path style="fill:none;stroke:#FFFFFF;stroke-width:20;stroke-linecap:round;stroke-linejoin:round;stroke-miterlimit:10;" d="&#10;&#9;&#9;&#9;M320.062,230.602L320.062,230.602c-22.458,0-40.664-18.206-40.664-40.664c0,22.458-18.206,40.664-40.664,40.664l0,0"/>
		
			<line style="fill:none;stroke:#FFFFFF;stroke-width:20;stroke-linecap:round;stroke-linejoin:round;stroke-miterlimit:10;" x1="246.867" y1="173.672" x2="311.93" y2="173.672"/>
		
			<line style="fill:none;stroke:#FFFFFF;stroke-width:20;stroke-linecap:round;stroke-linejoin:round;stroke-miterlimit:10;" x1="279.398" y1="189.938" x2="279.398" y2="133.008"/>
		<path style="fill:none;stroke:#052A75;stroke-width:20;stroke-linecap:round;stroke-linejoin:round;stroke-miterlimit:10;" d="&#10;&#9;&#9;&#9;M385.125,467.469c0-17.967,16.266-32.531,16.266-32.531H76.079c-17.966,0-32.531,14.565-32.531,32.531&#10;&#9;&#9;&#9;c0,17.966,14.565,32.531,32.531,32.531H401.39C401.39,500,385.125,485.435,385.125,467.469z"/>
	</g>
</g>
<g>
</g>
<g>
</g>
<g>
</g>
<g>
</g>
<g>
</g>
<g>
</g>
<g>
</g>
<g>
</g>
<g>
</g>
<g>
</g>
<g>
</g>
<g>
</g>
<g>
</g>
<g>
</g>
<g>
</g>
</svg>