<svg version="1.1" id="Layer_1" xmlns="http://www.w3.org/2000/svg" xmlns:xlink="http://www.w3.org/1999/xlink" x="0px" y="0px" viewBox="0 0 512 512" style="enable-background:new 0 0 512 512;" xml:space="preserve">
<g>
	<g>
		<rect x="27.599" y="10" style="fill:#FFFFFF;" width="338.701" height="461.931"/>
		<path style="fill:#D2DCFD;" d="M148.011,165.257c0-54.667,10.04-106.997,28.381-155.257H27.599v461.931h245.957&#10;&#9;&#9;&#9;C195.892,392.881,148.011,284.643,148.011,165.257z"/>
		<rect x="75.331" y="97.868" style="fill:#FD7DA0;" width="50.891" height="135.874"/>
		<rect x="171.503" y="68.89" style="fill:#FDCB50;" width="50.891" height="164.852"/>
		<rect x="267.676" y="145.555" style="fill:#BC9AF4;" width="50.891" height="88.187"/>
		<ellipse style="fill:#67CCD1;" cx="364.283" cy="384.004" rx="111.903" ry="109.926"/>
	</g>
	<g>
		
			<polyline style="fill:none;stroke:#052A75;stroke-width:20;stroke-linecap:round;stroke-linejoin:round;stroke-miterlimit:10;" points="&#10;&#9;&#9;&#9;294.548,471.931 27.599,471.931 27.599,10 366.299,10 366.299,270.767 &#9;&#9;"/>
		<g>
			
				<line style="fill:none;stroke:#FD6050;stroke-width:20;stroke-linecap:round;stroke-linejoin:round;stroke-miterlimit:10;" x1="100.776" y1="307.464" x2="279.894" y2="307.464"/>
			
				<line style="fill:none;stroke:#FD6050;stroke-width:20;stroke-linecap:round;stroke-linejoin:round;stroke-miterlimit:10;" x1="100.776" y1="357.706" x2="252.38" y2="357.706"/>
			
				<line style="fill:none;stroke:#FD6050;stroke-width:20;stroke-linecap:round;stroke-linejoin:round;stroke-miterlimit:10;" x1="144.444" y1="407.949" x2="253.275" y2="407.949"/>
		</g>
		
			<ellipse style="fill:none;stroke:#052A75;stroke-width:20;stroke-linecap:round;stroke-linejoin:round;stroke-miterlimit:10;" cx="364.283" cy="384.004" rx="111.903" ry="109.926"/>
		
			<line style="fill:none;stroke:#052A75;stroke-width:20;stroke-linecap:round;stroke-linejoin:round;stroke-miterlimit:10;" x1="444.983" y1="463.279" x2="484.401" y2="502"/>
		<g>
			<g>
				<g>
					<path style="fill:none;stroke:#FFFFFF;stroke-width:20;stroke-linecap:round;stroke-linejoin:round;stroke-miterlimit:10;" d="&#10;&#9;&#9;&#9;&#9;&#9;&#9;M383.918,350.919c-4.425-6.189-15.554-10.788-30.099-6.488c-13.355,3.948-19.34,24.921-1.92,32.982&#10;&#9;&#9;&#9;&#9;&#9;&#9;c2.733,1.265,9.737,3.965,20.305,7.631c23.651,8.205,24.429,38.689-3.642,41.095c-9.353,0.802-22.691-1.666-29.788-10.312"/>
					
						<line style="fill:none;stroke:#FFFFFF;stroke-width:20;stroke-linecap:round;stroke-linejoin:round;stroke-miterlimit:10;" x1="363.127" y1="427.099" x2="363.127" y2="434.203"/>
					
						<line style="fill:none;stroke:#FFFFFF;stroke-width:20;stroke-linecap:round;stroke-linejoin:round;stroke-miterlimit:10;" x1="363.127" y1="333.806" x2="363.127" y2="342.25"/>
				</g>
			</g>
		</g>
	</g>
</g>
<g>
</g>
<g>
</g>
<g>
</g>
<g>
</g>
<g>
</g>
<g>
</g>
<g>
</g>
<g>
</g>
<g>
</g>
<g>
</g>
<g>
</g>
<g>
</g>
<g>
</g>
<g>
</g>
<g>
</g>
</svg>