<svg version="1.1" id="Capa_1" xmlns="http://www.w3.org/2000/svg" xmlns:xlink="http://www.w3.org/1999/xlink" x="0px" y="0px" viewBox="0 0 510 510" style="enable-background:new 0 0 510 510;" xml:space="preserve">
<g>
	<g>
		<polygon style="fill:#FFFFFF;" points="432.905,122.299 432.905,500 77.095,500 77.095,10 320.606,10 &#9;&#9;"/>
		<path style="fill:#D2DCFD;" d="M134.704,106.629c0-33.157,3.547-65.485,10.276-96.629H77.095v490h283.4&#10;&#9;&#9;&#9;C225.431,420.985,134.704,274.405,134.704,106.629z"/>
		<polygon style="fill:#D2DCFD;" points="320.606,10 320.606,122.299 432.905,122.299 &#9;&#9;"/>
	</g>
	<g>
		
			<polyline style="fill:none;stroke:#052A75;stroke-width:20;stroke-linecap:round;stroke-linejoin:round;stroke-miterlimit:10;" points="&#10;&#9;&#9;&#9;320.606,10 320.606,122.299 432.905,122.299 &#9;&#9;"/>
		
			<polygon style="fill:none;stroke:#052A75;stroke-width:20;stroke-linecap:round;stroke-linejoin:round;stroke-miterlimit:10;" points="&#10;&#9;&#9;&#9;432.905,122.299 432.905,500 77.095,500 77.095,10 320.606,10 &#9;&#9;"/>
		
			<line style="fill:none;stroke:#FD6050;stroke-width:20;stroke-linecap:round;stroke-linejoin:round;stroke-miterlimit:10;" x1="314.471" y1="171.639" x2="314.471" y2="251.95"/>
		
			<line style="fill:none;stroke:#FD6050;stroke-width:20;stroke-linecap:round;stroke-linejoin:round;stroke-miterlimit:10;" x1="354.627" y1="211.795" x2="274.315" y2="211.795"/>
		
			<line style="fill:none;stroke:#052A75;stroke-width:20;stroke-linecap:round;stroke-linejoin:round;stroke-miterlimit:10;" x1="122.842" y1="70.996" x2="251.95" y2="70.996"/>
		
			<line style="fill:none;stroke:#052A75;stroke-width:20;stroke-linecap:round;stroke-linejoin:round;stroke-miterlimit:10;" x1="122.842" y1="317.012" x2="387.158" y2="317.012"/>
		
			<line style="fill:none;stroke:#052A75;stroke-width:20;stroke-linecap:round;stroke-linejoin:round;stroke-miterlimit:10;" x1="122.842" y1="378.008" x2="387.158" y2="378.008"/>
		
			<line style="fill:none;stroke:#052A75;stroke-width:20;stroke-linecap:round;stroke-linejoin:round;stroke-miterlimit:10;" x1="122.842" y1="439.004" x2="387.158" y2="439.004"/>
		<path style="fill:none;stroke:#FD6050;stroke-width:20;stroke-linecap:round;stroke-linejoin:round;stroke-miterlimit:10;" d="&#10;&#9;&#9;&#9;M167.573,271.266v-88.444c0-16.771,13.596-30.367,30.367-30.367h0.262c16.771,0,30.367,13.596,30.367,30.367v88.444"/>
		
			<line style="fill:none;stroke:#FD6050;stroke-width:20;stroke-linejoin:round;stroke-miterlimit:10;" x1="166.556" y1="220.436" x2="227.552" y2="220.436"/>
	</g>
</g>
<g>
</g>
<g>
</g>
<g>
</g>
<g>
</g>
<g>
</g>
<g>
</g>
<g>
</g>
<g>
</g>
<g>
</g>
<g>
</g>
<g>
</g>
<g>
</g>
<g>
</g>
<g>
</g>
<g>
</g>
</svg>