<svg version="1.1" id="Capa_1" xmlns="http://www.w3.org/2000/svg" xmlns:xlink="http://www.w3.org/1999/xlink" x="0px" y="0px" viewBox="0 0 510 510" style="enable-background:new 0 0 510 510;" xml:space="preserve">
<g>
	<g>
		<g>
			<g>
				<path style="fill:#FFFFFF;" d="M356,500H54c-24.301,0-44-19.699-44-44V54c0-24.301,19.699-44,44-44h302&#10;&#9;&#9;&#9;&#9;&#9;c24.301,0,44,19.699,44,44v402C400,480.301,380.301,500,356,500z"/>
				<path style="fill:#D2DCFD;" d="M400,456V110.804c-0.151,0.252-0.312,0.495-0.459,0.75L260.822,351.822&#10;&#9;&#9;&#9;&#9;&#9;c-4.86,8.418-7.603,17.891-7.991,27.603l-2.406,60.167c-0.891,22.277,10.644,43.211,29.952,54.359&#10;&#9;&#9;&#9;&#9;&#9;c4.669,2.696,9.607,4.71,14.676,6.049H356C380.301,500,400,480.301,400,456z"/>
			</g>
			<g>
				<circle style="fill:#FDCB50;" cx="148" cy="148" r="82"/>
				<path style="fill:#27A2CC;" d="M148,230c20.637,0,39.478-7.64,53.891-20.225c-4.339-25.85-26.808-45.55-53.891-45.55l0,0&#10;&#9;&#9;&#9;&#9;&#9;c-27.083,0-49.552,19.701-53.891,45.55C108.522,222.359,127.363,230,148,230z"/>
				<circle style="fill:#D46B5C;" cx="148" cy="137.622" r="26.603"/>
			</g>
		</g>
		<g>
			<polygon style="fill:#93B2F4;" points="361.281,409.822 310.378,441.989 312.784,381.822 451.503,141.554 500,169.554 &#9;&#9;&#9;"/>
			
				<rect x="369.664" y="181.884" transform="matrix(0.866 0.5 -0.5 0.866 198.6792 -159.8717)" style="fill:#FD7DA0;" width="56" height="217.841"/>
		</g>
	</g>
	<g>
		<g>
			<polygon style="fill:none;stroke:#052A75;stroke-width:20;stroke-linejoin:round;stroke-miterlimit:10;" points="&#10;&#9;&#9;&#9;&#9;361.281,409.822 310.378,441.989 312.784,381.822 451.503,141.554 500,169.554 &#9;&#9;&#9;"/>
			
				<line style="fill:none;stroke:#052A75;stroke-width:20;stroke-linejoin:round;stroke-miterlimit:10;" x1="427.876" y1="182.477" x2="476.373" y2="210.477"/>
			
				<line style="fill:none;stroke:#052A75;stroke-width:20;stroke-linejoin:round;stroke-miterlimit:10;" x1="318.956" y1="371.133" x2="367.453" y2="399.132"/>
		</g>
		<g>
			
				<circle style="fill:none;stroke:#052A75;stroke-width:20;stroke-linejoin:round;stroke-miterlimit:10;" cx="148" cy="148" r="82"/>
			<g>
				
					<line style="fill:none;stroke:#FD8F01;stroke-width:20;stroke-linecap:round;stroke-linejoin:round;stroke-miterlimit:10;" x1="74.798" y1="291.989" x2="66" y2="291.989"/>
				
					<line style="fill:none;stroke:#6864F7;stroke-width:20;stroke-linecap:round;stroke-linejoin:round;stroke-miterlimit:10;" x1="309.224" y1="291.989" x2="131.186" y2="291.989"/>
				
					<line style="fill:none;stroke:#FD8F01;stroke-width:20;stroke-linecap:round;stroke-linejoin:round;stroke-miterlimit:10;" x1="74.798" y1="341.989" x2="66" y2="341.989"/>
				
					<line style="fill:none;stroke:#6864F7;stroke-width:20;stroke-linecap:round;stroke-linejoin:round;stroke-miterlimit:10;" x1="280.357" y1="341.989" x2="131.186" y2="341.989"/>
				
					<line style="fill:none;stroke:#FD8F01;stroke-width:20;stroke-linecap:round;stroke-linejoin:round;stroke-miterlimit:10;" x1="74.798" y1="391.989" x2="66" y2="391.989"/>
				
					<line style="fill:none;stroke:#6864F7;stroke-width:20;stroke-linecap:round;stroke-linejoin:round;stroke-miterlimit:10;" x1="264.34" y1="391.989" x2="131.186" y2="391.989"/>
				
					<line style="fill:none;stroke:#FD8F01;stroke-width:20;stroke-linecap:round;stroke-linejoin:round;stroke-miterlimit:10;" x1="74.798" y1="441.989" x2="66" y2="441.989"/>
				
					<line style="fill:none;stroke:#6864F7;stroke-width:20;stroke-linecap:round;stroke-linejoin:round;stroke-miterlimit:10;" x1="262.34" y1="441.989" x2="131.186" y2="441.989"/>
			</g>
			<path style="fill:none;stroke:#052A75;stroke-width:20;stroke-linejoin:round;stroke-miterlimit:10;" d="M400,230.759V54&#10;&#9;&#9;&#9;&#9;c0-24.301-19.699-44-44-44H54c-24.301,0-44,19.699-44,44v402c0,24.301,19.699,44,44,44h302c24.301,0,44-19.699,44-44V342.759"/>
			<g>
				
					<line style="fill:none;stroke:#6864F7;stroke-width:20;stroke-linecap:round;stroke-linejoin:round;stroke-miterlimit:10;" x1="274" y1="66" x2="344" y2="66"/>
				
					<line style="fill:none;stroke:#6864F7;stroke-width:20;stroke-linecap:round;stroke-linejoin:round;stroke-miterlimit:10;" x1="274" y1="116.217" x2="344" y2="116.217"/>
				
					<line style="fill:none;stroke:#6864F7;stroke-width:20;stroke-linecap:round;stroke-linejoin:round;stroke-miterlimit:10;" x1="274" y1="166.435" x2="344" y2="166.435"/>
			</g>
		</g>
	</g>
</g>
<g>
</g>
<g>
</g>
<g>
</g>
<g>
</g>
<g>
</g>
<g>
</g>
<g>
</g>
<g>
</g>
<g>
</g>
<g>
</g>
<g>
</g>
<g>
</g>
<g>
</g>
<g>
</g>
<g>
</g>
</svg>