<svg version="1.1" id="Layer_1" xmlns="http://www.w3.org/2000/svg" xmlns:xlink="http://www.w3.org/1999/xlink" x="0px" y="0px" viewBox="0 0 510 510" style="enable-background:new 0 0 510 510;" xml:space="preserve">
<g>
	<g>
		<path style="fill:#BC9AF4;" d="M116,379.283L116,379.283c58.542,0,106,47.458,106,106V500H10v-14.717&#10;&#9;&#9;&#9;C10,426.741,57.458,379.283,116,379.283z"/>
		<path style="fill:#6864F7;" d="M105.478,436.086c0-21.161,6.919-40.704,18.613-56.498c-2.671-0.202-5.369-0.305-8.091-0.305h0&#10;&#9;&#9;&#9;c-58.542,0-106,47.458-106,106V500h120.177C114.831,483.12,105.478,460.696,105.478,436.086z"/>
		<circle style="fill:#D46B5C;" cx="116" cy="323.642" r="55.642"/>
		<circle style="fill:#FDE0BE;" cx="394" cy="323.642" r="55.642"/>
		<path style="fill:#FDCB50;" d="M394,379.283L394,379.283c58.542,0,106,47.458,106,106V500H288v-14.717&#10;&#9;&#9;&#9;C288,426.741,335.458,379.283,394,379.283z"/>
		<path style="fill:#FD8F01;" d="M383.478,436.086c0-21.161,6.919-40.704,18.613-56.498c-2.671-0.202-5.369-0.305-8.091-0.305h0&#10;&#9;&#9;&#9;c-58.542,0-106,47.458-106,106V500h120.177C392.831,483.12,383.478,460.696,383.478,436.086z"/>
		<g>
			<path style="fill:#BC9AF4;" d="M241.226,10h164.163c10.728,0,19.425,8.697,19.425,19.425v129.607&#10;&#9;&#9;&#9;&#9;c0,10.728-8.697,19.425-19.425,19.425h-39.768v33.561l-44-33.561h-80.395c-10.728,0-19.425-8.697-19.425-19.425V29.425&#10;&#9;&#9;&#9;&#9;C221.801,18.697,230.498,10,241.226,10z"/>
		</g>
		<path style="fill:#6864F7;" d="M221.801,29.425v129.607c0,10.728,8.697,19.425,19.425,19.425h69.958&#10;&#9;&#9;&#9;c11.09-26.953,13.293-56.629,6.069-85.423C308.539,58.3,287.127,28.914,256.838,10h-15.612&#10;&#9;&#9;&#9;C230.498,10,221.801,18.697,221.801,29.425z"/>
		<path style="fill:#FDCB50;" d="M189.467,37.359c-49.332-3.099-91.836,34.38-94.935,83.713c-1.31,20.857,4.634,40.493,15.66,56.447&#10;&#9;&#9;&#9;l-7.722,44.667l41.612-15.303c10.361,5.144,21.895,8.353,34.164,9.124c49.332,3.099,91.836-34.38,94.935-83.713&#10;&#9;&#9;&#9;C276.278,82.961,238.799,40.458,189.467,37.359z"/>
		<path style="fill:#FD8F01;" d="M182.646,126.683c0-32.625,14.068-61.963,36.468-82.282c-9.159-3.925-19.132-6.381-29.647-7.042&#10;&#9;&#9;&#9;c-49.332-3.099-91.836,34.38-94.935,83.713c-1.31,20.857,4.634,40.493,15.66,56.447l-7.722,44.667l41.612-15.303&#10;&#9;&#9;&#9;c10.361,5.144,21.895,8.353,34.164,9.124c14.487,0.91,28.383-1.683,40.867-7.044C196.713,188.643,182.646,159.306,182.646,126.683&#10;&#9;&#9;&#9;z"/>
	</g>
	<g>
		<path style="fill:none;stroke:#052A75;stroke-width:20;stroke-linecap:round;stroke-linejoin:round;stroke-miterlimit:10;" d="&#10;&#9;&#9;&#9;M116,379.283L116,379.283c58.542,0,106,47.458,106,106V500H10v-14.717C10,426.741,57.458,379.283,116,379.283z"/>
		
			<circle style="fill:none;stroke:#052A75;stroke-width:20;stroke-linecap:round;stroke-linejoin:round;stroke-miterlimit:10;" cx="116" cy="323.642" r="55.642"/>
		<path style="fill:none;stroke:#052A75;stroke-width:20;stroke-linecap:round;stroke-linejoin:round;stroke-miterlimit:10;" d="&#10;&#9;&#9;&#9;M394,379.283L394,379.283c58.542,0,106,47.458,106,106V500H288v-14.717C288,426.741,335.458,379.283,394,379.283z"/>
		
			<circle style="fill:none;stroke:#052A75;stroke-width:20;stroke-linecap:round;stroke-linejoin:round;stroke-miterlimit:10;" cx="394" cy="323.642" r="55.642"/>
		<path style="fill:none;stroke:#052A75;stroke-width:20;stroke-linecap:round;stroke-linejoin:round;stroke-miterlimit:10;" d="&#10;&#9;&#9;&#9;M257.684,178.456h63.937l44,33.561v-33.561h39.768c10.728,0,19.425-8.697,19.425-19.425V29.425&#10;&#9;&#9;&#9;c0-10.728-8.697-19.425-19.425-19.425H241.226c-10.728,0-19.425,8.697-19.425,19.425v16.062"/>
		<g>
			
				<line style="fill:none;stroke:#FFFFFF;stroke-width:20;stroke-linecap:round;stroke-linejoin:round;stroke-miterlimit:10;" x1="273.014" y1="118.228" x2="380.814" y2="118.228"/>
			
				<line style="fill:none;stroke:#FFFFFF;stroke-width:20;stroke-linecap:round;stroke-linejoin:round;stroke-miterlimit:10;" x1="253.49" y1="70.228" x2="380.814" y2="70.228"/>
		</g>
		<g>
			
				<line style="fill:none;stroke:#FFFFFF;stroke-width:20;stroke-linecap:round;stroke-linejoin:round;stroke-miterlimit:10;" x1="183.855" y1="126.683" x2="183.855" y2="126.683"/>
			
				<line style="fill:none;stroke:#FFFFFF;stroke-width:20;stroke-linecap:round;stroke-linejoin:round;stroke-miterlimit:10;" x1="227.855" y1="126.683" x2="227.855" y2="126.683"/>
			
				<line style="fill:none;stroke:#FFFFFF;stroke-width:20;stroke-linecap:round;stroke-linejoin:round;stroke-miterlimit:10;" x1="139.855" y1="126.683" x2="139.855" y2="126.683"/>
		</g>
		<path style="fill:none;stroke:#052A75;stroke-width:20;stroke-linecap:round;stroke-linejoin:round;stroke-miterlimit:10;" d="&#10;&#9;&#9;&#9;M189.467,37.359c-49.332-3.099-91.836,34.38-94.935,83.713c-1.31,20.857,4.634,40.493,15.66,56.447l-7.722,44.667l41.612-15.303&#10;&#9;&#9;&#9;c10.361,5.144,21.895,8.353,34.164,9.124c49.332,3.099,91.836-34.38,94.935-83.713C276.278,82.961,238.799,40.458,189.467,37.359z&#10;&#9;&#9;&#9;"/>
	</g>
</g>
<g>
</g>
<g>
</g>
<g>
</g>
<g>
</g>
<g>
</g>
<g>
</g>
<g>
</g>
<g>
</g>
<g>
</g>
<g>
</g>
<g>
</g>
<g>
</g>
<g>
</g>
<g>
</g>
<g>
</g>
</svg>