<svg version="1.1" id="Capa_1" xmlns="http://www.w3.org/2000/svg" xmlns:xlink="http://www.w3.org/1999/xlink" x="0px" y="0px" viewBox="0 0 510 510" style="enable-background:new 0 0 510 510;" xml:space="preserve">
<g>
	<g>
		<path style="fill:#FDCB50;" d="M449.575,397.925c-1.753-32.189-18.285-61.638-43.403-80.461l-45.693-20.636l-44.189-13.565&#10;&#9;&#9;&#9;h-20.188c-11.284,14.371-27.816,21.562-44.349,21.562c-16.523,0-33.055-7.191-44.349-21.562h-14.7l-49.08,14.461l-45.398,22.1&#10;&#9;&#9;&#9;c-23.048,19.231-37.125,47.078-38.818,78.101l-3.486,102.072h398.154L449.575,397.925z"/>
		<path style="fill:#FD8F01;" d="M453.937,499.82H55.787l3.48-108.38c0,0,0.95-54.59,63.11-90.37c-5.43,12.16-8.34,25.04-8.34,38.37&#10;&#9;&#9;&#9;c0,75.07,92.44,135.92,206.46,135.92c49.8,0,95.48-11.6,131.14-30.94L453.937,499.82z"/>
		<g>
			<path style="fill:#D46B5C;" d="M296.1,283.263c-11.282,14.368-27.813,21.562-44.343,21.562c-16.53,0-33.061-7.194-44.353-21.562&#10;&#9;&#9;&#9;&#9;l8.904-57.837c10.85,4.757,22.84,7.391,35.449,7.391c12.609,0,24.589-2.634,35.439-7.391L296.1,283.263z"/>
		</g>
		<path style="fill:#B55348;" d="M251.643,264.944c15.064,0,29.591-2.421,43.216-6.876l-7.777-50.515&#10;&#9;&#9;&#9;c-10.85,4.757-22.83,7.391-35.439,7.391c-12.609,0-24.599-2.634-35.449-7.391l-7.776,50.512&#10;&#9;&#9;&#9;C222.046,262.522,236.577,264.944,251.643,264.944z"/>
		<path style="fill:#D2DCFD;" d="M109.48,425.012v11.665c0,13.574,11.004,24.577,24.577,24.577l0,0&#10;&#9;&#9;&#9;c13.574,0,24.577-11.003,24.577-24.577v-11.665H109.48z"/>
		<path style="fill:#D2DCFD;" d="M394.391,425.012v11.665c0,13.574-11.004,24.577-24.577,24.577h-0.005&#10;&#9;&#9;&#9;c-13.573,0-24.577-11.003-24.577-24.577v-11.665H394.391z"/>
		<path style="fill:#6864F7;" d="M158.633,425.012c0-53.271-7.066-101.556-19.229-142.624c-1.626-5.488-7.532-8.478-12.919-6.542&#10;&#9;&#9;&#9;l-27.604,9.916c-4.937,1.773-7.66,7.071-6.206,12.111c5.396,18.706,16.804,65.54,16.804,127.139H158.633z"/>
		<path style="fill:#6864F7;" d="M345.231,425.012c0-53.271,7.066-101.556,19.23-142.624c1.625-5.488,7.532-8.478,12.919-6.542&#10;&#9;&#9;&#9;l27.604,9.916c4.937,1.773,7.66,7.071,6.206,12.111c-5.396,18.706-16.799,65.54-16.799,127.139H345.231z"/>
		<path style="fill:#6864F7;" d="M251.753,16.663c-27.099,0-47.008,7.34-67.932,7.34C162.906,24.003,151.712,10,151.712,10&#10;&#9;&#9;&#9;c-2.709,7.828-4.83,15.009-6.484,21.582c-3.162,12.611-1.094,25.057,4.631,35.353c6.661,11.978,10.74,25.217,11.513,38.901&#10;&#9;&#9;&#9;l1.908,33.764l24.529-47.495h23.8l31.267-31.143v0c0.244,17.27,14.314,31.143,31.587,31.143h41.215l24.529,47.495l1.655-29.289&#10;&#9;&#9;&#9;c1.504-26.619-8.825-52.769-28.779-70.451C292.95,22.018,268.212,16.663,251.753,16.663z"/>
		<g>
			<path style="fill:#D46B5C;" d="M340.207,139.6l-24.529-47.495h-41.215c-17.272,0-31.342-13.872-31.587-31.143l0,0L211.61,92.105&#10;&#9;&#9;&#9;&#9;h-23.8l-24.515,47.468v4.799c0,49.03,40.873,88.449,88.459,88.449c48.243-0.05,86.706-39.558,88.459-88.449v-4.855L340.207,139.6&#10;&#9;&#9;&#9;&#9;z"/>
		</g>
	</g>
	<g>
		<path style="fill:none;stroke:#FFFFFF;stroke-width:20;stroke-linecap:round;stroke-linejoin:round;stroke-miterlimit:10;" d="&#10;&#9;&#9;&#9;M329.346,290.803c0,28.593-34.788,52.774-77.713,52.774c-42.915,0-77.703-24.181-77.703-52.774"/>
		<path style="fill:none;stroke:#052A75;stroke-width:20;stroke-linecap:round;stroke-linejoin:round;stroke-miterlimit:10;" d="&#10;&#9;&#9;&#9;M340.212,139.601v4.77c-1.753,48.89-40.216,88.399-88.459,88.449c-47.586,0-88.459-39.419-88.459-88.449v-4.79"/>
		<path style="fill:none;stroke:#052A75;stroke-width:20;stroke-linecap:round;stroke-linejoin:round;stroke-miterlimit:10;" d="&#10;&#9;&#9;&#9;M296.1,283.263c-11.282,14.368-27.813,21.562-44.343,21.562c-16.53,0-33.061-7.194-44.353-21.562l8.904-57.837&#10;&#9;&#9;&#9;c10.85,4.757,22.84,7.391,35.449,7.391c12.609,0,24.589-2.634,35.439-7.391L296.1,283.263z"/>
		<path style="fill:none;stroke:#052A75;stroke-width:20;stroke-linecap:round;stroke-linejoin:round;stroke-miterlimit:10;" d="&#10;&#9;&#9;&#9;M360.479,296.828l-44.189-13.565h-20.188c-11.284,14.371-27.816,21.562-44.349,21.562c-16.523,0-33.055-7.191-44.349-21.562h-14.7&#10;&#9;&#9;&#9;l-49.08,14.461"/>
		<path style="fill:none;stroke:#052A75;stroke-width:20;stroke-linecap:round;stroke-linejoin:round;stroke-miterlimit:10;" d="&#10;&#9;&#9;&#9;M98.227,319.824c-23.049,19.231-37.125,47.078-38.818,78.101l-3.486,102.071h398.154l-4.502-102.071&#10;&#9;&#9;&#9;c-1.753-32.189-18.285-61.638-43.403-80.461"/>
		
			<line style="fill:none;stroke:#052A75;stroke-width:20;stroke-linecap:round;stroke-linejoin:round;stroke-miterlimit:10;" x1="134.057" y1="461.384" x2="134.057" y2="500"/>
		<path style="fill:none;stroke:#052A75;stroke-width:20;stroke-linecap:round;stroke-linejoin:round;stroke-miterlimit:10;" d="&#10;&#9;&#9;&#9;M158.633,425.012c0-53.271-7.066-101.556-19.229-142.624c-1.626-5.488-7.532-8.478-12.919-6.542l-27.604,9.916&#10;&#9;&#9;&#9;c-4.937,1.773-7.66,7.071-6.206,12.111c5.396,18.706,16.804,65.54,16.804,127.139H158.633z"/>
		<path style="fill:none;stroke:#052A75;stroke-width:20;stroke-linecap:round;stroke-linejoin:round;stroke-miterlimit:10;" d="&#10;&#9;&#9;&#9;M109.48,425.012v11.665c0,13.574,11.004,24.577,24.577,24.577l0,0c13.574,0,24.577-11.003,24.577-24.577v-11.665H109.48z"/>
		<path style="fill:none;stroke:#052A75;stroke-width:20;stroke-linecap:round;stroke-linejoin:round;stroke-miterlimit:10;" d="&#10;&#9;&#9;&#9;M345.231,425.012c0-53.271,7.066-101.556,19.23-142.624c1.625-5.488,7.532-8.478,12.919-6.542l27.604,9.916&#10;&#9;&#9;&#9;c4.937,1.773,7.66,7.071,6.206,12.111c-5.396,18.706-16.799,65.54-16.799,127.139H345.231z"/>
		<path style="fill:none;stroke:#052A75;stroke-width:20;stroke-linecap:round;stroke-linejoin:round;stroke-miterlimit:10;" d="&#10;&#9;&#9;&#9;M394.391,425.012v11.665c0,13.574-11.004,24.577-24.577,24.577h-0.005c-13.573,0-24.577-11.003-24.577-24.577v-11.665H394.391z"/>
		
			<line style="fill:none;stroke:#052A75;stroke-width:20;stroke-linecap:round;stroke-linejoin:round;stroke-miterlimit:10;" x1="369.811" y1="461.384" x2="369.811" y2="500"/>
		
			<polyline style="fill:none;stroke:#052A75;stroke-width:20;stroke-linecap:round;stroke-linejoin:round;stroke-miterlimit:10;" points="&#10;&#9;&#9;&#9;251.752,136.647 242.642,165.164 260.862,165.164 &#9;&#9;"/>
		<path style="fill:none;stroke:#052A75;stroke-width:20;stroke-linecap:round;stroke-linejoin:round;stroke-miterlimit:10;" d="&#10;&#9;&#9;&#9;M251.753,16.663c-27.099,0-47.008,7.34-67.932,7.34C162.906,24.003,151.712,10,151.712,10c-2.709,7.828-4.83,15.009-6.484,21.582&#10;&#9;&#9;&#9;c-3.162,12.611-1.094,25.057,4.631,35.353c6.661,11.978,10.74,25.217,11.513,38.901l1.908,33.764l24.529-47.495h23.8&#10;&#9;&#9;&#9;l31.267-31.143v0c0.244,17.27,14.314,31.143,31.587,31.143h41.215l24.529,47.495l1.655-29.289&#10;&#9;&#9;&#9;c1.504-26.619-8.825-52.769-28.779-70.451C292.95,22.018,268.212,16.663,251.753,16.663z"/>
	</g>
</g>
<g>
</g>
<g>
</g>
<g>
</g>
<g>
</g>
<g>
</g>
<g>
</g>
<g>
</g>
<g>
</g>
<g>
</g>
<g>
</g>
<g>
</g>
<g>
</g>
<g>
</g>
<g>
</g>
<g>
</g>
</svg>