<svg version="1.1" id="Capa_1" xmlns="http://www.w3.org/2000/svg" xmlns:xlink="http://www.w3.org/1999/xlink" x="0px" y="0px" viewBox="0 0 512 512" style="enable-background:new 0 0 512 512;" xml:space="preserve">
<g>
	<g>
		<g>
			<path style="fill:#B1D952;" d="M220.109,285.521h261.898c11.042,0,19.993-8.976,19.993-20.049l0-235.423&#10;&#9;&#9;&#9;&#9;C502,18.976,493.049,10,482.007,10H157.296c-11.042,0-19.993,8.976-19.993,20.049v67.557L220.109,285.521z"/>
		</g>
		<path style="fill:#91B706;" d="M317.363,135.845v-1.285c0-28.961-13.697-56.805-36.638-74.481&#10;&#9;&#9;&#9;c-16.358-12.604-36.741-19.545-57.396-19.545c-10.677,0-21.138,1.787-31.161,5.315c-17.046-8.599-35.681-13.471-54.865-14.333&#10;&#9;&#9;&#9;v66.089l82.806,187.916h37.053c2.374-3.66,4.523-7.476,6.41-11.44c31.113-2.747,55.594-28.952,55.594-60.767&#10;&#9;&#9;&#9;c0-14.177-4.862-27.241-13.005-37.611C313.276,164.1,317.363,150.443,317.363,135.845z"/>
		<g>
			<path style="fill:#D46B5C;" d="M101.482,182.032c-24.837-0.766-44.806-21.163-44.806-46.186v0c0-41.134,33.346-74.48,74.48-74.48&#10;&#9;&#9;&#9;&#9;h0c20.859,0,41.252,6.174,58.608,17.745l0,0l9.377-3.827c21.111-8.617,45.211-5.356,63.273,8.561l0,0&#10;&#9;&#9;&#9;&#9;c15.732,12.121,24.948,30.857,24.948,50.717v1.284c0,24.778-19.512,45-44.01,46.136L101.482,182.032z"/>
		</g>
		<g>
			<polygon style="fill:#FDE0BE;" points="216.755,339.486 204.875,285.521 137.303,285.521 125.423,339.486 172.002,369.256 &#9;&#9;&#9;"/>
			<path style="fill:#F7B073;" d="M213.097,322.871l-8.222-37.349h-67.571l-7.972,36.213c13.427,6.337,28.287,9.684,43.132,9.684&#10;&#9;&#9;&#9;&#9;C186.394,331.418,200.337,328.469,213.097,322.871z"/>
			<path style="fill:#F7B073;" d="M258.162,182.31c17.123,0,31.004,13.881,31.004,31.004v0c0,17.123-13.881,31.004-31.004,31.004&#10;&#9;&#9;&#9;&#9;H85.843c-17.123,0-31.004-13.881-31.004-31.004v0c0-17.123,13.881-31.004,31.004-31.004H258.162z"/>
			<path style="fill:#FDE0BE;" d="M204.206,293.925L204.206,293.925c-19.983,9.991-43.504,9.991-63.487,0l0,0&#10;&#9;&#9;&#9;&#9;c-24.047-12.024-39.237-36.601-39.237-63.487V182.31l0,0c33.13,0,64.22-16.278,83.476-43.237l4.806-6.728h0&#10;&#9;&#9;&#9;&#9;c29.646,0,53.679,24.033,53.679,53.679v44.414C243.443,257.323,228.253,281.901,204.206,293.925z"/>
			<path style="fill:#D2DCFD;" d="M304.78,385.24c-3.294-14.037-13.975-25.163-27.866-29.025l-60.159-16.729l-44.752,29.77&#10;&#9;&#9;&#9;&#9;l-46.579-29.77l-60.159,16.729c-13.891,3.863-24.573,14.989-27.866,29.025L10,501.999L171.089,502l75.231-0.001L304.78,385.24z"/>
			<g>
				<path style="fill:#BC9AF4;" d="M65.264,356.215c-13.891,3.863-24.573,14.989-27.866,29.025L10,501.999l86.24,0V347.601&#10;&#9;&#9;&#9;&#9;&#9;L65.264,356.215z"/>
			</g>
			<polygon style="fill:#FFFFFF;" points="96.24,382.438 123.026,415.27 172.002,369.256 126.33,340.066 96.24,347.601 &#9;&#9;&#9;"/>
			<polygon style="fill:#FFFFFF;" points="246.314,382.438 220.978,415.27 172.002,369.256 216.755,339.486 246.314,347.706 &#9;&#9;&#9;"/>
			<polygon style="fill:#6864F7;" points="202.786,397.956 185.057,426.655 159.952,426.655 142.503,396.345 172.002,369.256 &#9;&#9;&#9;"/>
			<polygon style="fill:#6864F7;" points="201.452,502 185.057,426.655 159.952,426.655 142.503,502 &#9;&#9;&#9;"/>
		</g>
		<g>
			<g>
				<path style="fill:#FDE0BE;" d="M396.854,177.081L396.854,177.081c-17.384,0-31.476,14.092-31.476,31.476v38.149l31.476,11.413&#10;&#9;&#9;&#9;&#9;&#9;l31.476-11.413v-38.149C428.33,191.173,414.238,177.081,396.854,177.081z"/>
				<path style="fill:#BC9AF4;" d="M428.33,246.706v131.274c0,28.001-22.699,50.701-50.701,50.701h-70.138V502l-61.172,0&#10;&#9;&#9;&#9;&#9;&#9;l-0.006-159.216l0.006-0.054l106.107,11.641l12.951-107.665H428.33z"/>
			</g>
		</g>
	</g>
	<g>
		<g>
			<path style="fill:none;stroke:#052A75;stroke-width:20;stroke-linecap:round;stroke-linejoin:round;stroke-miterlimit:10;" d="&#10;&#9;&#9;&#9;&#9;M431.18,285.521h50.827c11.042,0,19.993-8.976,19.993-20.049l0-235.423C502,18.976,493.049,10,482.007,10H157.296&#10;&#9;&#9;&#9;&#9;c-11.042,0-19.993,8.976-19.993,20.049v28.442"/>
			
				<line style="fill:none;stroke:#052A75;stroke-width:20;stroke-linecap:round;stroke-linejoin:round;stroke-miterlimit:10;" x1="220.109" y1="285.521" x2="358.223" y2="285.521"/>
			
				<line style="fill:none;stroke:#FFFFFF;stroke-width:20;stroke-linecap:round;stroke-linejoin:round;stroke-miterlimit:10;" x1="249.782" y1="75.671" x2="430.302" y2="75.671"/>
			
				<line style="fill:none;stroke:#FFFFFF;stroke-width:20;stroke-linecap:round;stroke-linejoin:round;stroke-miterlimit:10;" x1="289.166" y1="127.889" x2="430.302" y2="127.889"/>
		</g>
		<g>
			<path style="fill:none;stroke:#052A75;stroke-width:20;stroke-linecap:round;stroke-linejoin:round;stroke-miterlimit:10;" d="&#10;&#9;&#9;&#9;&#9;M101.482,182.032c-24.837-0.766-44.806-21.163-44.806-46.186v0c0-41.134,33.346-74.48,74.48-74.48h0&#10;&#9;&#9;&#9;&#9;c20.859,0,41.252,6.174,58.608,17.745l0,0l9.377-3.827c21.111-8.617,45.211-5.356,63.273,8.561l0,0&#10;&#9;&#9;&#9;&#9;c15.732,12.121,24.948,30.857,24.948,50.717v1.284c0,24.36-18.858,44.315-42.772,46.062"/>
			
				<line style="fill:none;stroke:#D46B5C;stroke-width:20;stroke-linecap:round;stroke-linejoin:round;stroke-miterlimit:10;" x1="385.808" y1="178.77" x2="385.808" y2="69.766"/>
		</g>
		<g>
			<path style="fill:none;stroke:#052A75;stroke-width:20;stroke-linecap:round;stroke-linejoin:round;stroke-miterlimit:10;" d="&#10;&#9;&#9;&#9;&#9;M428.33,246.706v-38.149c0-17.384-14.092-31.476-31.476-31.476h0c-17.384,0-31.476,14.092-31.476,31.476v38.149"/>
			<path style="fill:none;stroke:#052A75;stroke-width:20;stroke-linecap:round;stroke-linejoin:round;stroke-miterlimit:10;" d="&#10;&#9;&#9;&#9;&#9;M428.33,246.706v131.274c0,28.001-22.699,50.701-50.701,50.701h-70.138V502L10,501.999L37.398,385.24&#10;&#9;&#9;&#9;&#9;c3.294-14.037,13.975-25.163,27.866-29.025l60.159-16.729l9.996-45.409"/>
			
				<line style="fill:none;stroke:#052A75;stroke-width:20;stroke-linecap:round;stroke-linejoin:round;stroke-miterlimit:10;" x1="352.561" y1="353.256" x2="365.378" y2="246.706"/>
			
				<polyline style="fill:none;stroke:#052A75;stroke-width:20;stroke-linecap:round;stroke-linejoin:round;stroke-miterlimit:10;" points="&#10;&#9;&#9;&#9;&#9;207.288,296.485 216.755,339.486 376.371,357.292 &#9;&#9;&#9;"/>
			
				<line style="fill:none;stroke:#052A75;stroke-width:20;stroke-linecap:round;stroke-linejoin:round;stroke-miterlimit:10;" x1="96.24" y1="498.423" x2="96.24" y2="349.988"/>
			
				<line style="fill:none;stroke:#052A75;stroke-width:20;stroke-linecap:round;stroke-linejoin:round;stroke-miterlimit:10;" x1="246.314" y1="498.423" x2="246.314" y2="349.988"/>
			<path style="fill:none;stroke:#052A75;stroke-width:20;stroke-linecap:round;stroke-linejoin:round;stroke-miterlimit:10;" d="&#10;&#9;&#9;&#9;&#9;M247.24,182.31h10.922c17.123,0,31.004,13.881,31.004,31.004v0c0,17.123-13.881,31.004-31.004,31.004h-13.354"/>
			<path style="fill:none;stroke:#052A75;stroke-width:20;stroke-linecap:round;stroke-linejoin:round;stroke-miterlimit:10;" d="&#10;&#9;&#9;&#9;&#9;M99.999,244.319H85.843c-17.123,0-31.004-13.881-31.004-31.004v0c0-17.123,13.881-31.004,31.004-31.004h15.64"/>
			<path style="fill:none;stroke:#052A75;stroke-width:20;stroke-linecap:round;stroke-linejoin:round;stroke-miterlimit:10;" d="&#10;&#9;&#9;&#9;&#9;M204.206,293.925L204.206,293.925c-19.983,9.991-43.504,9.991-63.487,0l0,0c-24.047-12.024-39.237-36.601-39.237-63.487V182.31&#10;&#9;&#9;&#9;&#9;l0,0c33.13,0,64.22-16.278,83.476-43.237l4.806-6.728h0c29.646,0,53.679,24.033,53.679,53.679v44.414&#10;&#9;&#9;&#9;&#9;C243.443,257.323,228.253,281.901,204.206,293.925z"/>
			
				<polyline style="fill:none;stroke:#052A75;stroke-width:20;stroke-linecap:round;stroke-linejoin:round;stroke-miterlimit:10;" points="&#10;&#9;&#9;&#9;&#9;125.423,339.486 172.002,369.256 216.755,339.486 &#9;&#9;&#9;"/>
			
				<polyline style="fill:none;stroke:#052A75;stroke-width:20;stroke-linecap:round;stroke-linejoin:round;stroke-miterlimit:10;" points="&#10;&#9;&#9;&#9;&#9;172.002,369.256 123.026,415.27 97.016,383.39 &#9;&#9;&#9;"/>
			
				<polyline style="fill:none;stroke:#052A75;stroke-width:20;stroke-linecap:round;stroke-linejoin:round;stroke-miterlimit:10;" points="&#10;&#9;&#9;&#9;&#9;172.002,369.256 220.978,415.27 245.476,383.523 &#9;&#9;&#9;"/>
			
				<polyline style="fill:none;stroke:#052A75;stroke-width:20;stroke-linecap:round;stroke-linejoin:round;stroke-miterlimit:10;" points="&#10;&#9;&#9;&#9;&#9;200.673,401.375 185.057,426.655 159.952,426.655 143.331,401.02 &#9;&#9;&#9;"/>
			
				<polyline style="fill:none;stroke:#052A75;stroke-width:20;stroke-linecap:round;stroke-linejoin:round;stroke-miterlimit:10;" points="&#10;&#9;&#9;&#9;&#9;200.673,498.423 185.057,426.655 159.952,426.655 143.331,498.423 &#9;&#9;&#9;"/>
		</g>
	</g>
</g>
<g>
</g>
<g>
</g>
<g>
</g>
<g>
</g>
<g>
</g>
<g>
</g>
<g>
</g>
<g>
</g>
<g>
</g>
<g>
</g>
<g>
</g>
<g>
</g>
<g>
</g>
<g>
</g>
<g>
</g>
</svg>