<?xml version="1.0" encoding="utf-8"?>
<!-- Generator: Adobe Illustrator 24.2.3, SVG Export Plug-In . SVG Version: 6.00 Build 0)  -->
<!DOCTYPE svg PUBLIC "-//W3C//DTD SVG 1.1//EN" "http://www.w3.org/Graphics/SVG/1.1/DTD/svg11.dtd" [
	<!ENTITY ns_extend "http://ns.adobe.com/Extensibility/1.0/">
	<!ENTITY ns_ai "http://ns.adobe.com/AdobeIllustrator/10.0/">
	<!ENTITY ns_graphs "http://ns.adobe.com/Graphs/1.0/">
	<!ENTITY ns_vars "http://ns.adobe.com/Variables/1.0/">
	<!ENTITY ns_imrep "http://ns.adobe.com/ImageReplacement/1.0/">
	<!ENTITY ns_sfw "http://ns.adobe.com/SaveForWeb/1.0/">
	<!ENTITY ns_custom "http://ns.adobe.com/GenericCustomNamespace/1.0/">
	<!ENTITY ns_adobe_xpath "http://ns.adobe.com/XPath/1.0/">
]>
<svg version="1.1" id="Layer_2" xmlns:x="&ns_extend;" xmlns:i="&ns_ai;" xmlns:graph="&ns_graphs;"
	 xmlns="http://www.w3.org/2000/svg" xmlns:xlink="http://www.w3.org/1999/xlink" x="0px" y="0px" viewBox="0 0 122.9 122.9"
	 style="enable-background:new 0 0 122.9 122.9;" xml:space="preserve">
<style type="text/css">
	.st0{fill:none;}
	.st1{fill:#FBB130;}
	.st2{fill:url(#SVGID_1_);fill-opacity:0.2;}
	.st3{fill:url(#SVGID_2_);fill-opacity:0.2;}
	.st4{fill-rule:evenodd;clip-rule:evenodd;fill:url(#SVGID_3_);}
	.st5{fill-rule:evenodd;clip-rule:evenodd;fill:url(#SVGID_4_);fill-opacity:0.2;}
	.st6{fill:#FFFFFF;}
</style>
<metadata  id="CorelCorpID_0Corel-Layer">
	<sfw  xmlns="&ns_sfw;">
		<slices></slices>
		<sliceSourceBounds  bottomLeftOrigin="true" height="122.9" width="122.9" x="0" y="-0.9"></sliceSourceBounds>
	</sfw>
</metadata>
<g id="Layer_x0020_1_1_">
	<rect x="0" y="0.9" class="st0" width="122.9" height="122.9"/>
	<g id="_2032653888192">
		<g>
			<path class="st1" d="M67.3,30.1c0,14.6-11.8,26.4-26.4,26.4S14.4,44.7,14.4,30.1S26.3,3.7,40.8,3.7S67.3,15.5,67.3,30.1z"/>
			<linearGradient id="SVGID_1_" gradientUnits="userSpaceOnUse" x1="14.45" y1="30.1398" x2="67.25" y2="30.1398">
				<stop  offset="0" style="stop-color:#FFFFFF"/>
				<stop  offset="1" style="stop-color:#FFFFFF;stop-opacity:0"/>
			</linearGradient>
			<path class="st2" d="M67.3,30.1c0,14.6-11.8,26.4-26.4,26.4S14.4,44.7,14.4,30.1S26.3,3.7,40.8,3.7S67.3,15.5,67.3,30.1z"/>
			<path class="st1" d="M2.6,68.3h41c19.5,0,35.2,15.7,35.2,35.2h-41C18.4,103.5,2.6,87.7,2.6,68.3z"/>
			<linearGradient id="SVGID_2_" gradientUnits="userSpaceOnUse" x1="2.65" y1="85.9398" x2="78.85" y2="85.9398">
				<stop  offset="0" style="stop-color:#FFFFFF"/>
				<stop  offset="1" style="stop-color:#FFFFFF;stop-opacity:0"/>
			</linearGradient>
			<path class="st3" d="M2.6,68.3h41c19.5,0,35.2,15.7,35.2,35.2h-41C18.4,103.5,2.6,87.7,2.6,68.3z"/>
			
				<linearGradient id="SVGID_3_" gradientUnits="userSpaceOnUse" x1="28706.5918" y1="33678.8594" x2="26852.752" y2="31825.041" gradientTransform="matrix(2.834646e-02 0 0 2.834646e-02 -693.7606 -833.6236)">
				<stop  offset="0" style="stop-color:#22B8F9"/>
				<stop  offset="1" style="stop-color:#45C4FA"/>
			</linearGradient>
			<path class="st4" d="M119.8,95.2c0,14.1-11.5,25.6-25.6,25.6c-14.1,0-25.6-11.5-25.6-25.6c0-1.2,0.3-2.5,0.3-3.7
				c0-8.4,9-17.3,13.9-19.2v-0.1c3.4-1.8,7.3-2.7,11.4-2.7C108.3,69.6,119.8,81.1,119.8,95.2L119.8,95.2z"/>
			
				<linearGradient id="SVGID_4_" gradientUnits="userSpaceOnUse" x1="28706.5918" y1="33678.8594" x2="26852.752" y2="31825.041" gradientTransform="matrix(2.834646e-02 0 0 2.834646e-02 -693.7606 -833.6236)">
				<stop  offset="0" style="stop-color:#FFFFFF"/>
				<stop  offset="1" style="stop-color:#FFFFFF;stop-opacity:0"/>
			</linearGradient>
			<path class="st5" d="M119.8,95.2c0,14.1-11.5,25.6-25.6,25.6c-14.1,0-25.6-11.5-25.6-25.6c0-1.2,0.3-2.5,0.3-3.7
				c0-8.4,9-17.3,13.9-19.2v-0.1c3.4-1.8,7.3-2.7,11.4-2.7C108.3,69.6,119.8,81.1,119.8,95.2L119.8,95.2z"/>
		</g>
	</g>
</g>
<polygon class="st6" points="90.5,106.3 80.7,96.5 85.8,91.3 90.5,96 102.5,84 107.6,89.2 "/>
</svg>
