<?xml version="1.0" encoding="utf-8"?>
<!-- Generator: Adobe Illustrator 24.2.3, SVG Export Plug-In . SVG Version: 6.00 Build 0)  -->
<!DOCTYPE svg PUBLIC "-//W3C//DTD SVG 1.1//EN" "http://www.w3.org/Graphics/SVG/1.1/DTD/svg11.dtd" [
	<!ENTITY ns_extend "http://ns.adobe.com/Extensibility/1.0/">
	<!ENTITY ns_ai "http://ns.adobe.com/AdobeIllustrator/10.0/">
	<!ENTITY ns_graphs "http://ns.adobe.com/Graphs/1.0/">
	<!ENTITY ns_vars "http://ns.adobe.com/Variables/1.0/">
	<!ENTITY ns_imrep "http://ns.adobe.com/ImageReplacement/1.0/">
	<!ENTITY ns_sfw "http://ns.adobe.com/SaveForWeb/1.0/">
	<!ENTITY ns_custom "http://ns.adobe.com/GenericCustomNamespace/1.0/">
	<!ENTITY ns_adobe_xpath "http://ns.adobe.com/XPath/1.0/">
]>
<svg version="1.1" id="Layer_2_1_" xmlns:x="&ns_extend;" xmlns:i="&ns_ai;" xmlns:graph="&ns_graphs;"
	 xmlns="http://www.w3.org/2000/svg" xmlns:xlink="http://www.w3.org/1999/xlink" x="0px" y="0px" viewBox="0 0 122.9 122.9"
	 style="enable-background:new 0 0 122.9 122.9;" xml:space="preserve">
<style type="text/css">
	.st0{fill:none;}
	.st1{fill:#FBB130;}
	.st2{fill:url(#SVGID_1_);fill-opacity:0.2;}
	.st3{fill:#00CEB3;}
	.st4{fill:url(#SVGID_2_);fill-opacity:0.2;}
	.st5{fill:#006158;}
	.st6{fill:url(#SVGID_3_);fill-opacity:0.2;}
	.st7{fill-rule:evenodd;clip-rule:evenodd;fill:#FFFFFF;}
</style>
<metadata  id="CorelCorpID_0Corel-Layer">
	<sfw  xmlns="&ns_sfw;">
		<slices></slices>
		<sliceSourceBounds  bottomLeftOrigin="true" height="122.9" width="122.9" x="0" y="0"></sliceSourceBounds>
	</sfw>
</metadata>
<rect y="0" class="st0" width="122.9" height="122.9"/>
<g id="Layer_3">
	<path class="st1" d="M94.6,115.1H28.2c-11.3,0-20.4-8.9-20.4-19.9V7.9h76.6c5.6,0,10.2,4.5,10.2,10V115.1z"/>
	
		<linearGradient id="SVGID_1_" gradientUnits="userSpaceOnUse" x1="-0.6839" y1="768.0175" x2="103.5424" y2="789.111" gradientTransform="matrix(1 0 0 1 0 -718)">
		<stop  offset="0" style="stop-color:#FFFFFF"/>
		<stop  offset="1" style="stop-color:#FFFFFF;stop-opacity:0"/>
	</linearGradient>
	<path class="st2" d="M94.6,115.1H28.2c-11.3,0-20.4-8.9-20.4-19.9V7.9h76.6c5.6,0,10.2,4.5,10.2,10V115.1z"/>
	<path class="st3" d="M94.6,115.1H28.2c-11.3,0-20.4-8.9-20.4-19.9V7.9h76.6c5.6,0,10.2,4.5,10.2,10V115.1z"/>
	
		<linearGradient id="SVGID_2_" gradientUnits="userSpaceOnUse" x1="-0.6839" y1="768.0175" x2="103.5424" y2="789.111" gradientTransform="matrix(1 0 0 1 0 -718)">
		<stop  offset="0" style="stop-color:#FFFFFF"/>
		<stop  offset="1" style="stop-color:#FFFFFF;stop-opacity:0"/>
	</linearGradient>
	<path class="st4" d="M94.6,115.1H28.2c-11.3,0-20.4-8.9-20.4-19.9V7.9h76.6c5.6,0,10.2,4.5,10.2,10V115.1z"/>
	<path class="st5" d="M28.2,115.1h66.4c2.7,0,5.3-0.5,7.8-1.6c2.5-1,4.7-2.5,6.6-4.4s3.4-4.1,4.4-6.6s1.6-5.1,1.6-7.8H48.7
		C48.7,105.9,39.5,115.1,28.2,115.1z"/>
	
		<linearGradient id="SVGID_3_" gradientUnits="userSpaceOnUse" x1="46.1671" y1="795.7744" x2="97.122" y2="849.9141" gradientTransform="matrix(1 0 0 1 0 -718)">
		<stop  offset="0" style="stop-color:#FFFFFF"/>
		<stop  offset="1" style="stop-color:#FFFFFF;stop-opacity:0"/>
	</linearGradient>
	<path class="st6" d="M28.2,115.1h66.4c2.7,0,5.3-0.5,7.8-1.6c2.5-1,4.7-2.5,6.6-4.4s3.4-4.1,4.4-6.6s1.6-5.1,1.6-7.8H48.7
		C48.7,105.9,39.5,115.1,28.2,115.1z"/>
	<path class="st7" d="M50.2,36.3c-12.2,0-22,9.8-22,22c0,12.1,9.8,21.9,21.9,21.9s22-9.8,22-21.9C72.3,46.1,62.4,36.3,50.2,36.3z
		 M61.2,61.9H46.5V43.6h7.4v11h7.3V61.9z"/>
</g>
</svg>
