<?xml version="1.0" encoding="utf-8"?>
<!-- Generator: Adobe Illustrator 24.2.3, SVG Export Plug-In . SVG Version: 6.00 Build 0)  -->
<!DOCTYPE svg PUBLIC "-//W3C//DTD SVG 1.1//EN" "http://www.w3.org/Graphics/SVG/1.1/DTD/svg11.dtd" [
	<!ENTITY ns_extend "http://ns.adobe.com/Extensibility/1.0/">
	<!ENTITY ns_ai "http://ns.adobe.com/AdobeIllustrator/10.0/">
	<!ENTITY ns_graphs "http://ns.adobe.com/Graphs/1.0/">
	<!ENTITY ns_vars "http://ns.adobe.com/Variables/1.0/">
	<!ENTITY ns_imrep "http://ns.adobe.com/ImageReplacement/1.0/">
	<!ENTITY ns_sfw "http://ns.adobe.com/SaveForWeb/1.0/">
	<!ENTITY ns_custom "http://ns.adobe.com/GenericCustomNamespace/1.0/">
	<!ENTITY ns_adobe_xpath "http://ns.adobe.com/XPath/1.0/">
]>
<svg version="1.1" id="Layer_2_1_" xmlns:x="&ns_extend;" xmlns:i="&ns_ai;" xmlns:graph="&ns_graphs;"
	 xmlns="http://www.w3.org/2000/svg" xmlns:xlink="http://www.w3.org/1999/xlink" x="0px" y="0px" viewBox="0 0 122.9 122.9"
	 style="enable-background:new 0 0 122.9 122.9;" xml:space="preserve">
<style type="text/css">
	.st0{fill:#1BB6F9;}
	.st1{fill:url(#SVGID_1_);fill-opacity:0.2;}
	.st2{fill:url(#SVGID_2_);fill-opacity:0.2;}
	.st3{fill-rule:evenodd;clip-rule:evenodd;fill:#FFFFFF;}
</style>
<metadata  id="CorelCorpID_0Corel-Layer">
	<sfw  xmlns="&ns_sfw;">
		<slices></slices>
		<sliceSourceBounds  bottomLeftOrigin="true" height="114.8" width="87.7" x="17.6" y="4"></sliceSourceBounds>
	</sfw>
</metadata>
<path class="st0" d="M91.9,34.5c0,16.8-13.6,30.4-30.4,30.4S31.1,51.3,31.1,34.5S44.7,4.1,61.5,4.1S91.9,17.7,91.9,34.5z"/>
<linearGradient id="SVGID_1_" gradientUnits="userSpaceOnUse" x1="31.1" y1="34.5" x2="91.9" y2="34.5">
	<stop  offset="0" style="stop-color:#FFFFFF"/>
	<stop  offset="1" style="stop-color:#FFFFFF;stop-opacity:0"/>
</linearGradient>
<path class="st1" d="M91.9,34.5c0,16.8-13.6,30.4-30.4,30.4S31.1,51.3,31.1,34.5S44.7,4.1,61.5,4.1S91.9,17.7,91.9,34.5z"/>
<path class="st0" d="M17.6,78.4h47.2c22.4,0,40.5,18.1,40.5,40.5H58.1C35.8,118.9,17.6,100.7,17.6,78.4z"/>
<linearGradient id="SVGID_2_" gradientUnits="userSpaceOnUse" x1="17.6" y1="98.65" x2="105.3" y2="98.65">
	<stop  offset="0" style="stop-color:#FFFFFF"/>
	<stop  offset="1" style="stop-color:#FFFFFF;stop-opacity:0"/>
</linearGradient>
<path class="st2" d="M17.6,78.4h47.2c22.4,0,40.5,18.1,40.5,40.5H58.1C35.8,118.9,17.6,100.7,17.6,78.4z"/>
<polygon class="st3" points="56.3,78.4 66.1,78.4 66.1,104.6 56.3,104.6 "/>
</svg>
